<svg width="48" height="49" viewBox="0 0 48 49" fill="none" xmlns="http://www.w3.org/2000/svg">
<path d="M12 44.5C10.9 44.5 9.95833 44.1083 9.175 43.325C8.39167 42.5417 8 41.6 8 40.5V20.5C8 19.4 8.39167 18.4583 9.175 17.675C9.95833 16.8917 10.9 16.5 12 16.5H14V12.5C14 9.73333 14.975 7.375 16.925 5.425C18.875 3.475 21.2333 2.5 24 2.5C26.7667 2.5 29.125 3.475 31.075 5.425C33.025 7.375 34 9.73333 34 12.5V16.5H36C37.1 16.5 38.0417 16.8917 38.825 17.675C39.6083 18.4583 40 19.4 40 20.5V40.5C40 41.6 39.6083 42.5417 38.825 43.325C38.0417 44.1083 37.1 44.5 36 44.5H12ZM12 40.5H36V20.5H12V40.5ZM24 34.5C25.1 34.5 26.0417 34.1083 26.825 33.325C27.6083 32.5417 28 31.6 28 30.5C28 29.4 27.6083 28.4583 26.825 27.675C26.0417 26.8917 25.1 26.5 24 26.5C22.9 26.5 21.9583 26.8917 21.175 27.675C20.3917 28.4583 20 29.4 20 30.5C20 31.6 20.3917 32.5417 21.175 33.325C21.9583 34.1083 22.9 34.5 24 34.5ZM18 16.5H30V12.5C30 10.8333 29.4167 9.41667 28.25 8.25C27.0833 7.08333 25.6667 6.5 24 6.5C22.3333 6.5 20.9167 7.08333 19.75 8.25C18.5833 9.41667 18 10.8333 18 12.5V16.5Z" fill="white"/>
</svg>
