<svg width="154" height="150" viewBox="0 0 154 150" fill="none" xmlns="http://www.w3.org/2000/svg">
<path d="M59.9789 122.129C59.9789 122.303 59.9914 122.503 60.0162 122.728C60.0411 122.928 60.0286 123.127 59.9789 123.327C59.9789 123.277 59.9665 123.302 59.9417 123.402C59.9168 123.477 59.9168 123.502 59.9417 123.477C59.9168 123.502 59.9044 123.527 59.9044 123.552C59.9044 123.577 59.892 123.602 59.8671 123.627L59.6808 123.851L59.569 123.964C59.5441 123.964 59.5069 123.988 59.4572 124.038C59.4323 124.088 59.4075 124.126 59.3826 124.151C59.2833 124.251 59.1963 124.388 59.1218 124.563C59.0472 124.712 58.9478 124.887 58.8236 125.087C58.7242 125.312 58.6248 125.536 58.5255 125.761C58.4261 125.986 58.3143 126.21 58.19 126.435C58.0161 126.834 57.8298 127.246 57.631 127.671C57.4571 128.07 57.2335 128.482 56.9602 128.906C56.7862 129.156 56.6247 129.331 56.4757 129.43C56.4508 129.48 56.426 129.543 56.4011 129.618C56.4011 129.693 56.3763 129.755 56.3266 129.805C56.3266 129.805 56.2769 129.767 56.1775 129.693C56.1527 129.668 56.1278 129.63 56.103 129.58C56.103 129.53 56.0284 129.43 55.8794 129.281L55.8048 129.206C55.7303 129.081 55.6558 128.969 55.5812 128.869C55.5315 128.744 55.4818 128.632 55.4321 128.532L55.3203 128.307L55.2831 128.27L54.9476 127.633C54.724 127.234 54.488 126.847 54.2395 126.472C54.0159 126.073 53.7799 125.673 53.5314 125.274C53.432 125.124 53.3451 124.987 53.2705 124.862L53.0096 124.488C52.9351 124.413 52.8606 124.338 52.786 124.263V140.551C52.8109 140.751 52.8109 140.938 52.786 141.113C52.786 141.288 52.786 141.413 52.786 141.488V141.562C52.7612 141.587 52.7488 141.612 52.7488 141.637C52.6991 141.737 52.6618 141.8 52.637 141.825C52.637 141.85 52.6245 141.875 52.5997 141.899C52.5003 142.024 52.3761 142.124 52.227 142.199C52.2022 142.224 52.1773 142.249 52.1525 142.274C52.1276 142.299 52.1028 142.324 52.0779 142.349C52.0531 142.399 52.0158 142.449 51.9661 142.499C51.9164 142.573 51.8667 142.636 51.817 142.686C51.7177 142.786 51.6059 142.823 51.4816 142.798C51.4319 142.773 51.3822 142.723 51.3325 142.648C51.2829 142.598 51.2332 142.573 51.1835 142.573C51.1338 142.549 51.0841 142.561 51.0344 142.611C50.9847 142.686 50.935 142.723 50.8853 142.723C50.6866 142.648 50.5996 142.573 50.6244 142.499C50.6741 142.424 50.5872 142.436 50.3636 142.536C50.289 142.661 50.2021 142.823 50.1027 143.023C50.0033 143.247 49.8666 143.297 49.6927 143.173C49.643 143.123 49.5933 143.048 49.5436 142.948C49.5188 142.873 49.4691 142.823 49.3946 142.798L49.3573 142.836C49.3573 142.861 49.3449 142.873 49.32 142.873C49.32 142.898 49.32 142.91 49.32 142.91L49.0964 143.06L48.9473 143.21C48.9473 143.235 48.9225 143.385 48.8728 143.659C48.8231 143.934 48.7734 144.209 48.7237 144.483C48.674 144.758 48.6492 144.895 48.6492 144.895C48.6243 144.995 48.5995 145.107 48.5746 145.232C48.5746 145.357 48.5498 145.469 48.5001 145.569C48.4753 145.594 48.438 145.606 48.3883 145.606C48.3635 145.631 48.351 145.631 48.351 145.606C48.3013 145.257 48.2765 144.908 48.2765 144.558C48.2765 144.209 48.2516 143.859 48.202 143.51C48.202 143.385 48.1647 143.247 48.0901 143.098C48.0405 143.048 47.9535 142.948 47.8293 142.798C47.7299 142.673 47.6429 142.573 47.5684 142.499H47.4566C47.3323 142.499 47.2454 142.486 47.1957 142.461C47.1708 142.511 47.1336 142.549 47.0839 142.573C47.0342 142.623 47.0093 142.661 47.0093 142.686L46.9721 142.723C46.8479 142.873 46.7236 143.023 46.5994 143.173C46.5 143.322 46.3882 143.497 46.264 143.697C46.2143 143.747 46.177 143.797 46.1522 143.847C46.1273 143.872 46.1025 143.897 46.0776 143.921C46.0528 143.946 46.0155 143.984 45.9658 144.034C45.9161 144.084 45.8664 144.121 45.8167 144.146C45.7919 144.421 45.7795 144.82 45.7795 145.344C45.7795 145.894 45.767 146.468 45.7422 147.067C45.7422 147.666 45.7298 148.228 45.7049 148.752C45.7049 149.301 45.6925 149.713 45.6677 149.988C45.6677 150.012 45.6428 150 45.5931 149.95C45.5434 149.9 45.5186 149.863 45.5186 149.838C45.3695 149.563 45.3074 149.164 45.3322 148.64C45.3819 148.14 45.444 147.579 45.5186 146.954C45.5931 146.355 45.618 145.781 45.5931 145.232C45.5931 144.708 45.4813 144.283 45.2577 143.959C45.2577 143.909 45.2329 143.872 45.1832 143.847C45.1583 143.822 45.1459 143.809 45.1459 143.809C45.0465 143.609 44.9471 143.422 44.8477 143.247C44.7484 143.073 44.649 142.898 44.5496 142.723C44.5496 142.698 44.5372 142.673 44.5123 142.648C44.5123 142.648 44.5123 142.636 44.5123 142.611C44.4875 142.586 44.4502 142.524 44.4005 142.424C44.326 142.349 44.239 142.311 44.1396 142.311C44.1148 142.311 44.0899 142.311 44.0651 142.311C44.0651 142.286 44.0402 142.274 43.9906 142.274C43.7918 142.199 43.6303 142.074 43.5061 141.899C43.4564 141.85 43.4067 141.75 43.357 141.6C43.3073 141.4 43.2824 141.213 43.2824 141.038C43.2824 140.913 43.2824 140.814 43.2824 140.739C43.3073 140.639 43.3197 140.539 43.3197 140.439V124.45L43.1706 124.151C43.1706 124.151 43.1458 124.201 43.0961 124.301C43.0713 124.325 43.0588 124.363 43.0588 124.413C43.034 124.513 43.0091 124.613 42.9843 124.712C42.9594 124.812 42.9222 124.9 42.8725 124.975L42.6489 125.424C42.5992 125.524 42.5371 125.624 42.4625 125.723C42.388 125.823 42.301 125.923 42.2016 126.023C42.152 126.073 42.1271 126.098 42.1271 126.098C42.0774 126.123 42.0277 126.16 41.978 126.21C41.9035 126.31 41.8662 126.372 41.8662 126.397C41.8662 126.422 41.7668 126.522 41.5681 126.697C41.4687 126.697 41.419 126.697 41.419 126.697C41.3693 126.797 41.3569 126.922 41.3817 127.071C41.4066 127.221 41.3569 127.321 41.2327 127.371C41.1581 127.396 41.1208 127.346 41.1208 127.221C41.1208 127.071 41.1084 126.959 41.0836 126.884L40.9718 126.36C40.8972 126.31 40.8227 126.248 40.7482 126.173C40.6736 126.073 40.6115 125.998 40.5618 125.948C40.5867 125.973 40.5618 125.961 40.4873 125.911C40.4127 125.836 40.363 125.786 40.3382 125.761L40.2637 125.686C40.214 125.711 40.1767 125.761 40.1519 125.836C40.127 125.911 40.1022 125.973 40.0773 126.023C40.0525 126.148 40.0152 126.26 39.9655 126.36C39.9407 126.46 39.9282 126.547 39.9282 126.622C39.9282 126.397 39.8786 126.123 39.7792 125.798C39.7792 125.823 39.7667 125.836 39.7419 125.836C39.7419 125.836 39.7419 125.848 39.7419 125.873C39.7171 125.873 39.7046 125.886 39.7046 125.911C39.6798 125.936 39.6549 125.961 39.6301 125.986C39.6052 126.01 39.5556 126.085 39.481 126.21C39.4313 126.31 39.3816 126.385 39.3319 126.435C39.3319 126.435 39.3195 126.447 39.2947 126.472C39.2947 126.472 39.2822 126.472 39.2574 126.472C39.2574 126.472 39.245 126.485 39.2201 126.51C39.2201 126.51 39.2077 126.51 39.1829 126.51C39.158 126.759 39.1456 126.997 39.1456 127.221C39.1704 127.446 39.1953 127.683 39.2201 127.933C39.1704 127.608 39.0586 127.458 38.8847 127.483C38.7356 127.533 38.6487 127.608 38.6238 127.708C38.6238 127.483 38.6238 127.259 38.6238 127.034C38.6487 126.784 38.6487 126.547 38.6238 126.323C38.5493 126.273 38.4748 126.21 38.4002 126.135C38.3257 126.035 38.2511 125.948 38.1766 125.873L37.8784 125.574C37.6797 125.349 37.5803 125.237 37.5803 125.237C37.5803 125.237 37.5554 125.212 37.5058 125.162C37.4561 125.112 37.2449 124.887 36.8722 124.488C36.8722 124.538 36.8473 124.563 36.7976 124.563C36.7728 124.563 36.748 124.525 36.7231 124.45C36.7231 124.375 36.7107 124.313 36.6858 124.263C36.7107 124.288 36.6858 124.251 36.6113 124.151C36.5616 124.026 36.5243 123.951 36.4995 123.926C36.251 123.726 36.1268 123.464 36.1268 123.14V118.309C36.1268 118.185 36.1144 117.972 36.0895 117.673C36.0895 117.348 36.1144 117.074 36.1641 116.849C36.1889 116.799 36.2013 116.762 36.2013 116.737C36.2013 116.687 36.2138 116.649 36.2386 116.624C36.3132 116.475 36.4125 116.362 36.5368 116.287C36.5616 116.287 36.574 116.287 36.574 116.287C36.574 116.262 36.5865 116.25 36.6113 116.25L36.6486 116.212C36.7976 116.138 36.9343 116.1 37.0585 116.1C37.2573 116.075 37.4436 116.075 37.6176 116.1C37.8163 116.1 38.0027 116.1 38.1766 116.1H57.631C57.9043 116.1 58.19 116.088 58.4882 116.063C58.7863 116.038 59.0596 116.063 59.3081 116.138C59.3826 116.163 59.4448 116.2 59.4944 116.25C59.569 116.275 59.6187 116.312 59.6435 116.362C59.8174 116.487 59.9168 116.624 59.9417 116.774C59.9665 116.924 59.9789 117.086 59.9789 117.261C60.0038 117.66 60.0038 118.085 59.9789 118.534C59.9789 118.958 59.9789 119.383 59.9789 119.807V122.129ZM38.7356 129.955C38.7853 130.179 38.7729 130.154 38.6984 129.88C38.6238 129.605 38.5617 129.243 38.512 128.794C38.4872 128.32 38.5244 127.958 38.6238 127.708C38.599 128.107 38.5866 128.494 38.5866 128.869C38.6114 129.243 38.6611 129.605 38.7356 129.955ZM39.0338 129.917C38.9841 130.067 38.9717 130.067 38.9965 129.917C39.0462 129.742 39.0959 129.493 39.1456 129.168C39.1953 128.844 39.2201 128.544 39.2201 128.27C39.2201 128.544 39.2077 128.819 39.1829 129.093C39.1829 129.368 39.1332 129.643 39.0338 129.917Z" fill="#BC0909"/>
<path d="M79.1675 140.963C79.1675 141.063 79.1551 141.138 79.1302 141.188C79.1302 141.513 79.0681 141.75 78.9439 141.899C78.9191 141.949 78.8694 142.012 78.7948 142.087C78.7203 142.137 78.6458 142.187 78.5712 142.236C78.2979 142.511 78.1737 142.736 78.1985 142.91C78.2234 143.085 78.2979 143.235 78.4221 143.36C78.5464 143.485 78.6209 143.634 78.6458 143.809C78.6706 143.984 78.5464 144.209 78.2731 144.483C78.2482 144.558 78.2234 144.633 78.1985 144.708C78.1985 144.808 78.1737 144.883 78.124 144.932C78.0991 144.957 78.0494 144.895 77.9749 144.745C77.9501 144.62 77.9252 144.483 77.9004 144.333C77.8755 144.184 77.8507 144.034 77.8258 143.884C77.801 143.46 77.7886 143.21 77.7886 143.135C77.8134 143.085 77.7637 142.923 77.6395 142.648L77.4904 142.798C77.4159 142.873 77.3413 142.935 77.2668 142.985C77.2171 143.035 77.155 143.11 77.0805 143.21C76.9811 143.36 76.8817 143.51 76.7823 143.659C76.6829 143.809 76.5835 143.959 76.4842 144.109C76.4593 144.134 76.422 144.196 76.3723 144.296C76.3226 144.396 76.273 144.458 76.2233 144.483C76.099 144.533 75.9997 144.471 75.9251 144.296C75.8506 144.121 75.7885 144.009 75.7388 143.959C75.7139 143.884 75.6891 143.809 75.6642 143.734C75.6642 143.659 75.6394 143.584 75.5897 143.51C75.54 143.485 75.4655 143.422 75.3661 143.322C75.3164 143.272 75.2791 143.223 75.2543 143.173L74.8816 142.723L74.6952 142.536C74.6455 142.561 74.5834 142.549 74.5089 142.499C74.4344 142.449 74.3722 142.411 74.3225 142.386C74.1983 142.511 74.1362 142.586 74.1362 142.611C73.9374 142.786 73.7635 142.985 73.6144 143.21C73.4902 143.46 73.366 143.709 73.2418 143.959C73.2169 144.009 73.1672 144.071 73.0927 144.146C73.043 144.221 72.9809 144.283 72.9063 144.333C72.8566 144.383 72.8194 144.408 72.7945 144.408C72.7697 144.558 72.7448 144.708 72.72 144.858C72.72 145.032 72.6951 145.195 72.6454 145.344C72.6206 145.369 72.5833 145.357 72.5336 145.307C72.5088 145.282 72.4964 145.257 72.4964 145.232C72.4467 145.032 72.4218 144.883 72.4218 144.783C72.4467 144.708 72.4094 144.521 72.31 144.221C72.2852 144.221 72.2603 144.209 72.2355 144.184C72.2355 144.159 72.2106 144.121 72.1609 144.071C72.1609 144.021 72.1361 143.984 72.0864 143.959C72.0616 143.934 72.0491 143.921 72.0491 143.921L71.7137 143.36L71.2665 142.648C71.2416 142.549 71.2044 142.449 71.1547 142.349C71.105 142.274 71.0553 142.199 71.0056 142.124L70.9683 142.087C70.869 142.012 70.7696 141.887 70.6702 141.712C70.6702 141.687 70.6578 141.675 70.6329 141.675C70.6329 141.65 70.6329 141.625 70.6329 141.6C70.6081 141.475 70.5956 141.338 70.5956 141.188C70.5956 141.013 70.5956 140.801 70.5956 140.551V140.252C70.546 140.302 70.5087 140.352 70.4838 140.402L70.372 140.514C70.1484 140.789 69.9 141.038 69.6267 141.263C69.5273 141.513 69.4527 141.775 69.403 142.049C69.3534 142.299 69.2664 142.549 69.1422 142.798C69.1173 142.898 69.0676 142.998 68.9931 143.098C68.9434 143.223 68.8689 143.322 68.7695 143.397C68.7446 143.422 68.6701 143.447 68.5459 143.472C68.4465 143.497 68.3844 143.497 68.3595 143.472C68.3347 143.397 68.3222 143.31 68.3222 143.21C68.3222 143.135 68.3222 143.06 68.3222 142.985C68.2974 143.06 68.2601 143.123 68.2104 143.173C68.1856 143.247 68.1483 143.31 68.0986 143.36C68.0738 143.41 68.0365 143.447 67.9868 143.472C67.9371 143.522 67.8874 143.572 67.8377 143.622C67.7632 144.021 67.7011 144.396 67.6514 144.745C67.6266 145.12 67.5893 145.507 67.5396 145.906C67.5147 146.006 67.4899 146.106 67.4651 146.206C67.4402 146.33 67.4029 146.455 67.3533 146.58C67.3533 146.705 67.316 146.805 67.2414 146.88C67.2166 146.905 67.1669 146.88 67.0924 146.805C67.0675 146.755 67.0427 146.692 67.0178 146.617C66.993 146.568 66.9681 146.518 66.9433 146.468C66.9184 146.343 66.8688 146.131 66.7942 145.831C66.7197 145.557 66.6576 145.369 66.6079 145.269C66.583 145.17 66.5582 145.057 66.5333 144.932C66.5085 144.833 66.4836 144.733 66.4588 144.633C66.4339 144.558 66.4091 144.471 66.3843 144.371C66.3843 144.296 66.3594 144.209 66.3097 144.109L66.1979 143.996C66.1234 143.897 66.0488 143.784 65.9743 143.659C65.8998 143.56 65.8252 143.46 65.7507 143.36C65.7258 143.285 65.6886 143.21 65.6389 143.135C65.5892 143.085 65.5395 143.01 65.4898 142.91C65.465 142.861 65.4401 142.811 65.4153 142.761C65.3904 142.736 65.3531 142.711 65.3035 142.686H65.0053C63.3903 142.636 61.9989 142.249 60.8312 141.525C59.6883 140.801 58.8932 139.877 58.446 138.754C58.4211 138.679 58.3963 138.604 58.3714 138.529C58.3466 138.455 58.3217 138.38 58.2969 138.305C58.2969 138.28 58.2845 138.255 58.2596 138.23C58.2596 138.205 58.2596 138.18 58.2596 138.155C58.2348 138.03 58.2099 137.918 58.1851 137.818C58.1602 137.693 58.1354 137.581 58.1105 137.481C58.0857 137.331 58.0733 137.181 58.0733 137.032C58.0733 136.857 58.0733 136.695 58.0733 136.545C58.0733 136.445 58.0733 136.358 58.0733 136.283C58.0981 136.208 58.1105 136.121 58.1105 136.021L58.1478 135.759C58.2224 135.359 58.3342 134.997 58.4832 134.673C58.8311 133.874 59.3653 133.187 60.0858 132.613C60.2349 132.488 60.384 132.376 60.533 132.276C60.6821 132.176 60.8436 132.077 61.0175 131.977L61.502 131.715C61.5517 131.665 61.6138 131.615 61.6884 131.565C61.7629 131.515 61.8374 131.477 61.912 131.452C61.9617 131.402 62.0238 131.365 62.0983 131.34C62.1729 131.315 62.2474 131.29 62.3219 131.265C62.5952 131.14 62.8686 131.041 63.1419 130.966C63.44 130.891 63.7382 130.816 64.0363 130.741C64.3842 130.641 64.732 130.554 65.0798 130.479C65.4525 130.404 65.8376 130.329 66.2352 130.254L67.1296 130.104C67.4775 130.055 67.8129 130.005 68.1359 129.955C68.4837 129.88 68.8316 129.817 69.1794 129.767C69.2788 129.767 69.3409 129.755 69.3658 129.73L70.1857 129.58V128.981C70.1857 129.081 70.1733 129.056 70.1484 128.906C70.1484 128.756 70.1484 128.669 70.1484 128.644C70.1484 128.669 70.136 128.644 70.1112 128.569C70.1112 128.469 70.1112 128.432 70.1112 128.457C70.1112 128.432 70.0987 128.407 70.0739 128.382C70.0739 128.357 70.0739 128.332 70.0739 128.307C70.0242 128.157 69.9248 128.008 69.7757 127.858C69.7509 127.858 69.7385 127.858 69.7385 127.858C69.7385 127.833 69.7136 127.82 69.6639 127.82C69.6142 127.845 69.5521 127.895 69.4776 127.97C69.4279 128.045 69.3906 128.107 69.3658 128.157C69.2912 128.282 69.2043 128.444 69.1049 128.644C69.0055 128.819 68.8813 128.944 68.7322 129.019C68.5583 129.118 68.3968 129.056 68.2477 128.831C68.0986 128.607 67.9744 128.444 67.875 128.345C67.8253 128.295 67.7881 128.27 67.7632 128.27L67.4278 128.607C67.3533 128.657 67.2787 128.706 67.2042 128.756C67.1296 128.806 67.0551 128.856 66.9806 128.906C66.8315 128.981 66.67 129.043 66.4961 129.093C66.347 129.118 66.1979 129.156 66.0488 129.206C65.7507 129.306 65.4525 129.418 65.1544 129.543C64.8811 129.643 64.5953 129.717 64.2972 129.767C63.9245 129.817 63.5767 129.742 63.2537 129.543C62.9307 129.318 62.5828 129.218 62.2101 129.243C61.8623 129.243 61.5144 129.231 61.1666 129.206C60.8436 129.181 60.5082 129.118 60.1603 129.019C60.061 128.969 59.9988 128.944 59.974 128.944C59.9492 128.944 59.9243 128.956 59.8995 128.981C59.8746 129.006 59.8498 129.006 59.8249 128.981C59.8001 128.956 59.7752 128.931 59.7504 128.906C59.7504 128.881 59.7255 128.856 59.6758 128.831C59.651 128.781 59.6137 128.731 59.564 128.682C59.5143 128.632 59.4895 128.607 59.4895 128.607C59.4647 128.582 59.4274 128.519 59.3777 128.419C59.328 128.27 59.3156 128.12 59.3404 127.97C59.3653 127.795 59.4025 127.633 59.4522 127.483C59.4771 127.408 59.5019 127.334 59.5268 127.259C59.5516 127.184 59.5765 127.096 59.6013 126.997C59.8498 126.522 60.1231 126.11 60.4212 125.761C60.6945 125.411 61.0175 125.074 61.3902 124.75C61.7878 124.425 62.235 124.138 62.7319 123.889C62.9307 123.714 63.1667 123.564 63.44 123.439C63.6885 123.314 63.9493 123.215 64.2227 123.14C64.5208 123.065 64.819 123.002 65.1171 122.952C65.6886 122.803 66.3097 122.69 66.9806 122.616C67.6514 122.516 68.3844 122.466 69.1794 122.466H69.9248C70.0739 122.466 70.2105 122.466 70.3348 122.466C70.459 122.466 70.5584 122.478 70.6329 122.503L70.8938 122.541H71.0801C71.4031 122.541 71.6392 122.578 71.7883 122.653C72.2106 122.678 72.633 122.753 73.0554 122.878C73.3536 122.928 73.6393 122.99 73.9126 123.065C74.2107 123.14 74.4716 123.24 74.6952 123.364C75.0182 123.464 75.3288 123.614 75.627 123.814C75.95 124.013 76.2357 124.213 76.4842 124.413C76.4842 124.438 76.4842 124.45 76.4842 124.45C76.509 124.45 76.5214 124.45 76.5214 124.45C76.596 124.5 76.6581 124.563 76.7078 124.638C76.7823 124.687 76.8444 124.737 76.8941 124.787C78.0867 125.861 78.7948 127.296 79.0184 129.093C79.0433 129.118 79.0557 129.156 79.0557 129.206C79.1302 129.73 79.1551 130.254 79.1302 130.778C79.1302 131.303 79.1302 131.827 79.1302 132.351V140.102C79.1302 140.227 79.1302 140.364 79.1302 140.514C79.1551 140.664 79.1675 140.814 79.1675 140.963ZM70.2975 134.71V134.261C70.2975 134.236 70.2727 134.236 70.223 134.261C70.1981 134.261 70.1609 134.273 70.1112 134.298C70.0863 134.298 70.0615 134.298 70.0366 134.298C69.9372 134.348 69.8254 134.398 69.7012 134.448C69.577 134.473 69.4527 134.51 69.3285 134.56C69.08 134.66 68.8192 134.735 68.5459 134.785C68.2974 134.81 68.0365 134.847 67.7632 134.897C67.639 134.922 67.5023 134.96 67.3533 135.01C67.2042 135.06 67.0675 135.122 66.9433 135.197C66.8439 135.272 66.7694 135.347 66.7197 135.422C66.5458 135.646 66.4588 135.871 66.4588 136.096C66.4588 136.27 66.5458 136.495 66.7197 136.77C66.7694 136.795 66.8191 136.832 66.8688 136.882C66.9433 136.907 67.0178 136.944 67.0924 136.994L67.2787 137.069C67.6017 137.094 67.7756 137.119 67.8005 137.144C67.8253 137.144 67.9744 137.132 68.2477 137.107C69.3161 136.957 69.9621 136.345 70.1857 135.272C70.2354 135.122 70.2602 134.985 70.2602 134.86C70.2602 134.785 70.2727 134.735 70.2975 134.71Z" fill="#BC0909"/>
<path d="M91.0217 141.225C91.0217 141.35 90.9968 141.488 90.9471 141.637C90.9471 141.637 90.9223 141.687 90.8726 141.787L90.8353 141.825C90.8105 141.899 90.7235 141.999 90.5744 142.124C90.4502 142.224 90.3757 142.286 90.3508 142.311L90.3136 142.349C90.3136 142.374 90.3011 142.386 90.2763 142.386C90.2763 142.386 90.2763 142.399 90.2763 142.424C90.2266 142.549 90.1769 142.611 90.1272 142.611C90.0278 142.761 89.9284 142.91 89.8291 143.06C89.7545 143.21 89.6551 143.347 89.5309 143.472C89.4315 143.597 89.3073 143.709 89.1582 143.809C89.034 143.909 88.9098 144.021 88.7855 144.146C88.6613 144.271 88.5619 144.408 88.4874 144.558C88.4625 144.633 88.4253 144.695 88.3756 144.745C88.3507 144.82 88.3259 144.883 88.301 144.932C88.1271 145.282 88.0153 145.557 87.9656 145.756C87.9159 145.956 87.7793 146.243 87.5556 146.617C87.5308 146.717 87.4438 146.817 87.2948 146.917C87.2699 146.967 87.2202 147.092 87.1457 147.291C87.096 147.491 86.9966 147.579 86.8475 147.554C86.7979 147.554 86.7357 147.504 86.6612 147.404C86.6115 147.329 86.5742 147.279 86.5494 147.254C86.4749 147.129 86.4127 147.004 86.363 146.88C86.3134 146.755 86.2388 146.642 86.1394 146.543C86.0897 146.493 86.0525 146.443 86.0276 146.393C85.9282 146.318 85.8164 146.206 85.6922 146.056C85.6674 146.006 85.6301 145.956 85.5804 145.906C85.5555 145.856 85.5183 145.819 85.4686 145.794C85.2947 145.569 85.1456 145.319 85.0214 145.045C84.8971 144.795 84.7729 144.546 84.6487 144.296C84.6238 144.221 84.599 144.146 84.5741 144.071C84.5493 143.996 84.512 143.921 84.4623 143.847L84.2387 143.397C84.0648 143.098 83.8785 142.848 83.6797 142.648C83.6797 142.723 83.6548 142.761 83.6051 142.761C83.5803 142.761 83.5555 142.723 83.5306 142.648C83.5058 142.598 83.4809 142.561 83.4561 142.536C83.4561 142.511 83.4436 142.486 83.4188 142.461C83.3443 142.711 83.2946 143.085 83.2697 143.584C83.2449 144.109 83.2325 144.62 83.2325 145.12C83.2573 145.644 83.2697 146.056 83.2697 146.355C83.2697 146.655 83.2573 146.717 83.2325 146.543C83.0834 145.968 83.0337 145.269 83.0834 144.446C83.1331 143.647 83.0958 142.923 82.9716 142.274C82.9219 142.249 82.8722 142.224 82.8225 142.199C82.7976 142.174 82.7604 142.149 82.7107 142.124C82.4374 141.899 82.3007 141.65 82.3007 141.375C82.2759 141.126 82.2635 140.876 82.2635 140.626C82.2883 140.377 82.3007 140.14 82.3007 139.915V117.635C82.3007 117.386 82.2883 117.124 82.2635 116.849C82.2635 116.574 82.338 116.337 82.4871 116.138L82.7107 115.913C82.8846 115.788 83.0834 115.726 83.307 115.726H89.5309C89.6551 115.726 89.7794 115.726 89.9036 115.726C90.0527 115.701 90.1893 115.713 90.3136 115.763C90.3881 115.788 90.4502 115.826 90.4999 115.875C90.5744 115.9 90.6366 115.938 90.6862 115.988C90.7359 116.038 90.7856 116.113 90.8353 116.212C90.9347 116.337 90.9844 116.512 90.9844 116.737V140.102C90.9844 140.277 90.9968 140.464 91.0217 140.664C91.0465 140.839 91.0465 141.026 91.0217 141.225Z" fill="#BC0909"/>
<path d="M116.485 141.75C116.461 141.85 116.398 141.937 116.299 142.012C116.225 142.087 116.162 142.149 116.113 142.199C116.088 142.224 116.063 142.249 116.038 142.274C116.013 142.299 115.976 142.324 115.926 142.349C115.877 142.449 115.815 142.561 115.74 142.686C115.665 142.811 115.554 142.861 115.405 142.836C115.305 142.836 115.256 142.823 115.256 142.798C115.181 142.873 115.119 142.923 115.069 142.948C114.97 143.048 114.858 143.11 114.734 143.135C114.61 143.16 114.473 143.198 114.324 143.247C114.274 143.272 114.224 143.285 114.175 143.285C114.15 143.31 114.1 143.347 114.026 143.397C113.951 143.472 113.901 143.497 113.877 143.472C113.852 143.372 113.839 143.272 113.839 143.173C113.839 143.073 113.827 142.973 113.802 142.873C113.727 142.973 113.653 143.06 113.578 143.135C113.504 143.235 113.442 143.347 113.392 143.472C113.342 143.572 113.28 143.659 113.206 143.734C113.131 143.809 113.069 143.884 113.019 143.959C112.995 144.009 112.945 144.059 112.87 144.109C112.796 144.184 112.734 144.246 112.684 144.296C112.659 144.421 112.634 144.558 112.609 144.708C112.609 144.858 112.597 145.007 112.572 145.157C112.547 145.207 112.522 145.269 112.498 145.344C112.498 145.444 112.473 145.482 112.423 145.457C112.349 145.432 112.299 145.382 112.274 145.307C112.274 145.232 112.274 145.157 112.274 145.082C112.199 144.783 112.15 144.595 112.125 144.521C112.125 144.446 112.113 144.396 112.088 144.371C112.088 144.346 112.026 144.271 111.901 144.146C111.802 143.996 111.715 143.884 111.64 143.809C111.541 143.709 111.454 143.647 111.38 143.622C111.33 144.171 111.305 144.708 111.305 145.232C111.305 145.781 111.28 146.318 111.23 146.842C111.23 146.867 111.206 146.88 111.156 146.88C111.106 146.88 111.081 146.867 111.081 146.842C111.057 146.343 111.044 145.831 111.044 145.307C111.044 144.783 111.019 144.258 110.97 143.734L110.634 144.071C110.609 144.321 110.584 144.558 110.56 144.783C110.56 145.032 110.535 145.282 110.485 145.532C110.485 145.557 110.46 145.532 110.411 145.457C110.386 145.382 110.361 145.332 110.336 145.307C110.311 145.107 110.286 144.908 110.261 144.708C110.237 144.508 110.199 144.308 110.15 144.109C110.075 144.084 109.988 143.996 109.889 143.847C109.814 143.722 109.727 143.584 109.628 143.435C109.529 143.31 109.404 143.16 109.255 142.985C109.23 142.985 109.218 142.973 109.218 142.948C109.218 142.948 109.206 142.948 109.181 142.948C109.156 142.948 109.131 142.96 109.106 142.985C109.106 143.01 109.081 143.035 109.032 143.06C109.007 143.085 108.969 143.098 108.92 143.098C108.895 143.123 108.883 143.148 108.883 143.173C108.883 143.198 108.883 143.347 108.883 143.622C108.907 143.897 108.895 144.184 108.845 144.483C108.82 144.808 108.733 145.057 108.584 145.232C108.56 145.257 108.522 145.282 108.473 145.307C108.448 145.332 108.435 145.332 108.435 145.307C108.386 144.957 108.398 144.595 108.473 144.221C108.547 143.872 108.485 143.56 108.286 143.285C108.212 143.185 108.174 143.223 108.174 143.397C108.199 143.572 108.224 143.784 108.249 144.034C108.274 144.308 108.286 144.533 108.286 144.708C108.286 144.883 108.237 144.932 108.137 144.858C107.889 144.658 107.827 144.371 107.951 143.996C108.075 143.647 108.087 143.335 107.988 143.06C107.963 142.96 107.951 142.998 107.951 143.173C107.976 143.372 107.976 143.572 107.951 143.772C107.951 143.971 107.914 144.034 107.839 143.959C107.715 143.809 107.677 143.609 107.727 143.36C107.777 143.135 107.777 142.923 107.727 142.723C107.702 142.673 107.678 142.711 107.653 142.836C107.653 142.985 107.628 143.048 107.578 143.023C107.528 142.973 107.504 142.91 107.504 142.836C107.504 142.761 107.491 142.686 107.466 142.611C107.441 142.561 107.429 142.499 107.429 142.424C107.429 142.374 107.404 142.336 107.355 142.311C107.355 142.311 107.317 142.311 107.243 142.311C107.193 142.286 107.143 142.249 107.094 142.199C106.994 142.099 106.907 142.012 106.833 141.937C106.783 141.837 106.733 141.75 106.684 141.675L106.646 141.637C106.448 141.363 106.261 141.038 106.087 140.664L103.404 136.17C103.255 135.946 103.143 135.759 103.069 135.609L103.031 135.571L102.882 135.609V139.952C102.882 140.202 102.895 140.464 102.919 140.739C102.944 140.988 102.932 141.238 102.882 141.488C102.882 141.587 102.845 141.675 102.77 141.75C102.77 141.8 102.746 141.85 102.696 141.899C102.597 142.049 102.522 142.124 102.472 142.124C102.423 142.199 102.373 142.261 102.323 142.311C102.274 142.386 102.224 142.461 102.174 142.536C102.149 142.561 102.124 142.598 102.1 142.648C102.1 142.698 102.075 142.723 102.025 142.723C102.025 142.723 102.013 142.723 101.988 142.723C101.988 142.723 101.988 142.711 101.988 142.686C101.814 142.935 101.603 143.198 101.354 143.472C101.131 143.747 100.857 143.872 100.534 143.847C100.311 143.847 100.186 143.809 100.162 143.734C100.162 143.659 100.149 143.497 100.124 143.247C100.025 143.247 99.9628 143.272 99.938 143.322C99.9131 143.547 99.938 143.822 100.013 144.146C100.087 144.496 100.124 144.795 100.124 145.045C100.149 145.319 100.037 145.457 99.7889 145.457C99.615 145.457 99.528 145.357 99.528 145.157C99.5529 144.957 99.6026 144.72 99.6771 144.446C99.7516 144.196 99.8013 143.959 99.8262 143.734C99.851 143.51 99.7889 143.36 99.6398 143.285C99.5653 143.235 99.4907 143.21 99.4162 143.21C99.3914 143.235 99.3789 143.26 99.3789 143.285C99.3789 143.335 99.3665 143.385 99.3417 143.435C99.3417 143.435 99.292 143.41 99.1926 143.36C99.1677 143.36 99.1429 143.347 99.1181 143.322C99.1181 143.322 99.0932 143.322 99.0435 143.322C99.0435 143.322 98.9938 143.297 98.8944 143.247C98.8199 143.223 98.7702 143.198 98.7454 143.173C98.7205 143.123 98.7081 143.06 98.7081 142.985C98.6584 142.985 98.6336 142.985 98.6336 142.985C98.5839 143.085 98.559 143.185 98.559 143.285C98.559 143.385 98.5342 143.472 98.4845 143.547C98.4845 143.572 98.4348 143.535 98.3354 143.435C98.2857 143.41 98.236 143.372 98.1863 143.322C98.0621 143.223 97.9627 143.11 97.8882 142.985C97.8136 142.861 97.7267 142.748 97.6273 142.648C97.6025 142.648 97.5652 142.623 97.5155 142.573C97.4906 142.598 97.4534 142.598 97.4037 142.573C97.3788 142.573 97.3416 142.586 97.2919 142.611C97.1925 142.661 97.0931 142.723 96.9937 142.798C96.9192 142.873 96.8198 142.935 96.6956 142.985C96.5465 143.01 96.3974 142.998 96.2484 142.948C96.1241 142.898 95.9999 142.823 95.8757 142.723C95.8508 142.823 95.826 142.923 95.8011 143.023C95.8011 143.148 95.7763 143.26 95.7266 143.36C95.7017 143.385 95.6645 143.372 95.6148 143.322C95.5899 143.272 95.5651 143.235 95.5402 143.21C95.416 143.085 95.329 142.948 95.2794 142.798C95.2545 142.648 95.2172 142.486 95.1675 142.311C95.1179 142.311 95.093 142.299 95.093 142.274C95.0433 142.274 95.0061 142.261 94.9812 142.236C94.9564 142.236 94.9315 142.224 94.9067 142.199C94.6831 142.099 94.534 141.962 94.4594 141.787C94.3849 141.587 94.3476 141.388 94.3476 141.188C94.3228 141.063 94.3104 140.951 94.3104 140.851C94.3104 140.751 94.3104 140.651 94.3104 140.551C94.3352 139.977 94.3476 139.316 94.3476 138.567C94.3476 137.818 94.3476 137.156 94.3476 136.582V116.737C94.3476 116.462 94.4222 116.25 94.5713 116.1C94.6209 116.05 94.6582 116.013 94.6831 115.988C94.7079 115.963 94.7327 115.938 94.7576 115.913C94.9564 115.788 95.1675 115.726 95.3912 115.726C95.6148 115.701 95.826 115.701 96.0247 115.726H98.1118C98.6087 115.726 99.1056 115.726 99.6026 115.726C100.099 115.726 100.584 115.713 101.056 115.688C101.205 115.688 101.367 115.688 101.541 115.688C101.714 115.663 101.888 115.676 102.062 115.726C102.36 115.776 102.597 115.95 102.77 116.25C102.82 116.35 102.845 116.437 102.845 116.512C102.919 116.787 102.944 117.086 102.919 117.411C102.895 117.71 102.882 117.985 102.882 118.234V128.869L102.994 128.682C102.994 128.657 103.006 128.632 103.031 128.607C103.106 128.482 103.18 128.357 103.255 128.232C103.329 128.107 103.404 127.983 103.479 127.858L104.597 126.06C104.795 125.661 105.007 125.287 105.23 124.937C105.454 124.588 105.69 124.226 105.938 123.851C106.013 123.651 106.174 123.414 106.423 123.14C106.472 123.115 106.51 123.09 106.535 123.065C106.559 123.04 106.584 123.015 106.609 122.99C106.709 122.94 106.783 122.915 106.833 122.915C106.882 122.89 106.932 122.878 106.982 122.878C107.032 122.853 107.081 122.84 107.131 122.84C107.404 122.79 107.677 122.778 107.951 122.803C108.249 122.828 108.522 122.84 108.771 122.84H113.429C113.628 122.84 113.852 122.828 114.1 122.803C114.349 122.778 114.585 122.79 114.808 122.84C114.883 122.84 114.97 122.865 115.069 122.915C115.119 122.915 115.206 122.952 115.33 123.027L115.367 123.065C115.516 123.215 115.603 123.352 115.628 123.477C115.703 123.676 115.69 123.889 115.591 124.113C115.516 124.288 115.405 124.475 115.256 124.675C115.131 124.85 115.007 125.012 114.883 125.162L114.734 125.386L113.168 127.596C113.168 127.646 113.144 127.695 113.094 127.745C112.895 128.095 112.684 128.444 112.46 128.794C112.262 129.118 112.038 129.418 111.79 129.693C111.616 129.892 111.442 130.117 111.268 130.367C111.119 130.591 110.957 130.816 110.783 131.041L110.634 131.228C110.634 131.253 110.622 131.265 110.597 131.265C110.597 131.265 110.597 131.278 110.597 131.303L110.448 131.715L110.671 132.052L111.566 133.437C111.69 133.662 111.827 133.861 111.976 134.036C112.274 134.361 112.547 134.748 112.796 135.197C112.845 135.222 112.883 135.259 112.908 135.309C112.932 135.359 112.957 135.409 112.982 135.459L113.318 136.058C113.367 136.158 113.417 136.258 113.467 136.358C113.516 136.433 113.566 136.52 113.616 136.62L114.957 138.679C115.007 138.754 115.044 138.817 115.069 138.866C115.119 138.891 115.169 138.954 115.218 139.054C115.268 139.129 115.318 139.203 115.367 139.278C115.417 139.353 115.467 139.428 115.516 139.503C115.641 139.678 115.752 139.852 115.852 140.027C115.951 140.177 116.051 140.327 116.15 140.477C116.15 140.502 116.15 140.514 116.15 140.514C116.175 140.514 116.187 140.527 116.187 140.551C116.212 140.576 116.237 140.614 116.262 140.664C116.287 140.714 116.311 140.764 116.336 140.814C116.436 140.913 116.51 141.051 116.56 141.225C116.585 141.4 116.56 141.575 116.485 141.75Z" fill="#BC0909"/>
<path d="M59.5955 13.1275H91.8953L103.697 16.2478L111.151 19.9923L116.12 23.7368V24.9849L117.984 25.609L123.574 33.722L126.059 41.835L126.68 44.9554V61.1814L124.816 71.7907L122.332 79.2796L119.226 85.5204L117.362 88.0167H116.12L115.499 89.8889L109.287 93.6334L106.803 94.2574H98.7279L93.1376 92.3852L94.3799 103.619V107.363L91.2742 107.987L90.653 107.363L88.7896 109.235H62.7013L57.1109 107.363L57.7321 97.3778L58.3532 92.3852L52.7629 94.2574H44.6879L38.4765 91.7611L33.5073 87.3926L29.7804 81.1518L26.6746 72.4148L24.8112 61.8055V44.3313L27.2958 34.9701L31.0227 28.7294L35.9919 23.1127L44.6879 17.496L51.5206 14.9997L59.5955 13.1275ZM40.3399 68.0462L37.8553 70.5425V75.5351L39.7188 79.2796L42.8245 82.4L45.3091 84.2722L50.2783 85.5204L55.8686 84.8963L63.9436 81.1518L67.6705 76.7833V74.287L50.2783 69.9184L44.6879 68.0462H40.3399ZM106.803 68.0462L91.8953 72.4148L83.8204 74.287L84.4415 78.0314L88.1684 81.7759L95.6222 84.8963L101.213 85.5204L106.803 83.6481L109.909 81.7759L113.014 77.4074L113.636 75.5351V70.5425L111.151 68.0462H106.803ZM75.1243 83.0241L70.7762 92.3852V94.8815L72.6397 95.5056L76.9877 94.8815L79.4723 95.5056L80.7146 94.8815L80.0935 91.1371L75.7454 83.0241H75.1243Z" fill="#FEFEFE"/>
<path d="M28.7841 27.8057C28.8131 28.0387 28.8275 28.2863 28.8275 28.5484C28.8565 28.8105 28.8565 29.0581 28.8275 29.291C28.8275 29.3784 28.8131 29.4658 28.7841 29.5532C28.7841 29.6405 28.7696 29.7279 28.7406 29.8153C28.7116 29.8444 28.6971 29.8735 28.6971 29.9026C28.6971 29.9318 28.6826 29.9609 28.6536 29.99C28.6246 30.0191 28.6101 30.0483 28.6101 30.0774C28.4942 30.2521 28.3348 30.3832 28.1319 30.4706C28.0739 30.587 28.0159 30.7181 27.9579 30.8637C27.9 31.0093 27.842 31.1404 27.784 31.2569C27.726 31.4316 27.6826 31.5336 27.6536 31.5627C27.6536 31.5918 27.6246 31.5773 27.5666 31.519C27.5376 32.2471 27.5231 33.0917 27.5231 34.0528C27.5231 35.043 27.4941 35.8293 27.4362 36.4118C27.4362 36.7904 27.4797 37.2272 27.5666 37.7223C27.6826 38.2174 27.5811 38.5815 27.2623 38.8145C27.0883 38.9601 26.9869 38.8873 26.9579 38.596C26.9579 38.3339 26.9869 37.999 27.0449 37.5913C27.1028 37.2127 27.1173 36.9069 27.0883 36.6739C27.0593 35.8875 27.0449 34.9556 27.0449 33.878C27.0449 32.8004 26.9869 31.8394 26.8709 30.9948C26.8419 31.1986 26.8274 31.3879 26.8274 31.5627C26.8274 31.7374 26.7985 31.9122 26.7405 32.0869C26.7405 32.0578 26.6825 32.0432 26.5666 32.0432C26.5376 32.0141 26.4651 31.9704 26.3492 31.9122C26.2622 31.8539 26.2187 31.8102 26.2187 31.7811C26.1897 31.6937 26.1607 31.6064 26.1318 31.519C26.1318 31.4316 26.1318 31.3443 26.1318 31.2569C26.0448 31.4025 25.9433 31.5336 25.8274 31.6501C25.7404 31.7666 25.668 31.8539 25.61 31.9122C25.552 31.9704 25.4651 32.0287 25.3491 32.0869C25.3201 32.1452 25.2911 32.218 25.2621 32.3053C25.2621 32.3927 25.2332 32.4655 25.1752 32.5238C25.1462 32.6403 25.0882 32.7568 25.0013 32.8732C24.9433 33.0189 24.8853 33.1354 24.8273 33.2227C24.7984 33.2519 24.7694 33.3101 24.7404 33.3975C24.7114 33.514 24.6824 33.5577 24.6534 33.5285C24.5954 33.3247 24.5665 33.1208 24.5665 32.9169C24.5665 32.7422 24.5375 32.5675 24.4795 32.3927C24.4795 32.3345 24.4505 32.3053 24.3925 32.3053C24.3346 32.3053 24.3056 32.3199 24.3056 32.349C24.2476 32.5529 24.2186 32.7568 24.2186 32.9606C24.2186 33.1645 24.1896 33.3538 24.1317 33.5285C24.1027 33.5868 24.0737 33.5577 24.0447 33.4412C24.0157 33.3247 23.9722 33.2519 23.9143 33.2227C23.8563 33.048 23.7983 32.9024 23.7403 32.7859C23.7113 32.6694 23.6534 32.5238 23.5664 32.349C23.5084 32.2034 23.4505 32.0723 23.3925 31.9559C23.3635 31.8685 23.32 31.7957 23.262 31.7374C23.2331 31.6792 23.2331 31.6792 23.262 31.7374C23.262 31.7374 23.2041 31.6646 23.0881 31.519C22.9722 31.3734 22.8707 31.2569 22.7838 31.1695V31.1258C22.7548 31.1258 22.7403 31.1404 22.7403 31.1695C22.6823 31.519 22.6533 31.8685 22.6533 32.218C22.6533 32.5966 22.6243 32.9606 22.5664 33.3101C22.5664 33.3101 22.4504 33.3101 22.2185 33.3101C22.1026 33.3101 22.0446 33.3101 22.0446 33.3101C21.9576 32.815 21.9286 32.4655 21.9576 32.2617C22.0156 32.0869 21.9576 31.752 21.7837 31.2569C21.4649 31.4899 21.3199 31.8394 21.3489 32.3053C21.3779 32.7713 21.3634 33.1936 21.3054 33.5722C21.2764 33.7178 21.2475 33.9363 21.2185 34.2275C21.2185 34.5187 21.1895 34.5915 21.1315 34.4459C21.0445 34.0382 21.0011 33.6305 21.0011 33.2227C21.0301 32.815 21.0156 32.4073 20.9576 31.9995C20.9576 32.0287 20.8996 32.0432 20.7837 32.0432L20.5228 31.9122C20.5228 31.9413 20.5083 31.9559 20.4793 31.9559C20.4793 31.985 20.4793 32.0141 20.4793 32.0432C20.4793 32.0724 20.4358 32.0141 20.3489 31.8685C20.2619 31.752 20.2039 31.6937 20.1749 31.6937L20.1315 31.6501L19.7836 31.6064C19.7546 31.6064 19.7111 31.5773 19.6532 31.519C19.6242 31.4899 19.6097 31.4899 19.6097 31.519C19.5517 31.985 19.5227 32.4364 19.5227 32.8732C19.5227 33.3101 19.4792 33.747 19.3923 34.1838C19.3923 34.3003 19.3633 34.2421 19.3053 34.0091C19.2763 33.8052 19.2474 33.645 19.2184 33.5285C19.1894 33.1208 19.1749 32.6985 19.1749 32.2617C19.2039 31.8539 19.1604 31.4608 19.0444 31.0821C19.0155 30.9365 19.0155 31.0385 19.0444 31.3879C19.0734 31.7374 19.0155 31.985 18.8705 32.1306C18.8125 32.218 18.7836 32.1597 18.7836 31.9559C18.7836 31.752 18.7546 31.5918 18.6966 31.4753L18.5662 30.8637C18.5372 30.7764 18.5082 30.689 18.4792 30.6016C18.4792 30.5434 18.4502 30.4851 18.3922 30.4269C18.2763 30.3104 18.1893 30.2084 18.1314 30.1211C18.0444 30.0046 17.9864 29.8881 17.9574 29.7716C17.9574 29.7425 17.9429 29.7133 17.914 29.6842C17.914 29.6551 17.914 29.626 17.914 29.5968C17.885 29.1891 17.8705 28.7668 17.8705 28.33C17.8995 27.8931 17.914 27.4854 17.914 27.1068V20.5103C17.914 19.491 17.914 18.9522 17.914 18.8939C17.914 18.8357 17.914 18.9376 17.914 19.1997C17.914 19.4036 17.8995 19.622 17.8705 19.855C17.8415 20.0589 17.798 20.1026 17.74 19.9861C17.711 20.0152 17.6676 20.0589 17.6096 20.1171C17.5806 20.1462 17.5226 20.2336 17.4357 20.3792C17.3487 20.4957 17.2473 20.6122 17.1313 20.7287C17.0443 20.8161 16.9574 20.9326 16.8704 21.0782L15.1747 23.4809C15.0877 23.5683 14.9863 23.6848 14.8703 23.8304C14.7834 23.9469 14.6674 24.0634 14.5225 24.1799C14.4065 24.442 14.3196 24.8206 14.2616 25.3157C14.2326 25.7817 14.2036 26.102 14.1746 26.2768C14.1456 26.3933 14.1312 26.5534 14.1312 26.7573C14.1601 26.932 14.1022 27.0485 13.9572 27.1068C13.8413 27.1359 13.7833 27.0485 13.7833 26.8447C13.8123 26.6408 13.8123 26.4806 13.7833 26.3641C13.7543 25.9855 13.7398 25.6215 13.7398 25.272C13.7398 24.8934 13.7108 24.5148 13.6529 24.1362C13.5659 24.0779 13.4789 23.9906 13.392 23.8741C13.392 23.8449 13.3775 23.8304 13.3485 23.8304L13.0876 23.3935C12.8847 23.044 12.6963 22.68 12.5224 22.3014C12.3774 21.9228 12.189 21.5442 11.9571 21.1656C11.9281 21.1364 11.8847 21.0636 11.8267 20.9471C11.6238 20.685 11.3919 20.452 11.131 20.2482L11.044 20.1608L10.9136 19.9861C10.8846 19.9861 10.8701 19.9861 10.8701 19.9861C10.8701 19.9861 10.8701 20.1026 10.8701 20.3355V27.0631C10.8701 27.4126 10.8701 27.7621 10.8701 28.1115C10.8991 28.461 10.9136 28.8105 10.9136 29.16C10.9136 29.2765 10.9136 29.393 10.9136 29.5095C10.9136 29.5968 10.8846 29.6988 10.8266 29.8153C10.7687 29.9318 10.7397 29.99 10.7397 29.99C10.7107 30.0483 10.6672 30.1065 10.6092 30.1648C10.4353 30.3395 10.3049 30.4414 10.2179 30.4706C10.2179 30.4706 10.1889 30.4997 10.1309 30.5579C10.044 30.6744 10.0005 30.7618 10.0005 30.82C10.0005 30.82 10.015 30.8055 10.044 30.7764C10.073 30.7472 10.0875 30.7472 10.0875 30.7764C10.1165 30.7764 10.1165 30.7909 10.0875 30.82C10.0875 30.8492 10.073 30.8637 10.044 30.8637C10.044 30.8637 10.015 30.8928 9.95703 30.9511C9.95703 30.9802 9.92804 31.0239 9.87007 31.0821C9.75412 31.1986 9.59469 31.3297 9.39178 31.4753C9.21786 31.6209 9.02944 31.6792 8.82653 31.6501C8.53666 31.5918 8.39173 31.5627 8.39173 31.5627C8.42072 31.5627 8.49319 31.5627 8.60913 31.5627C8.72508 31.5918 8.81204 31.5918 8.87001 31.5627C8.95698 31.5627 8.88451 31.5481 8.65261 31.519C8.62363 31.519 8.59464 31.5044 8.56565 31.4753C8.53666 31.4753 8.49318 31.4753 8.43521 31.4753C8.40622 31.4753 8.36274 31.5044 8.30477 31.5627C8.24679 31.6501 8.18882 31.6792 8.13085 31.6501L7.783 31.3006C7.783 31.1841 7.75402 31.155 7.69604 31.2132C7.58009 31.2715 7.5656 31.4316 7.65256 31.6937C7.73952 31.9559 7.71054 32.0724 7.5656 32.0432C7.42067 31.985 7.39168 31.7957 7.47864 31.4753C7.59459 31.1841 7.5656 31.053 7.39168 31.0821C7.30472 31.0821 7.27573 31.1695 7.30472 31.3443C7.3337 31.5481 7.36269 31.7229 7.39168 31.8685C7.42067 32.0432 7.37719 32.116 7.26124 32.0869C7.1163 32.0287 7.04384 31.8976 7.04384 31.6937C7.07282 31.4899 7.08732 31.3151 7.08732 31.1695C7.02934 31.1695 6.97137 31.1986 6.91339 31.2569C6.73947 31.3734 6.58004 31.4899 6.43511 31.6064C6.31916 31.752 6.18872 31.8976 6.04378 32.0432L5.52202 32.6985C5.49303 32.7276 5.46405 32.7859 5.43506 32.8732C5.40607 32.9897 5.37708 33.0334 5.3481 33.0043C5.29012 32.7131 5.26114 32.4218 5.26114 32.1306C5.26114 31.8394 5.23215 31.5481 5.17418 31.2569C5.14519 31.286 5.08721 31.3006 5.00025 31.3006C4.94228 31.3297 4.88431 31.3734 4.82633 31.4316C4.79734 31.519 4.76836 31.6209 4.73937 31.7374C4.73937 31.8539 4.71038 31.9559 4.65241 32.0432C4.62342 32.0724 4.59444 32.0578 4.56545 31.9995C4.53646 31.9413 4.50747 31.8976 4.47849 31.8685C4.42051 31.8102 4.34805 31.7083 4.26109 31.5627C4.17412 31.4171 4.07267 31.3588 3.95672 31.3879C3.84077 31.4171 3.75381 31.4608 3.69584 31.519C3.66685 31.6064 3.57989 31.6501 3.43496 31.6501C3.23205 31.6501 3.05813 31.5772 2.91319 31.4316C2.79724 31.286 2.65231 31.1695 2.47839 31.0821C2.27548 31.053 2.232 31.155 2.34795 31.3879C2.46389 31.6209 2.42041 32.0287 2.2175 32.6111C2.18852 32.6403 2.15953 32.6111 2.13054 32.5238C2.10156 32.4364 2.07257 32.3782 2.04358 32.349C2.0146 32.2908 1.98561 32.2325 1.95662 32.1743C1.92763 32.1452 1.89865 32.1015 1.86966 32.0432C1.75371 31.8685 1.65226 31.6792 1.5653 31.4753C1.47834 31.2715 1.39137 31.0676 1.30441 30.8637L0.782649 30.5579C0.782649 30.5579 0.724674 30.5288 0.608727 30.4706C0.347844 30.3249 0.188415 30.1648 0.130441 29.99C0.0724674 29.8444 0.0289869 29.7279 0 29.6405C0 29.524 0 29.4221 0 29.3347V1.20135C0 0.880989 0.101454 0.618877 0.304363 0.415011C0.33335 0.356765 0.362337 0.327641 0.391324 0.327641C0.420311 0.298518 0.449298 0.269394 0.478285 0.240269C0.507272 0.240269 0.521765 0.240269 0.521765 0.240269C0.521765 0.211146 0.536259 0.196584 0.565246 0.196584C0.710181 0.109213 0.855116 0.0655272 1.00005 0.0655272C1.14499 0.036404 1.28992 0.0218424 1.43486 0.0218424H8.65261C8.79755 0.0218424 8.95697 0.0218424 9.1309 0.0218424C9.33381 -0.0072808 9.52222 -0.0072808 9.69614 0.0218424C10.3628 0.0218424 10.7397 0.327641 10.8266 0.939237C10.8846 1.20135 10.8991 1.47802 10.8701 1.76926C10.8701 2.06049 10.8701 2.33717 10.8701 2.59928V9.85105L11.044 10.3753H17.914V2.59928C17.914 2.33717 17.8995 2.06049 17.8705 1.76926C17.8415 1.4489 17.8705 1.1431 17.9574 0.851864C18.1024 0.298516 18.4792 0.0218424 19.0879 0.0218424C19.2618 -0.0072808 19.4358 -0.0072808 19.6097 0.0218424C19.8126 0.0218424 19.9865 0.0218424 20.1315 0.0218424H27.6101C27.784 0.0218424 27.9145 0.0509665 28.0014 0.109215C28.0884 0.138338 28.1898 0.182023 28.3058 0.240269C28.5667 0.415012 28.7261 0.677124 28.7841 1.02661C28.842 1.28872 28.8565 1.56539 28.8275 1.85663C28.7986 2.14787 28.7841 2.40998 28.7841 2.64297V27.8057ZM7.82648 31.8685C7.73952 31.8102 7.72503 31.6646 7.783 31.4316C7.84098 31.5481 7.92794 31.6937 8.04389 31.8685C8.18882 32.0724 8.26129 32.1888 8.26129 32.218C8.26129 32.2762 8.11635 32.1597 7.82648 31.8685Z" fill="#BC0909"/>
<path d="M57.8056 18.5444C57.8346 19.0104 57.8346 19.4764 57.8056 19.9424C57.8056 20.4084 57.7911 20.8598 57.7621 21.2966C57.7041 22.1995 57.5737 23.044 57.3708 23.8304C57.1679 24.5876 56.878 25.2866 56.5012 25.9273C56.3852 26.1311 56.2693 26.335 56.1533 26.5389C56.0374 26.7427 55.9069 26.9466 55.762 27.1505C55.6171 27.3252 55.4576 27.4854 55.2837 27.631C55.2837 27.6601 55.2692 27.6893 55.2402 27.7184C55.1243 27.8931 54.9793 28.0387 54.8054 28.1552C54.7764 28.1844 54.7475 28.2135 54.7185 28.2426C54.6895 28.2717 54.646 28.3154 54.588 28.3737C54.559 28.4028 54.53 28.4319 54.5011 28.461C54.4721 28.4902 54.4431 28.5193 54.4141 28.5484L54.1532 29.1163C54.1532 29.2328 54.1532 29.3493 54.1532 29.4658C54.1532 29.5532 54.1387 29.6551 54.1097 29.7716C54.0807 29.9755 54.0807 30.2521 54.1097 30.6016C54.1387 30.922 54.0808 31.0239 53.9358 30.9074C53.8489 30.82 53.7909 30.7181 53.7619 30.6016C53.7619 30.456 53.7619 30.3249 53.7619 30.2084C53.7619 30.2667 53.7329 30.3249 53.6749 30.3832C53.646 30.4706 53.588 30.5579 53.501 30.6453C53.443 30.7618 53.3561 30.8346 53.2401 30.8637C53.0372 30.9511 52.8633 30.8783 52.7184 30.6453C52.6024 30.4414 52.5155 30.2813 52.4575 30.1648C52.4575 30.1356 52.443 30.1065 52.414 30.0774C52.2111 30.456 52.1241 30.8783 52.1531 31.3443C52.1821 31.8394 52.1676 32.3199 52.1096 32.7859C52.1096 32.9024 52.0951 33.0334 52.0662 33.179C52.0372 33.3538 52.0082 33.514 51.9792 33.6596C51.9502 33.8343 51.8777 33.9945 51.7618 34.1401C51.7618 34.2275 51.7038 34.2712 51.5879 34.2712C51.4719 34.2129 51.414 34.1401 51.414 34.0528C51.356 33.5577 51.327 33.048 51.327 32.5238C51.327 31.9995 51.298 31.4899 51.24 30.9948C51.24 30.9948 51.2255 30.9802 51.1965 30.9511C51.1965 30.9511 51.1821 30.9511 51.1531 30.9511C51.0661 30.9802 50.9791 31.0239 50.8922 31.0821C50.8052 31.1404 50.7328 31.1986 50.6748 31.2569C50.4719 31.4608 50.298 31.7083 50.153 31.9995C50.0661 32.1743 49.9791 32.349 49.8921 32.5238C49.8342 32.6985 49.7617 32.8587 49.6747 33.0043C49.6457 33.0334 49.6023 33.0917 49.5443 33.179C49.5153 33.2955 49.5008 33.3392 49.5008 33.3101C49.4428 32.9897 49.4138 32.6694 49.4138 32.349C49.4138 32.0287 49.3849 31.7229 49.3269 31.4316C49.3849 31.4316 49.2979 31.4171 49.066 31.3879C48.8631 31.3879 48.7761 31.4025 48.8051 31.4316C48.7471 31.8976 48.7182 32.3636 48.7182 32.8296C48.7182 33.2955 48.6892 33.7615 48.6312 34.2275C48.6312 34.2566 48.5732 34.3149 48.4573 34.4022C48.3703 34.4896 48.3123 34.5479 48.2834 34.577C48.2544 34.6061 48.2109 34.6207 48.1529 34.6207C48.1239 34.6498 48.1094 34.6498 48.1094 34.6207C48.0515 34.1256 48.0225 33.6159 48.0225 33.0917C48.0225 32.5966 47.979 32.1015 47.892 31.6064C47.8051 31.6355 47.7326 31.6792 47.6746 31.7374C47.6167 31.7957 47.5877 31.8248 47.5877 31.8248C47.5587 31.8539 47.5297 31.8976 47.5007 31.9559C47.5007 32.0432 47.4717 32.116 47.4137 32.1743C47.3848 32.1743 47.3123 32.116 47.1963 31.9995C47.1674 31.9413 47.1384 31.883 47.1094 31.8248C47.1094 31.7666 47.0804 31.7229 47.0224 31.6937C47.0224 31.6646 47.0079 31.6501 46.9789 31.6501C46.95 31.6209 46.9355 31.6064 46.9355 31.6064C46.9355 31.6355 46.921 31.6355 46.892 31.6064H46.6311C46.6311 31.7229 46.6311 31.8394 46.6311 31.9559C46.6311 32.0723 46.6021 32.2034 46.5441 32.349C46.5441 32.349 46.4282 32.218 46.1963 31.9559C46.0514 31.8102 45.9789 31.7374 45.9789 31.7374C45.9789 31.7666 45.9354 31.7666 45.8484 31.7374C45.7325 31.7374 45.6745 31.7229 45.6745 31.6937C45.6455 32.1015 45.6166 32.4946 45.5876 32.8732C45.5876 33.281 45.5586 33.6887 45.5006 34.0964C45.5006 34.1547 45.4716 34.1256 45.4136 34.0091C45.3847 33.8926 45.3557 33.8052 45.3267 33.747C45.2977 33.6596 45.2687 33.5722 45.2397 33.4848C45.2107 33.4266 45.1818 33.3538 45.1528 33.2664C45.0658 32.8878 44.9933 32.5092 44.9354 32.1306C44.9064 31.7811 44.8629 31.4171 44.8049 31.0385H44.544C40.6018 30.9511 37.6306 30.0337 35.6305 28.2863L35.3697 28.0242C33.6594 26.3933 32.7174 24.1507 32.5434 21.2966C32.4565 19.9278 32.4565 18.559 32.5434 17.1902C32.7753 13.9575 33.9928 11.5257 36.1958 9.89474C38.4278 8.26382 41.4714 7.44836 45.3267 7.44836H45.718C46.1238 7.44836 46.5296 7.46292 46.9355 7.49204C47.3413 7.52117 47.7326 7.56485 48.1094 7.6231C48.1674 7.6231 48.2109 7.63766 48.2399 7.66678C51.2255 8.10364 53.617 9.23946 55.4142 11.0742C55.4721 11.1325 55.5446 11.2344 55.6316 11.38C55.7475 11.4965 55.82 11.5839 55.849 11.6422C56.6606 12.7197 57.2113 13.9284 57.5012 15.268C57.5012 15.2972 57.5012 15.3263 57.5012 15.3554C57.5302 15.3845 57.5447 15.4137 57.5447 15.4428C57.6606 15.9379 57.7331 16.4621 57.7621 17.0155C57.7911 17.5397 57.8056 18.0493 57.8056 18.5444ZM43.9788 23.743C44.0658 23.8013 44.1672 23.8595 44.2832 23.9177C44.602 24.0051 44.8484 24.0488 45.0223 24.0488C45.1962 24.0488 45.3702 24.0342 45.5441 24.0051H45.805C45.9209 23.9469 46.0224 23.9032 46.1093 23.8741C46.2253 23.8158 46.3267 23.7576 46.4137 23.6993C46.6456 23.4663 46.7905 23.1897 46.8485 22.8693C46.9355 22.5489 46.9934 22.2431 47.0224 21.9519C47.0514 21.7772 47.0659 21.5879 47.0659 21.384C47.0949 21.1801 47.1094 20.9763 47.1094 20.7724C47.1384 20.3647 47.1529 19.8841 47.1529 19.3308C47.1529 18.7774 47.1384 18.2823 47.1094 17.8455C47.1094 17.6999 47.1094 17.5542 47.1094 17.4086C47.1094 17.263 47.0949 17.132 47.0659 17.0155C47.0659 16.899 47.0514 16.797 47.0224 16.7097C47.0224 16.5932 47.0224 16.4767 47.0224 16.3602C46.9355 15.603 46.7326 15.0933 46.4137 14.8312C46.2977 14.7147 46.2108 14.6564 46.1528 14.6564C46.1238 14.6273 46.0803 14.6128 46.0224 14.6128C45.9934 14.6128 45.9644 14.6128 45.9354 14.6128C45.9064 14.5836 45.8774 14.5836 45.8484 14.6128C45.8195 14.6419 45.7905 14.7147 45.7615 14.8312C45.7615 14.9186 45.7325 14.9914 45.6745 15.0496C45.6455 15.1079 45.5586 15.1515 45.4136 15.1807C45.2977 15.1807 45.2107 15.1661 45.1528 15.137C44.9788 15.1079 44.8194 15.0205 44.6745 14.8749H44.4136C44.3846 14.8457 44.3556 14.8166 44.3266 14.7875C44.2976 14.7293 44.2542 14.6856 44.1962 14.6564C44.1092 14.6564 44.0223 14.7001 43.9353 14.7875C43.7324 14.9622 43.5875 15.2098 43.5005 15.5302C43.4135 15.8214 43.3411 16.1709 43.2831 16.5786C43.2541 16.666 43.2396 16.7825 43.2396 16.9281C43.2396 17.0155 43.2251 17.1174 43.1961 17.2339C43.1961 17.3213 43.1961 17.4232 43.1961 17.5397C43.1672 17.7727 43.1527 18.0493 43.1527 18.3697C43.1527 18.6901 43.1527 19.0104 43.1527 19.3308C43.1527 19.5346 43.1527 19.7385 43.1527 19.9424C43.1817 20.1171 43.1961 20.3064 43.1961 20.5103C43.1961 20.7142 43.1961 20.918 43.1961 21.1219C43.1961 21.3257 43.2106 21.5005 43.2396 21.6461C43.2976 22.1703 43.3556 22.5781 43.4135 22.8693C43.5005 23.1605 43.6889 23.4518 43.9788 23.743Z" fill="#BC0909"/>
<path d="M81.0503 14.4817C81.0503 14.6564 81.0503 14.8312 81.0503 15.0059C81.0793 15.1807 81.0938 15.37 81.0938 15.5738C81.0938 15.6903 81.0938 15.8068 81.0938 15.9233C81.0938 16.0398 81.0648 16.1563 81.0068 16.2728C80.9199 16.5058 80.7749 16.6951 80.572 16.8407C80.572 16.8407 80.5575 16.8407 80.5285 16.8407C80.5285 16.8407 80.5285 16.8553 80.5285 16.8844C80.4996 16.8844 80.4706 16.899 80.4416 16.9281C80.4416 16.9281 80.4271 16.9281 80.3981 16.9281C80.2532 17.132 80.1227 17.3358 80.0068 17.5397C79.8908 17.7435 79.7604 17.9328 79.6154 18.1076C79.5865 18.1367 79.5575 18.1804 79.5285 18.2386C79.4995 18.2678 79.456 18.2969 79.398 18.326C79.3691 18.326 79.3401 18.3406 79.3111 18.3697C79.3111 18.3697 79.2966 18.3843 79.2676 18.4134C79.2676 18.4134 79.2531 18.4134 79.2241 18.4134C79.1951 18.4425 79.1517 18.6464 79.0937 19.025C79.0357 19.4036 78.9632 19.6511 78.8763 19.7676C78.8473 19.7968 78.7893 19.7822 78.7024 19.7239C78.6154 19.5492 78.5719 19.3599 78.5719 19.156C78.5429 19.0104 78.5139 18.8502 78.485 18.6755C78.485 18.5008 78.456 18.326 78.398 18.1513L78.1371 17.8892C78.0791 17.8309 77.9777 17.729 77.8327 17.5834C77.7168 17.4377 77.5864 17.3067 77.4414 17.1902L77.3979 17.1465C77.369 17.1465 77.3545 17.1611 77.3545 17.1902C77.3545 17.1902 77.34 17.1902 77.311 17.1902C77.253 17.2484 77.1805 17.3358 77.0936 17.4523C77.0356 17.5397 76.9486 17.5979 76.8327 17.6271C76.6878 17.6562 76.5718 17.5979 76.4849 17.4523C76.4559 17.4814 76.3834 17.496 76.2675 17.496C76.1515 17.496 76.0645 17.4814 76.0066 17.4523L75.7892 17.9765C75.7022 18.1804 75.6008 18.3551 75.4848 18.5008C75.3978 18.6464 75.2819 18.792 75.137 18.9376C75.05 19.025 74.963 19.1269 74.8761 19.2434C74.7891 19.3308 74.7022 19.4036 74.6152 19.4618C74.4992 19.5783 74.4413 19.6075 74.4413 19.5492C74.3833 19.1997 74.3543 18.9231 74.3543 18.7192C74.3833 18.4862 74.3543 18.1804 74.2673 17.8018C74.2094 17.8309 74.1514 17.8746 74.0934 17.9328C73.9775 17.9911 73.9195 18.0348 73.9195 18.0639C73.8615 18.2678 73.8181 18.4862 73.7891 18.7192C73.7891 18.9522 73.7601 19.1706 73.7021 19.3745C73.6731 19.4036 73.6296 19.4036 73.5717 19.3745C73.5427 19.3453 73.5137 19.3162 73.4847 19.2871C73.4557 19.0541 73.4267 18.8357 73.3977 18.6318C73.3977 18.4279 73.3688 18.2241 73.3108 18.0202C73.3108 17.962 73.2818 17.9328 73.2238 17.9328C73.1948 17.9037 73.1658 17.8746 73.1369 17.8455C73.1369 17.8455 73.1224 17.8309 73.0934 17.8018C73.0644 17.7727 73.0209 17.7435 72.9629 17.7144C72.9629 17.86 72.9339 17.962 72.876 18.0202C72.876 18.0202 72.8035 17.9474 72.6586 17.8018H72.5716C72.5426 17.8018 72.5136 17.7872 72.4846 17.7581C72.4846 17.6999 72.4702 17.6562 72.4412 17.6271C72.4122 17.6562 72.3832 17.6853 72.3542 17.7144C72.3252 17.7144 72.2962 17.729 72.2673 17.7581C72.2093 17.8455 72.1513 17.9328 72.0933 18.0202C72.0354 18.1076 71.9774 18.195 71.9194 18.2823C71.8904 18.3115 71.8759 18.3551 71.8759 18.4134C71.8759 18.4425 71.8614 18.4862 71.8324 18.5444C71.7455 18.8066 71.6875 19.0832 71.6585 19.3745C71.6585 19.6657 71.6585 19.9569 71.6585 20.2482V28.8979C71.6585 29.0435 71.6585 29.2037 71.6585 29.3784C71.6875 29.524 71.673 29.6697 71.615 29.8153C71.615 29.8444 71.6005 29.8735 71.5716 29.9026C71.5716 29.9026 71.5716 29.9172 71.5716 29.9463C71.5716 29.9463 71.5426 29.9755 71.4846 30.0337C71.3686 30.2084 71.2672 30.3249 71.1802 30.3832C71.2382 30.3249 71.2092 30.3541 71.0933 30.4706C70.9773 30.5579 70.9049 30.6307 70.8759 30.689C70.8759 30.7181 70.8614 30.7472 70.8324 30.7764C70.8034 30.8346 70.7744 30.9074 70.7454 30.9948C70.7454 31.0821 70.702 31.1113 70.615 31.0821C70.615 31.1113 70.6005 31.1258 70.5715 31.1258C70.5135 31.2423 70.4846 31.3151 70.4846 31.3443C70.4266 31.4025 70.3686 31.4753 70.3106 31.5627C70.2816 31.6501 70.2382 31.7374 70.1802 31.8248C69.9483 32.2325 69.7889 32.4946 69.7019 32.6111C69.6439 32.7568 69.4845 32.9897 69.2236 33.3101C69.1946 33.3392 69.1512 33.3683 69.0932 33.3975C69.0642 33.4557 69.0207 33.514 68.9627 33.5722C68.9337 33.6013 68.8758 33.7178 68.7888 33.9217C68.7019 34.1256 68.6294 34.2421 68.5714 34.2712C68.5424 34.3003 68.4844 34.2421 68.3975 34.0964C68.3685 34.0091 68.354 33.9071 68.354 33.7906C68.354 33.7033 68.325 33.6159 68.267 33.5285L68.0062 33.2227C67.8902 33.1062 67.7888 32.9606 67.7018 32.7859C67.5279 32.5529 67.3829 32.3053 67.267 32.0432C67.151 31.7811 67.0206 31.519 66.8757 31.2569C66.8757 31.2278 66.8612 31.2132 66.8322 31.2132C66.8322 31.2132 66.8322 31.1986 66.8322 31.1695C66.7452 31.0821 66.7018 31.0676 66.7018 31.1258C66.6438 31.3588 66.6148 31.6064 66.6148 31.8685C66.6438 32.1306 66.6148 32.3781 66.5278 32.6111C66.4988 32.6985 66.4698 32.6548 66.4409 32.4801C66.4119 32.3053 66.3829 32.1743 66.3539 32.0869L66.0061 31.0821V31.0385C65.9191 31.1258 65.8611 31.1695 65.8321 31.1695C65.7742 31.1695 65.7162 31.1404 65.6582 31.0821C65.5713 31.286 65.4843 31.4899 65.3973 31.6937C65.3394 31.8976 65.2524 32.116 65.1365 32.349C65.1075 32.3782 65.0785 32.4218 65.0495 32.4801C65.0495 32.5675 65.0205 32.6403 64.9625 32.6985C64.9335 32.7276 64.9046 32.7859 64.8756 32.8732C64.8466 32.9897 64.8176 33.0189 64.7886 32.9606C64.7016 32.4946 64.6871 32.1888 64.7451 32.0432C64.8031 31.9267 64.7161 31.6792 64.4842 31.3006C64.3973 31.3588 64.3248 31.4462 64.2668 31.5627C64.2379 31.7666 64.2089 31.985 64.1799 32.218C64.1799 32.451 64.1509 32.6839 64.0929 32.9169C64.0929 32.9461 64.0494 33.0334 63.9625 33.179C63.9045 33.3538 63.832 33.4557 63.7451 33.4848C63.6001 33.514 63.4842 33.412 63.3972 33.179C63.3103 32.9461 63.2523 32.8004 63.2233 32.7422C63.1074 32.4801 63.0204 32.2034 62.9624 31.9122C62.9334 31.6501 62.861 31.4025 62.745 31.1695C62.687 31.1113 62.6291 31.053 62.5711 30.9948C62.5131 30.9365 62.4552 30.8783 62.3972 30.82C62.3102 30.7618 62.2667 30.7035 62.2667 30.6453C62.2088 30.6162 62.1218 30.6016 62.0059 30.6016C61.9769 30.6016 61.9479 30.6016 61.9189 30.6016C61.9189 30.5725 61.8899 30.5579 61.8319 30.5579C61.6 30.4706 61.4116 30.3249 61.2667 30.1211C61.2087 30.0628 61.1507 29.9463 61.0928 29.7716C61.0348 29.5677 61.0058 29.3347 61.0058 29.0726C61.0348 28.8105 61.0493 28.5775 61.0493 28.3737V12.6469C61.0493 12.2101 61.0493 11.7295 61.0493 11.2053C61.0493 10.652 61.0348 10.0986 61.0058 9.54526C61.0058 9.39964 61.0058 9.25402 61.0058 9.1084C61.0348 8.93366 61.0638 8.78804 61.0928 8.67155C61.1797 8.40944 61.3392 8.20557 61.5711 8.05995C61.716 8.00171 61.8319 7.95802 61.9189 7.9289C62.0059 7.89977 62.1363 7.88521 62.3102 7.88521C62.5131 7.85609 62.716 7.85609 62.9189 7.88521C63.1219 7.88521 63.3103 7.88521 63.4842 7.88521H68.5279C68.7598 7.88521 69.0062 7.87065 69.2671 7.84153C69.528 7.8124 69.7744 7.82696 70.0063 7.88521C70.0932 7.88521 70.1657 7.89977 70.2237 7.9289C70.5135 8.01627 70.702 8.17645 70.7889 8.40944C70.9339 8.6133 71.0063 8.83173 71.0063 9.06472V10.5937L71.2672 10.3316C71.3252 10.3025 71.3687 10.2733 71.3976 10.2442C71.4266 10.2151 71.4411 10.2005 71.4411 10.2005C71.4991 10.1423 71.644 10.0258 71.8759 9.85105C72.1368 9.67631 72.3252 9.55982 72.4412 9.50157C72.6151 9.35595 72.789 9.23946 72.9629 9.15209C73.1658 9.03559 73.3543 8.93366 73.5282 8.84629C73.7601 8.70067 74.0065 8.58418 74.2673 8.49681C74.5572 8.40944 74.8471 8.33663 75.137 8.27838C75.9776 8.01627 76.8617 7.88521 77.7893 7.88521H78.5284C78.6734 7.88521 78.8328 7.88521 79.0067 7.88521C79.1806 7.85609 79.3546 7.84153 79.5285 7.84153C79.7314 7.84153 79.9198 7.85609 80.0937 7.88521C80.2966 7.91433 80.4561 7.98714 80.572 8.10364C80.7459 8.22013 80.8764 8.38031 80.9633 8.58418C81.0213 8.75892 81.0503 8.90454 81.0503 9.02103V9.23946C81.0793 9.44332 81.0793 9.64719 81.0503 9.85105C81.0503 10.0258 81.0503 10.2005 81.0503 10.3753V14.4817Z" fill="#BC0909"/>
<path d="M103.555 14.4817C103.555 14.6564 103.555 14.8312 103.555 15.0059C103.584 15.1807 103.598 15.37 103.598 15.5738C103.598 15.6903 103.598 15.8068 103.598 15.9233C103.598 16.0398 103.569 16.1563 103.511 16.2728C103.424 16.5058 103.279 16.6951 103.077 16.8407C103.077 16.8407 103.062 16.8407 103.033 16.8407C103.033 16.8407 103.033 16.8553 103.033 16.8844C103.004 16.8844 102.975 16.899 102.946 16.9281C102.946 16.9281 102.932 16.9281 102.903 16.9281C102.758 17.132 102.627 17.3358 102.511 17.5397C102.395 17.7435 102.265 17.9328 102.12 18.1076C102.091 18.1367 102.062 18.1804 102.033 18.2386C102.004 18.2678 101.961 18.2969 101.903 18.326C101.874 18.326 101.845 18.3406 101.816 18.3697C101.816 18.3697 101.801 18.3843 101.772 18.4134C101.772 18.4134 101.758 18.4134 101.729 18.4134C101.7 18.4425 101.656 18.6464 101.598 19.025C101.54 19.4036 101.468 19.6511 101.381 19.7676C101.352 19.7968 101.294 19.7822 101.207 19.7239C101.12 19.5492 101.076 19.3599 101.076 19.156C101.047 19.0104 101.018 18.8502 100.989 18.6755C100.989 18.5008 100.961 18.326 100.903 18.1513L100.642 17.8892C100.584 17.8309 100.482 17.729 100.337 17.5834C100.221 17.4377 100.091 17.3067 99.946 17.1902L99.9025 17.1465C99.8735 17.1465 99.859 17.1611 99.859 17.1902C99.859 17.1902 99.8445 17.1902 99.8155 17.1902C99.7575 17.2484 99.6851 17.3358 99.5981 17.4523C99.5401 17.5397 99.4532 17.5979 99.3372 17.6271C99.1923 17.6562 99.0763 17.5979 98.9894 17.4523C98.9604 17.4814 98.8879 17.496 98.772 17.496C98.656 17.496 98.5691 17.4814 98.5111 17.4523L98.2937 17.9765C98.2067 18.1804 98.1053 18.3551 97.9893 18.5008C97.9024 18.6464 97.7864 18.792 97.6415 18.9376C97.5545 19.025 97.4676 19.1269 97.3806 19.2434C97.2936 19.3308 97.2067 19.4036 97.1197 19.4618C97.0038 19.5783 96.9458 19.6075 96.9458 19.5492C96.8878 19.1997 96.8588 18.9231 96.8588 18.7192C96.8878 18.4862 96.8588 18.1804 96.7719 17.8018C96.7139 17.8309 96.6559 17.8746 96.598 17.9328C96.482 17.9911 96.424 18.0348 96.424 18.0639C96.3661 18.2678 96.3226 18.4862 96.2936 18.7192C96.2936 18.9522 96.2646 19.1706 96.2066 19.3745C96.1777 19.4036 96.1342 19.4036 96.0762 19.3745C96.0472 19.3453 96.0182 19.3162 95.9892 19.2871C95.9603 19.0541 95.9313 18.8357 95.9023 18.6318C95.9023 18.4279 95.8733 18.2241 95.8153 18.0202C95.8153 17.962 95.7863 17.9328 95.7283 17.9328C95.6994 17.9037 95.6704 17.8746 95.6414 17.8455C95.6414 17.8455 95.6269 17.8309 95.5979 17.8018C95.5689 17.7727 95.5254 17.7435 95.4675 17.7144C95.4675 17.86 95.4385 17.962 95.3805 18.0202C95.3805 18.0202 95.308 17.9474 95.1631 17.8018H95.0761C95.0472 17.8018 95.0182 17.7872 94.9892 17.7581C94.9892 17.6999 94.9747 17.6562 94.9457 17.6271C94.9167 17.6562 94.8877 17.6853 94.8587 17.7144C94.8298 17.7144 94.8008 17.729 94.7718 17.7581C94.7138 17.8455 94.6558 17.9328 94.5979 18.0202C94.5399 18.1076 94.4819 18.195 94.4239 18.2823C94.395 18.3115 94.3805 18.3551 94.3805 18.4134C94.3805 18.4425 94.366 18.4862 94.337 18.5444C94.25 18.8066 94.192 19.0832 94.1631 19.3745C94.1631 19.6657 94.1631 19.9569 94.1631 20.2482V28.8979C94.1631 29.0435 94.1631 29.2037 94.1631 29.3784C94.192 29.524 94.1776 29.6697 94.1196 29.8153C94.1196 29.8444 94.1051 29.8735 94.0761 29.9026C94.0761 29.9026 94.0761 29.9172 94.0761 29.9463C94.0761 29.9463 94.0471 29.9755 93.9891 30.0337C93.8732 30.2084 93.7717 30.3249 93.6848 30.3832C93.7428 30.3249 93.7138 30.3541 93.5978 30.4706C93.4819 30.5579 93.4094 30.6307 93.3804 30.689C93.3804 30.7181 93.3659 30.7472 93.3369 30.7764C93.3079 30.8346 93.279 30.9074 93.25 30.9948C93.25 31.0821 93.2065 31.1113 93.1195 31.0821C93.1195 31.1113 93.105 31.1258 93.076 31.1258C93.0181 31.2423 92.9891 31.3151 92.9891 31.3443C92.9311 31.4025 92.8731 31.4753 92.8152 31.5627C92.7862 31.6501 92.7427 31.7374 92.6847 31.8248C92.4528 32.2325 92.2934 32.4946 92.2064 32.6111C92.1485 32.7568 91.989 32.9897 91.7282 33.3101C91.6992 33.3392 91.6557 33.3683 91.5977 33.3975C91.5687 33.4557 91.5252 33.514 91.4673 33.5722C91.4383 33.6013 91.3803 33.7178 91.2933 33.9217C91.2064 34.1256 91.1339 34.2421 91.076 34.2712C91.047 34.3003 90.989 34.2421 90.902 34.0964C90.873 34.0091 90.8585 33.9071 90.8585 33.7906C90.8585 33.7033 90.8296 33.6159 90.7716 33.5285L90.5107 33.2227C90.3947 33.1062 90.2933 32.9606 90.2063 32.7859C90.0324 32.5529 89.8875 32.3053 89.7715 32.0432C89.6556 31.7811 89.5251 31.519 89.3802 31.2569C89.3802 31.2278 89.3657 31.2132 89.3367 31.2132C89.3367 31.2132 89.3367 31.1986 89.3367 31.1695C89.2498 31.0821 89.2063 31.0676 89.2063 31.1258C89.1483 31.3588 89.1193 31.6064 89.1193 31.8685C89.1483 32.1306 89.1193 32.3781 89.0324 32.6111C89.0034 32.6985 88.9744 32.6548 88.9454 32.4801C88.9164 32.3053 88.8874 32.1743 88.8584 32.0869L88.5106 31.0821V31.0385C88.4236 31.1258 88.3657 31.1695 88.3367 31.1695C88.2787 31.1695 88.2207 31.1404 88.1628 31.0821C88.0758 31.286 87.9888 31.4899 87.9019 31.6937C87.8439 31.8976 87.7569 32.116 87.641 32.349C87.612 32.3782 87.583 32.4218 87.554 32.4801C87.554 32.5675 87.525 32.6403 87.4671 32.6985C87.4381 32.7276 87.4091 32.7859 87.3801 32.8732C87.3511 32.9897 87.3221 33.0189 87.2932 32.9606C87.2062 32.4946 87.1917 32.1888 87.2497 32.0432C87.3076 31.9267 87.2207 31.6792 86.9888 31.3006C86.9018 31.3588 86.8294 31.4462 86.7714 31.5627C86.7424 31.7666 86.7134 31.985 86.6844 32.218C86.6844 32.451 86.6554 32.6839 86.5975 32.9169C86.5975 32.9461 86.554 33.0334 86.467 33.179C86.409 33.3538 86.3366 33.4557 86.2496 33.4848C86.1047 33.514 85.9887 33.412 85.9018 33.179C85.8148 32.9461 85.7568 32.8004 85.7279 32.7422C85.6119 32.4801 85.5249 32.2034 85.467 31.9122C85.438 31.6501 85.3655 31.4025 85.2496 31.1695C85.1916 31.1113 85.1336 31.053 85.0756 30.9948C85.0177 30.9365 84.9597 30.8783 84.9017 30.82C84.8148 30.7618 84.7713 30.7035 84.7713 30.6453C84.7133 30.6162 84.6263 30.6016 84.5104 30.6016C84.4814 30.6016 84.4524 30.6016 84.4234 30.6016C84.4234 30.5725 84.3944 30.5579 84.3365 30.5579C84.1046 30.4706 83.9162 30.3249 83.7712 30.1211C83.7132 30.0628 83.6553 29.9463 83.5973 29.7716C83.5393 29.5677 83.5103 29.3347 83.5103 29.0726C83.5393 28.8105 83.5538 28.5775 83.5538 28.3737V12.6469C83.5538 12.2101 83.5538 11.7295 83.5538 11.2053C83.5538 10.652 83.5393 10.0986 83.5103 9.54526C83.5103 9.39964 83.5103 9.25402 83.5103 9.1084C83.5393 8.93366 83.5683 8.78804 83.5973 8.67155C83.6843 8.40944 83.8437 8.20557 84.0756 8.05995C84.2205 8.00171 84.3365 7.95802 84.4234 7.9289C84.5104 7.89977 84.6408 7.88521 84.8148 7.88521C85.0177 7.85609 85.2206 7.85609 85.4235 7.88521C85.6264 7.88521 85.8148 7.88521 85.9887 7.88521H91.0325C91.2644 7.88521 91.5107 7.87065 91.7716 7.84153C92.0325 7.8124 92.2789 7.82696 92.5108 7.88521C92.5978 7.88521 92.6702 7.89977 92.7282 7.9289C93.0181 8.01627 93.2065 8.17645 93.2934 8.40944C93.4384 8.6133 93.5108 8.83173 93.5108 9.06472V10.5937L93.7717 10.3316C93.8297 10.3025 93.8732 10.2733 93.9022 10.2442C93.9312 10.2151 93.9457 10.2005 93.9457 10.2005C94.0036 10.1423 94.1486 10.0258 94.3805 9.85105C94.6413 9.67631 94.8298 9.55982 94.9457 9.50157C95.1196 9.35595 95.2935 9.23946 95.4675 9.15209C95.6704 9.03559 95.8588 8.93366 96.0327 8.84629C96.2646 8.70067 96.511 8.58418 96.7719 8.49681C97.0618 8.40944 97.3516 8.33663 97.6415 8.27838C98.4821 8.01627 99.3662 7.88521 100.294 7.88521H101.033C101.178 7.88521 101.337 7.88521 101.511 7.88521C101.685 7.85609 101.859 7.84153 102.033 7.84153C102.236 7.84153 102.424 7.85609 102.598 7.88521C102.801 7.91433 102.961 7.98714 103.077 8.10364C103.25 8.22013 103.381 8.38031 103.468 8.58418C103.526 8.75892 103.555 8.90454 103.555 9.02103V9.23946C103.584 9.44332 103.584 9.64719 103.555 9.85105C103.555 10.0258 103.555 10.2005 103.555 10.3753V14.4817Z" fill="#BC0909"/>
<path d="M130.712 18.5444C130.741 19.0104 130.741 19.4764 130.712 19.9424C130.712 20.4084 130.697 20.8598 130.668 21.2966C130.61 22.1995 130.48 23.044 130.277 23.8304C130.074 24.5876 129.784 25.2866 129.407 25.9273C129.291 26.1311 129.175 26.335 129.06 26.5389C128.944 26.7427 128.813 26.9466 128.668 27.1505C128.523 27.3252 128.364 27.4854 128.19 27.631C128.19 27.6601 128.175 27.6893 128.146 27.7184C128.03 27.8931 127.886 28.0387 127.712 28.1552C127.683 28.1844 127.654 28.2135 127.625 28.2426C127.596 28.2717 127.552 28.3154 127.494 28.3737C127.465 28.4028 127.436 28.4319 127.407 28.461C127.378 28.4902 127.349 28.5193 127.32 28.5484L127.059 29.1163C127.059 29.2328 127.059 29.3493 127.059 29.4658C127.059 29.5532 127.045 29.6551 127.016 29.7716C126.987 29.9755 126.987 30.2521 127.016 30.6016C127.045 30.922 126.987 31.0239 126.842 30.9074C126.755 30.82 126.697 30.7181 126.668 30.6016C126.668 30.456 126.668 30.3249 126.668 30.2084C126.668 30.2667 126.639 30.3249 126.581 30.3832C126.552 30.4706 126.494 30.5579 126.407 30.6453C126.349 30.7618 126.262 30.8346 126.146 30.8637C125.943 30.9511 125.77 30.8783 125.625 30.6453C125.509 30.4414 125.422 30.2813 125.364 30.1648C125.364 30.1356 125.349 30.1065 125.32 30.0774C125.117 30.456 125.03 30.8783 125.059 31.3443C125.088 31.8394 125.074 32.3199 125.016 32.7859C125.016 32.9024 125.001 33.0334 124.972 33.179C124.943 33.3538 124.914 33.514 124.885 33.6596C124.856 33.8343 124.784 33.9945 124.668 34.1401C124.668 34.2275 124.61 34.2712 124.494 34.2712C124.378 34.2129 124.32 34.1401 124.32 34.0528C124.262 33.5577 124.233 33.048 124.233 32.5238C124.233 31.9995 124.204 31.4899 124.146 30.9948C124.146 30.9948 124.132 30.9802 124.103 30.9511C124.103 30.9511 124.088 30.9511 124.059 30.9511C123.972 30.9802 123.885 31.0239 123.798 31.0821C123.711 31.1404 123.639 31.1986 123.581 31.2569C123.378 31.4608 123.204 31.7083 123.059 31.9995C122.972 32.1743 122.885 32.349 122.798 32.5238C122.74 32.6985 122.668 32.8587 122.581 33.0043C122.552 33.0334 122.508 33.0917 122.451 33.179C122.422 33.2955 122.407 33.3392 122.407 33.3101C122.349 32.9897 122.32 32.6694 122.32 32.349C122.32 32.0287 122.291 31.7229 122.233 31.4316C122.291 31.4316 122.204 31.4171 121.972 31.3879C121.769 31.3879 121.682 31.4025 121.711 31.4316C121.653 31.8976 121.624 32.3636 121.624 32.8296C121.624 33.2955 121.595 33.7615 121.537 34.2275C121.537 34.2566 121.479 34.3149 121.363 34.4022C121.277 34.4896 121.219 34.5479 121.19 34.577C121.161 34.6061 121.117 34.6207 121.059 34.6207C121.03 34.6498 121.016 34.6498 121.016 34.6207C120.958 34.1256 120.929 33.6159 120.929 33.0917C120.929 32.5966 120.885 32.1015 120.798 31.6064C120.711 31.6355 120.639 31.6792 120.581 31.7374C120.523 31.7957 120.494 31.8248 120.494 31.8248C120.465 31.8539 120.436 31.8976 120.407 31.9559C120.407 32.0432 120.378 32.116 120.32 32.1743C120.291 32.1743 120.218 32.116 120.103 31.9995C120.074 31.9413 120.045 31.883 120.016 31.8248C120.016 31.7666 119.987 31.7229 119.929 31.6937C119.929 31.6646 119.914 31.6501 119.885 31.6501C119.856 31.6209 119.842 31.6064 119.842 31.6064C119.842 31.6355 119.827 31.6355 119.798 31.6064H119.537C119.537 31.7229 119.537 31.8394 119.537 31.9559C119.537 32.0723 119.508 32.2034 119.45 32.349C119.45 32.349 119.334 32.218 119.103 31.9559C118.958 31.8102 118.885 31.7374 118.885 31.7374C118.885 31.7666 118.842 31.7666 118.755 31.7374C118.639 31.7374 118.581 31.7229 118.581 31.6937C118.552 32.1015 118.523 32.4946 118.494 32.8732C118.494 33.281 118.465 33.6887 118.407 34.0964C118.407 34.1547 118.378 34.1256 118.32 34.0091C118.291 33.8926 118.262 33.8052 118.233 33.747C118.204 33.6596 118.175 33.5722 118.146 33.4848C118.117 33.4266 118.088 33.3538 118.059 33.2664C117.972 32.8878 117.9 32.5092 117.842 32.1306C117.813 31.7811 117.769 31.4171 117.711 31.0385H117.45C113.508 30.9511 110.537 30.0337 108.537 28.2863L108.276 28.0242C106.566 26.3933 105.624 24.1507 105.45 21.2966C105.363 19.9278 105.363 18.559 105.45 17.1902C105.682 13.9575 106.899 11.5257 109.102 9.89474C111.334 8.26382 114.378 7.44836 118.233 7.44836H118.624C119.03 7.44836 119.436 7.46292 119.842 7.49204C120.247 7.52117 120.639 7.56485 121.016 7.6231C121.074 7.6231 121.117 7.63766 121.146 7.66678C124.132 8.10364 126.523 9.23946 128.32 11.0742C128.378 11.1325 128.451 11.2344 128.538 11.38C128.654 11.4965 128.726 11.5839 128.755 11.6422C129.567 12.7197 130.118 13.9284 130.407 15.268C130.407 15.2972 130.407 15.3263 130.407 15.3554C130.436 15.3845 130.451 15.4137 130.451 15.4428C130.567 15.9379 130.639 16.4621 130.668 17.0155C130.697 17.5397 130.712 18.0493 130.712 18.5444ZM116.885 23.743C116.972 23.8013 117.073 23.8595 117.189 23.9177C117.508 24.0051 117.755 24.0488 117.929 24.0488C118.102 24.0488 118.276 24.0342 118.45 24.0051H118.711C118.827 23.9469 118.929 23.9032 119.016 23.8741C119.131 23.8158 119.233 23.7576 119.32 23.6993C119.552 23.4663 119.697 23.1897 119.755 22.8693C119.842 22.5489 119.9 22.2431 119.929 21.9519C119.958 21.7772 119.972 21.5879 119.972 21.384C120.001 21.1801 120.016 20.9763 120.016 20.7724C120.045 20.3647 120.059 19.8841 120.059 19.3308C120.059 18.7774 120.045 18.2823 120.016 17.8455C120.016 17.6999 120.016 17.5542 120.016 17.4086C120.016 17.263 120.001 17.132 119.972 17.0155C119.972 16.899 119.958 16.797 119.929 16.7097C119.929 16.5932 119.929 16.4767 119.929 16.3602C119.842 15.603 119.639 15.0933 119.32 14.8312C119.204 14.7147 119.117 14.6564 119.059 14.6564C119.03 14.6273 118.987 14.6128 118.929 14.6128C118.9 14.6128 118.871 14.6128 118.842 14.6128C118.813 14.5836 118.784 14.5836 118.755 14.6128C118.726 14.6419 118.697 14.7147 118.668 14.8312C118.668 14.9186 118.639 14.9914 118.581 15.0496C118.552 15.1079 118.465 15.1515 118.32 15.1807C118.204 15.1807 118.117 15.1661 118.059 15.137C117.885 15.1079 117.726 15.0205 117.581 14.8749H117.32C117.291 14.8457 117.262 14.8166 117.233 14.7875C117.204 14.7293 117.16 14.6856 117.102 14.6564C117.015 14.6564 116.928 14.7001 116.842 14.7875C116.639 14.9622 116.494 15.2098 116.407 15.5302C116.32 15.8214 116.247 16.1709 116.189 16.5786C116.16 16.666 116.146 16.7825 116.146 16.9281C116.146 17.0155 116.131 17.1174 116.102 17.2339C116.102 17.3213 116.102 17.4232 116.102 17.5397C116.073 17.7727 116.059 18.0493 116.059 18.3697C116.059 18.6901 116.059 19.0104 116.059 19.3308C116.059 19.5346 116.059 19.7385 116.059 19.9424C116.088 20.1171 116.102 20.3064 116.102 20.5103C116.102 20.7142 116.102 20.918 116.102 21.1219C116.102 21.3257 116.117 21.5005 116.146 21.6461C116.204 22.1703 116.262 22.5781 116.32 22.8693C116.407 23.1605 116.595 23.4518 116.885 23.743Z" fill="#BC0909"/>
<path d="M153.957 14.4817C153.957 14.6564 153.957 14.8312 153.957 15.0059C153.986 15.1807 154 15.37 154 15.5738C154 15.6903 154 15.8068 154 15.9233C154 16.0398 153.971 16.1563 153.913 16.2728C153.826 16.5058 153.681 16.6951 153.478 16.8407C153.478 16.8407 153.464 16.8407 153.435 16.8407C153.435 16.8407 153.435 16.8553 153.435 16.8844C153.406 16.8844 153.377 16.899 153.348 16.9281C153.348 16.9281 153.333 16.9281 153.304 16.9281C153.159 17.132 153.029 17.3358 152.913 17.5397C152.797 17.7435 152.667 17.9328 152.522 18.1076C152.493 18.1367 152.464 18.1804 152.435 18.2386C152.406 18.2678 152.362 18.2969 152.304 18.326C152.275 18.326 152.246 18.3406 152.217 18.3697C152.217 18.3697 152.203 18.3843 152.174 18.4134C152.174 18.4134 152.159 18.4134 152.13 18.4134C152.101 18.4425 152.058 18.6464 152 19.025C151.942 19.4036 151.869 19.6511 151.782 19.7676C151.753 19.7968 151.696 19.7822 151.609 19.7239C151.522 19.5492 151.478 19.3599 151.478 19.156C151.449 19.0104 151.42 18.8502 151.391 18.6755C151.391 18.5008 151.362 18.326 151.304 18.1513L151.043 17.8892C150.985 17.8309 150.884 17.729 150.739 17.5834C150.623 17.4377 150.493 17.3067 150.348 17.1902L150.304 17.1465C150.275 17.1465 150.261 17.1611 150.261 17.1902C150.261 17.1902 150.246 17.1902 150.217 17.1902C150.159 17.2484 150.087 17.3358 150 17.4523C149.942 17.5397 149.855 17.5979 149.739 17.6271C149.594 17.6562 149.478 17.5979 149.391 17.4523C149.362 17.4814 149.29 17.496 149.174 17.496C149.058 17.496 148.971 17.4814 148.913 17.4523L148.695 17.9765C148.608 18.1804 148.507 18.3551 148.391 18.5008C148.304 18.6464 148.188 18.792 148.043 18.9376C147.956 19.025 147.869 19.1269 147.782 19.2434C147.695 19.3308 147.608 19.4036 147.521 19.4618C147.405 19.5783 147.347 19.6075 147.347 19.5492C147.29 19.1997 147.261 18.9231 147.261 18.7192C147.29 18.4862 147.261 18.1804 147.174 17.8018C147.116 17.8309 147.058 17.8746 147 17.9328C146.884 17.9911 146.826 18.0348 146.826 18.0639C146.768 18.2678 146.724 18.4862 146.695 18.7192C146.695 18.9522 146.666 19.1706 146.608 19.3745C146.579 19.4036 146.536 19.4036 146.478 19.3745C146.449 19.3453 146.42 19.3162 146.391 19.2871C146.362 19.0541 146.333 18.8357 146.304 18.6318C146.304 18.4279 146.275 18.2241 146.217 18.0202C146.217 17.962 146.188 17.9328 146.13 17.9328C146.101 17.9037 146.072 17.8746 146.043 17.8455C146.043 17.8455 146.029 17.8309 146 17.8018C145.971 17.7727 145.927 17.7435 145.869 17.7144C145.869 17.86 145.84 17.962 145.782 18.0202C145.782 18.0202 145.71 17.9474 145.565 17.8018H145.478C145.449 17.8018 145.42 17.7872 145.391 17.7581C145.391 17.6999 145.376 17.6562 145.347 17.6271C145.318 17.6562 145.289 17.6853 145.26 17.7144C145.231 17.7144 145.202 17.729 145.173 17.7581C145.115 17.8455 145.057 17.9328 145 18.0202C144.942 18.1076 144.884 18.195 144.826 18.2823C144.797 18.3115 144.782 18.3551 144.782 18.4134C144.782 18.4425 144.768 18.4862 144.739 18.5444C144.652 18.8066 144.594 19.0832 144.565 19.3745C144.565 19.6657 144.565 19.9569 144.565 20.2482V28.8979C144.565 29.0435 144.565 29.2037 144.565 29.3784C144.594 29.524 144.579 29.6697 144.521 29.8153C144.521 29.8444 144.507 29.8735 144.478 29.9026C144.478 29.9026 144.478 29.9172 144.478 29.9463C144.478 29.9463 144.449 29.9755 144.391 30.0337C144.275 30.2084 144.173 30.3249 144.086 30.3832C144.144 30.3249 144.115 30.3541 143.999 30.4706C143.884 30.5579 143.811 30.6307 143.782 30.689C143.782 30.7181 143.768 30.7472 143.739 30.7764C143.71 30.8346 143.681 30.9074 143.652 30.9948C143.652 31.0821 143.608 31.1113 143.521 31.0821C143.521 31.1113 143.507 31.1258 143.478 31.1258C143.42 31.2423 143.391 31.3151 143.391 31.3443C143.333 31.4025 143.275 31.4753 143.217 31.5627C143.188 31.6501 143.144 31.7374 143.086 31.8248C142.854 32.2325 142.695 32.4946 142.608 32.6111C142.55 32.7568 142.391 32.9897 142.13 33.3101C142.101 33.3392 142.057 33.3683 141.999 33.3975C141.97 33.4557 141.927 33.514 141.869 33.5722C141.84 33.6013 141.782 33.7178 141.695 33.9217C141.608 34.1256 141.536 34.2421 141.478 34.2712C141.449 34.3003 141.391 34.2421 141.304 34.0964C141.275 34.0091 141.26 33.9071 141.26 33.7906C141.26 33.7033 141.231 33.6159 141.173 33.5285L140.912 33.2227C140.796 33.1062 140.695 32.9606 140.608 32.7859C140.434 32.5529 140.289 32.3053 140.173 32.0432C140.057 31.7811 139.927 31.519 139.782 31.2569C139.782 31.2278 139.767 31.2132 139.738 31.2132C139.738 31.2132 139.738 31.1986 139.738 31.1695C139.651 31.0821 139.608 31.0676 139.608 31.1258C139.55 31.3588 139.521 31.6064 139.521 31.8685C139.55 32.1306 139.521 32.3781 139.434 32.6111C139.405 32.6985 139.376 32.6548 139.347 32.4801C139.318 32.3053 139.289 32.1743 139.26 32.0869L138.912 31.0821V31.0385C138.825 31.1258 138.767 31.1695 138.738 31.1695C138.68 31.1695 138.622 31.1404 138.564 31.0821C138.477 31.286 138.391 31.4899 138.304 31.6937C138.246 31.8976 138.159 32.116 138.043 32.349C138.014 32.3782 137.985 32.4218 137.956 32.4801C137.956 32.5675 137.927 32.6403 137.869 32.6985C137.84 32.7276 137.811 32.7859 137.782 32.8732C137.753 32.9897 137.724 33.0189 137.695 32.9606C137.608 32.4946 137.593 32.1888 137.651 32.0432C137.709 31.9267 137.622 31.6792 137.39 31.3006C137.303 31.3588 137.231 31.4462 137.173 31.5627C137.144 31.7666 137.115 31.985 137.086 32.218C137.086 32.451 137.057 32.6839 136.999 32.9169C136.999 32.9461 136.956 33.0334 136.869 33.179C136.811 33.3538 136.738 33.4557 136.651 33.4848C136.506 33.514 136.39 33.412 136.303 33.179C136.216 32.9461 136.159 32.8004 136.13 32.7422C136.014 32.4801 135.927 32.2034 135.869 31.9122C135.84 31.6501 135.767 31.4025 135.651 31.1695C135.593 31.1113 135.535 31.053 135.477 30.9948C135.419 30.9365 135.361 30.8783 135.303 30.82C135.216 30.7618 135.173 30.7035 135.173 30.6453C135.115 30.6162 135.028 30.6016 134.912 30.6016C134.883 30.6016 134.854 30.6016 134.825 30.6016C134.825 30.5725 134.796 30.5579 134.738 30.5579C134.506 30.4706 134.318 30.3249 134.173 30.1211C134.115 30.0628 134.057 29.9463 133.999 29.7716C133.941 29.5677 133.912 29.3347 133.912 29.0726C133.941 28.8105 133.955 28.5775 133.955 28.3737V12.6469C133.955 12.2101 133.955 11.7295 133.955 11.2053C133.955 10.652 133.941 10.0986 133.912 9.54526C133.912 9.39964 133.912 9.25402 133.912 9.1084C133.941 8.93366 133.97 8.78804 133.999 8.67155C134.086 8.40944 134.245 8.20557 134.477 8.05995C134.622 8.00171 134.738 7.95802 134.825 7.9289C134.912 7.89977 135.043 7.88521 135.216 7.88521C135.419 7.85609 135.622 7.85609 135.825 7.88521C136.028 7.88521 136.216 7.88521 136.39 7.88521H141.434C141.666 7.88521 141.912 7.87065 142.173 7.84153C142.434 7.8124 142.681 7.82696 142.912 7.88521C142.999 7.88521 143.072 7.89977 143.13 7.9289C143.42 8.01627 143.608 8.17645 143.695 8.40944C143.84 8.6133 143.913 8.83173 143.913 9.06472V10.5937L144.173 10.3316C144.231 10.3025 144.275 10.2733 144.304 10.2442C144.333 10.2151 144.347 10.2005 144.347 10.2005C144.405 10.1423 144.55 10.0258 144.782 9.85105C145.043 9.67631 145.231 9.55982 145.347 9.50157C145.521 9.35595 145.695 9.23946 145.869 9.15209C146.072 9.03559 146.26 8.93366 146.434 8.84629C146.666 8.70067 146.913 8.58418 147.174 8.49681C147.463 8.40944 147.753 8.33663 148.043 8.27838C148.884 8.01627 149.768 7.88521 150.695 7.88521H151.435C151.58 7.88521 151.739 7.88521 151.913 7.88521C152.087 7.85609 152.261 7.84153 152.435 7.84153C152.638 7.84153 152.826 7.85609 153 7.88521C153.203 7.91433 153.362 7.98714 153.478 8.10364C153.652 8.22013 153.783 8.38031 153.87 8.58418C153.928 8.75892 153.957 8.90454 153.957 9.02103V9.23946C153.986 9.44332 153.986 9.64719 153.957 9.85105C153.957 10.0258 153.957 10.2005 153.957 10.3753V14.4817Z" fill="#BC0909"/>
</svg>
