<svg width="97" height="35" viewBox="0 0 97 35" fill="none" xmlns="http://www.w3.org/2000/svg">
<path d="M50.6555 24.8516C50.6555 24.9152 50.66 24.9879 50.6688 25.0697C50.6777 25.1425 50.6733 25.2152 50.6555 25.2879C50.6555 25.2697 50.6511 25.2788 50.6422 25.3152C50.6333 25.3424 50.6333 25.3515 50.6422 25.3424C50.6333 25.3515 50.6289 25.3606 50.6289 25.3697C50.6289 25.3788 50.6244 25.3879 50.6156 25.397L50.549 25.4788L50.5091 25.5197C50.5002 25.5197 50.4869 25.5288 50.4691 25.5469C50.4602 25.5651 50.4513 25.5787 50.4425 25.5878C50.407 25.6242 50.3759 25.6742 50.3493 25.7378C50.3226 25.7924 50.2871 25.856 50.2427 25.9287C50.2072 26.0105 50.1717 26.0923 50.1362 26.1741C50.1007 26.2559 50.0608 26.3377 50.0164 26.4195C49.9543 26.565 49.8877 26.7149 49.8167 26.8695C49.7545 27.0149 49.6746 27.1649 49.577 27.3194C49.5149 27.4103 49.4572 27.4739 49.4039 27.5103C49.395 27.5284 49.3861 27.5512 49.3773 27.5784C49.3773 27.6057 49.3684 27.6284 49.3506 27.6466C49.3506 27.6466 49.3329 27.633 49.2974 27.6057C49.2885 27.5966 49.2796 27.583 49.2708 27.5648C49.2708 27.5466 49.2441 27.5103 49.1909 27.4557L49.1642 27.4285C49.1376 27.383 49.111 27.3421 49.0843 27.3057C49.0666 27.2603 49.0488 27.2194 49.0311 27.183L48.9911 27.1012L48.9778 27.0876L48.858 26.8558C48.7781 26.7104 48.6938 26.5695 48.605 26.4332C48.5251 26.2877 48.4408 26.1423 48.352 25.9969C48.3165 25.9423 48.2854 25.8923 48.2588 25.8469L48.1656 25.7105C48.139 25.6833 48.1123 25.656 48.0857 25.6287V31.5596C48.0946 31.6323 48.0946 31.7005 48.0857 31.7641C48.0857 31.8278 48.0857 31.8732 48.0857 31.9005V31.9278C48.0768 31.9368 48.0724 31.9459 48.0724 31.955C48.0546 31.9914 48.0413 32.0141 48.0325 32.0232C48.0325 32.0323 48.028 32.0414 48.0191 32.0505C47.9836 32.0959 47.9393 32.1323 47.886 32.1595C47.8771 32.1686 47.8682 32.1777 47.8594 32.1868C47.8505 32.1959 47.8416 32.205 47.8327 32.2141C47.8239 32.2323 47.8105 32.2504 47.7928 32.2686C47.775 32.2959 47.7573 32.3186 47.7395 32.3368C47.704 32.3731 47.6641 32.3868 47.6197 32.3777C47.6019 32.3686 47.5842 32.3504 47.5664 32.3231C47.5487 32.305 47.5309 32.2959 47.5132 32.2959C47.4954 32.2868 47.4777 32.2913 47.4599 32.3095C47.4422 32.3368 47.4244 32.3504 47.4067 32.3504C47.3356 32.3231 47.3046 32.2959 47.3134 32.2686C47.3312 32.2413 47.3001 32.2459 47.2202 32.2822C47.1936 32.3277 47.1625 32.3868 47.127 32.4595C47.0915 32.5413 47.0427 32.5595 46.9806 32.514C46.9628 32.4958 46.9451 32.4686 46.9273 32.4322C46.9184 32.405 46.9007 32.3868 46.874 32.3777L46.8607 32.3913C46.8607 32.4004 46.8563 32.4049 46.8474 32.4049C46.8474 32.414 46.8474 32.4186 46.8474 32.4186L46.7675 32.4731L46.7143 32.5277C46.7143 32.5367 46.7054 32.5913 46.6876 32.6913C46.6699 32.7913 46.6521 32.8912 46.6344 32.9912C46.6166 33.0912 46.6077 33.1412 46.6077 33.1412C46.5989 33.1776 46.59 33.2185 46.5811 33.2639C46.5811 33.3094 46.5722 33.3503 46.5545 33.3866C46.5456 33.3957 46.5323 33.4002 46.5145 33.4002C46.5057 33.4093 46.5012 33.4093 46.5012 33.4002C46.4835 33.273 46.4746 33.1457 46.4746 33.0185C46.4746 32.8912 46.4657 32.764 46.448 32.6367C46.448 32.5913 46.4347 32.5413 46.408 32.4868C46.3903 32.4686 46.3592 32.4322 46.3148 32.3777C46.2793 32.3322 46.2482 32.2959 46.2216 32.2686H46.1817C46.1373 32.2686 46.1062 32.2641 46.0885 32.255C46.0796 32.2732 46.0663 32.2868 46.0485 32.2959C46.0308 32.3141 46.0219 32.3277 46.0219 32.3368L46.0086 32.3504C45.9642 32.405 45.9198 32.4595 45.8754 32.514C45.8399 32.5686 45.8 32.6322 45.7556 32.7049C45.7378 32.7231 45.7245 32.7413 45.7156 32.7594C45.7068 32.7685 45.6979 32.7776 45.689 32.7867C45.6801 32.7958 45.6668 32.8094 45.6491 32.8276C45.6313 32.8458 45.6136 32.8594 45.5958 32.8685C45.5869 32.9685 45.5825 33.1139 45.5825 33.3048C45.5825 33.5048 45.5781 33.7138 45.5692 33.932C45.5692 34.1501 45.5647 34.3546 45.5559 34.5455C45.5559 34.7455 45.5514 34.8955 45.5425 34.9955C45.5425 35.0045 45.5337 35 45.5159 34.9818C45.4982 34.9636 45.4893 34.95 45.4893 34.9409C45.436 34.8409 45.4138 34.6955 45.4227 34.5046C45.4405 34.3228 45.4627 34.1183 45.4893 33.8911C45.5159 33.6729 45.5248 33.4639 45.5159 33.2639C45.5159 33.073 45.476 32.9185 45.3961 32.8003C45.3961 32.7822 45.3872 32.7685 45.3695 32.7594C45.3606 32.7504 45.3561 32.7458 45.3561 32.7458C45.3206 32.6731 45.2851 32.6049 45.2496 32.5413C45.2141 32.4777 45.1786 32.414 45.1431 32.3504C45.1431 32.3413 45.1387 32.3322 45.1298 32.3231C45.1298 32.3231 45.1298 32.3186 45.1298 32.3095C45.1209 32.3004 45.1076 32.2777 45.0898 32.2413C45.0632 32.2141 45.0321 32.2004 44.9966 32.2004C44.9878 32.2004 44.9789 32.2004 44.97 32.2004C44.97 32.1913 44.9611 32.1868 44.9434 32.1868C44.8724 32.1595 44.8147 32.1141 44.7703 32.0505C44.7525 32.0323 44.7348 31.9959 44.717 31.9414C44.6993 31.8687 44.6904 31.8005 44.6904 31.7369C44.6904 31.6914 44.6904 31.6551 44.6904 31.6278C44.6993 31.5914 44.7037 31.5551 44.7037 31.5187V25.6969L44.6504 25.5878C44.6504 25.5878 44.6416 25.606 44.6238 25.6424C44.6149 25.6515 44.6105 25.6651 44.6105 25.6833C44.6016 25.7196 44.5927 25.756 44.5839 25.7924C44.575 25.8287 44.5617 25.8605 44.5439 25.8878L44.464 26.0514C44.4463 26.0878 44.4241 26.1241 44.3975 26.1605C44.3708 26.1968 44.3398 26.2332 44.3043 26.2695C44.2865 26.2877 44.2776 26.2968 44.2776 26.2968C44.2599 26.3059 44.2421 26.3195 44.2244 26.3377C44.1977 26.3741 44.1844 26.3968 44.1844 26.4059C44.1844 26.415 44.1489 26.4513 44.0779 26.515C44.0424 26.515 44.0246 26.515 44.0246 26.515C44.0069 26.5513 44.0024 26.5968 44.0113 26.6513C44.0202 26.7058 44.0024 26.7422 43.9581 26.7604C43.9314 26.7695 43.9181 26.7513 43.9181 26.7058C43.9181 26.6513 43.9137 26.6104 43.9048 26.5831L43.8649 26.3923C43.8382 26.3741 43.8116 26.3514 43.785 26.3241C43.7583 26.2877 43.7361 26.2605 43.7184 26.2423C43.7273 26.2514 43.7184 26.2468 43.6918 26.2286C43.6651 26.2014 43.6474 26.1832 43.6385 26.1741L43.6119 26.1468C43.5941 26.1559 43.5808 26.1741 43.5719 26.2014C43.5631 26.2286 43.5542 26.2514 43.5453 26.2695C43.5364 26.315 43.5231 26.3559 43.5054 26.3923C43.4965 26.4286 43.492 26.4604 43.492 26.4877C43.492 26.4059 43.4743 26.3059 43.4388 26.1877C43.4388 26.1968 43.4343 26.2014 43.4255 26.2014C43.4255 26.2014 43.4255 26.2059 43.4255 26.215C43.4166 26.215 43.4122 26.2196 43.4122 26.2286C43.4033 26.2377 43.3944 26.2468 43.3855 26.2559C43.3766 26.265 43.3589 26.2923 43.3323 26.3377C43.3145 26.3741 43.2968 26.4013 43.279 26.4195C43.279 26.4195 43.2746 26.4241 43.2657 26.4332C43.2657 26.4332 43.2612 26.4332 43.2524 26.4332C43.2524 26.4332 43.2479 26.4377 43.2391 26.4468C43.2391 26.4468 43.2346 26.4468 43.2257 26.4468C43.2169 26.5377 43.2124 26.624 43.2124 26.7058C43.2213 26.7876 43.2302 26.874 43.2391 26.9649C43.2213 26.8467 43.1814 26.7922 43.1192 26.8013C43.066 26.8195 43.0349 26.8467 43.026 26.8831C43.026 26.8013 43.026 26.7195 43.026 26.6377C43.0349 26.5468 43.0349 26.4604 43.026 26.3786C42.9994 26.3604 42.9728 26.3377 42.9461 26.3104C42.9195 26.2741 42.8929 26.2423 42.8662 26.215L42.7597 26.1059C42.6887 26.0241 42.6532 25.9832 42.6532 25.9832C42.6532 25.9832 42.6443 25.9741 42.6266 25.956C42.6088 25.9378 42.5334 25.856 42.4002 25.7105C42.4002 25.7287 42.3913 25.7378 42.3736 25.7378C42.3647 25.7378 42.3558 25.7242 42.3469 25.6969C42.3469 25.6696 42.3425 25.6469 42.3336 25.6287C42.3425 25.6378 42.3336 25.6242 42.307 25.5878C42.2892 25.5424 42.2759 25.5151 42.2671 25.506C42.1783 25.4333 42.1339 25.3379 42.1339 25.2197V23.4609C42.1339 23.4154 42.1295 23.3382 42.1206 23.2291C42.1206 23.111 42.1295 23.011 42.1472 22.9292C42.1561 22.911 42.1605 22.8974 42.1605 22.8883C42.1605 22.8701 42.165 22.8564 42.1739 22.8474C42.2005 22.7928 42.236 22.7519 42.2804 22.7247C42.2893 22.7247 42.2937 22.7247 42.2937 22.7247C42.2937 22.7156 42.2981 22.711 42.307 22.711L42.3203 22.6974C42.3736 22.6701 42.4224 22.6565 42.4668 22.6565C42.5378 22.6474 42.6044 22.6474 42.6665 22.6565C42.7375 22.6565 42.8041 22.6565 42.8662 22.6565H49.8167C49.9143 22.6565 50.0164 22.6519 50.1229 22.6428C50.2294 22.6338 50.3271 22.6428 50.4158 22.6701C50.4425 22.6792 50.4647 22.6928 50.4824 22.711C50.5091 22.7201 50.5268 22.7337 50.5357 22.7519C50.5978 22.7974 50.6333 22.8474 50.6422 22.9019C50.6511 22.9564 50.6555 23.0155 50.6555 23.0791C50.6644 23.2246 50.6644 23.3791 50.6555 23.5427C50.6555 23.6972 50.6555 23.8517 50.6555 24.0063V24.8516ZM43.066 27.7011C43.0837 27.783 43.0793 27.7739 43.0526 27.6739C43.026 27.5739 43.0038 27.4421 42.9861 27.2785C42.9772 27.1058 42.9905 26.974 43.026 26.8831C43.0171 27.0285 43.0127 27.1694 43.0127 27.3057C43.0216 27.4421 43.0393 27.5739 43.066 27.7011ZM43.1725 27.6875C43.1547 27.742 43.1503 27.742 43.1592 27.6875C43.1769 27.6239 43.1947 27.533 43.2124 27.4148C43.2302 27.2967 43.2391 27.1876 43.2391 27.0876C43.2391 27.1876 43.2346 27.2876 43.2257 27.3876C43.2257 27.4875 43.208 27.5875 43.1725 27.6875Z" fill="#BC0909"/>
<path d="M57.511 31.7096C57.511 31.746 57.5065 31.7732 57.4977 31.7914C57.4977 31.9096 57.4755 31.9959 57.4311 32.0505C57.4222 32.0686 57.4045 32.0914 57.3778 32.1186C57.3512 32.1368 57.3246 32.155 57.2979 32.1732C57.2003 32.2732 57.1559 32.355 57.1648 32.4186C57.1737 32.4822 57.2003 32.5367 57.2447 32.5822C57.2891 32.6276 57.3157 32.6822 57.3246 32.7458C57.3334 32.8094 57.2891 32.8912 57.1914 32.9912C57.1825 33.0185 57.1737 33.0458 57.1648 33.073C57.1648 33.1094 57.1559 33.1367 57.1382 33.1548C57.1293 33.1639 57.1115 33.1412 57.0849 33.0867C57.076 33.0412 57.0671 32.9912 57.0583 32.9367C57.0494 32.8821 57.0405 32.8276 57.0316 32.7731C57.0228 32.6186 57.0183 32.5277 57.0183 32.5004C57.0272 32.4822 57.0094 32.4231 56.9651 32.3231L56.9118 32.3777C56.8852 32.4049 56.8585 32.4277 56.8319 32.4459C56.8142 32.464 56.792 32.4913 56.7653 32.5277C56.7298 32.5822 56.6943 32.6367 56.6588 32.6913C56.6233 32.7458 56.5878 32.8003 56.5523 32.8549C56.5434 32.864 56.5301 32.8867 56.5123 32.923C56.4946 32.9594 56.4768 32.9821 56.4591 32.9912C56.4147 33.0094 56.3792 32.9867 56.3526 32.923C56.3259 32.8594 56.3037 32.8185 56.286 32.8003C56.2771 32.7731 56.2682 32.7458 56.2594 32.7185C56.2594 32.6913 56.2505 32.664 56.2327 32.6367C56.215 32.6276 56.1884 32.6049 56.1528 32.5686C56.1351 32.5504 56.1218 32.5322 56.1129 32.514L55.9798 32.3504L55.9132 32.2822C55.8954 32.2913 55.8732 32.2868 55.8466 32.2686C55.82 32.2504 55.7978 32.2368 55.78 32.2277C55.7356 32.2732 55.7135 32.3004 55.7135 32.3095C55.6424 32.3731 55.5803 32.4459 55.527 32.5277C55.4827 32.6186 55.4383 32.7094 55.3939 32.8003C55.385 32.8185 55.3673 32.8412 55.3406 32.8685C55.3229 32.8958 55.3007 32.9185 55.2741 32.9367C55.2563 32.9549 55.243 32.964 55.2341 32.964C55.2252 33.0185 55.2164 33.073 55.2075 33.1276C55.2075 33.1912 55.1986 33.2503 55.1808 33.3048C55.172 33.3139 55.1587 33.3094 55.1409 33.2912C55.132 33.2821 55.1276 33.273 55.1276 33.2639C55.1098 33.1912 55.101 33.1367 55.101 33.1003C55.1098 33.073 55.0965 33.0049 55.061 32.8958C55.0521 32.8958 55.0433 32.8912 55.0344 32.8821C55.0344 32.8731 55.0255 32.8594 55.0078 32.8412C55.0078 32.8231 54.9989 32.8094 54.9811 32.8003C54.9722 32.7913 54.9678 32.7867 54.9678 32.7867L54.848 32.5822L54.6882 32.3231C54.6793 32.2868 54.666 32.2504 54.6482 32.2141C54.6305 32.1868 54.6127 32.1595 54.595 32.1323L54.5817 32.1186C54.5462 32.0914 54.5107 32.0459 54.4752 31.9823C54.4752 31.9732 54.4707 31.9687 54.4618 31.9687C54.4618 31.9596 54.4618 31.9505 54.4618 31.9414C54.453 31.8959 54.4485 31.8459 54.4485 31.7914C54.4485 31.7278 54.4485 31.6505 54.4485 31.5596V31.4506C54.4308 31.4687 54.4175 31.4869 54.4086 31.5051L54.3686 31.546C54.2887 31.646 54.2 31.7369 54.1023 31.8187C54.0668 31.9096 54.0402 32.005 54.0224 32.105C54.0047 32.1959 53.9736 32.2868 53.9292 32.3777C53.9204 32.414 53.9026 32.4504 53.876 32.4868C53.8582 32.5322 53.8316 32.5686 53.7961 32.5958C53.7872 32.6049 53.7606 32.614 53.7162 32.6231C53.6807 32.6322 53.6585 32.6322 53.6496 32.6231C53.6407 32.5958 53.6363 32.564 53.6363 32.5277C53.6363 32.5004 53.6363 32.4731 53.6363 32.4459C53.6274 32.4731 53.6141 32.4958 53.5964 32.514C53.5875 32.5413 53.5742 32.564 53.5564 32.5822C53.5475 32.6004 53.5342 32.614 53.5165 32.6231C53.4987 32.6413 53.481 32.6595 53.4632 32.6776C53.4366 32.8231 53.4144 32.9594 53.3966 33.0867C53.3878 33.223 53.3744 33.3639 53.3567 33.5093C53.3478 33.5457 53.3389 33.582 53.3301 33.6184C53.3212 33.6638 53.3079 33.7093 53.2901 33.7547C53.2901 33.8002 53.2768 33.8365 53.2502 33.8638C53.2413 33.8729 53.2235 33.8638 53.1969 33.8365C53.188 33.8184 53.1792 33.7956 53.1703 33.7684C53.1614 33.7502 53.1525 33.732 53.1437 33.7138C53.1348 33.6684 53.117 33.5911 53.0904 33.4821C53.0638 33.3821 53.0416 33.3139 53.0238 33.2775C53.0149 33.2412 53.0061 33.2003 52.9972 33.1548C52.9883 33.1185 52.9794 33.0821 52.9706 33.0458C52.9617 33.0185 52.9528 32.9867 52.9439 32.9503C52.9439 32.9231 52.9351 32.8912 52.9173 32.8549L52.8774 32.814C52.8507 32.7776 52.8241 32.7367 52.7975 32.6913C52.7708 32.6549 52.7442 32.6185 52.7176 32.5822C52.7087 32.5549 52.6954 32.5277 52.6776 32.5004C52.6599 32.4822 52.6421 32.4549 52.6244 32.4186C52.6155 32.4004 52.6066 32.3822 52.5977 32.3641C52.5889 32.355 52.5755 32.3459 52.5578 32.3368H52.4513C51.8743 32.3186 51.3772 32.1777 50.96 31.9141C50.5517 31.6505 50.2676 31.3142 50.1078 30.9052C50.099 30.8779 50.0901 30.8507 50.0812 30.8234C50.0723 30.7961 50.0634 30.7688 50.0546 30.7416C50.0546 30.7325 50.0501 30.7234 50.0413 30.7143C50.0413 30.7052 50.0413 30.6961 50.0413 30.687C50.0324 30.6416 50.0235 30.6007 50.0146 30.5643C50.0057 30.5189 49.9969 30.478 49.988 30.4416C49.9791 30.3871 49.9747 30.3325 49.9747 30.278C49.9747 30.2144 49.9747 30.1553 49.9747 30.1008C49.9747 30.0644 49.9747 30.0326 49.9747 30.0053C49.9836 29.9781 49.988 29.9462 49.988 29.9099L50.0013 29.8144C50.0279 29.669 50.0679 29.5372 50.1212 29.4191C50.2454 29.1282 50.4363 28.8782 50.6937 28.6692C50.7469 28.6237 50.8002 28.5828 50.8535 28.5465C50.9067 28.5101 50.9644 28.4738 51.0266 28.4374L51.1997 28.342C51.2174 28.3238 51.2396 28.3056 51.2662 28.2874C51.2929 28.2692 51.3195 28.2556 51.3461 28.2465C51.3639 28.2283 51.3861 28.2147 51.4127 28.2056C51.4393 28.1965 51.466 28.1874 51.4926 28.1783C51.5902 28.1329 51.6879 28.0965 51.7855 28.0693C51.892 28.042 51.9986 28.0147 52.1051 27.9875C52.2293 27.9511 52.3536 27.9193 52.4779 27.892C52.6111 27.8648 52.7486 27.8375 52.8907 27.8102L53.2102 27.7557C53.3345 27.7375 53.4543 27.7193 53.5697 27.7011C53.694 27.6739 53.8183 27.6512 53.9426 27.633C53.9781 27.633 54.0002 27.6284 54.0091 27.6193L54.3021 27.5648V27.3467C54.3021 27.383 54.2976 27.3739 54.2887 27.3194C54.2887 27.2648 54.2887 27.233 54.2887 27.2239C54.2887 27.233 54.2843 27.2239 54.2754 27.1967C54.2754 27.1603 54.2754 27.1467 54.2754 27.1558C54.2754 27.1467 54.271 27.1376 54.2621 27.1285C54.2621 27.1194 54.2621 27.1103 54.2621 27.1012C54.2444 27.0467 54.2089 26.9922 54.1556 26.9376C54.1467 26.9376 54.1423 26.9376 54.1423 26.9376C54.1423 26.9285 54.1334 26.924 54.1157 26.924C54.0979 26.9331 54.0757 26.9513 54.0491 26.9785C54.0313 27.0058 54.018 27.0285 54.0091 27.0467C53.9825 27.0921 53.9514 27.1512 53.9159 27.2239C53.8804 27.2876 53.836 27.333 53.7828 27.3603C53.7206 27.3966 53.6629 27.3739 53.6097 27.2921C53.5564 27.2103 53.512 27.1512 53.4765 27.1149C53.4588 27.0967 53.4455 27.0876 53.4366 27.0876L53.3167 27.2103C53.2901 27.2285 53.2635 27.2467 53.2369 27.2648C53.2102 27.283 53.1836 27.3012 53.157 27.3194C53.1037 27.3467 53.046 27.3694 52.9839 27.3876C52.9306 27.3966 52.8773 27.4103 52.8241 27.4285C52.7176 27.4648 52.611 27.5057 52.5045 27.5512C52.4069 27.5875 52.3048 27.6148 52.1983 27.633C52.0651 27.6512 51.9409 27.6239 51.8255 27.5512C51.7101 27.4694 51.5858 27.433 51.4527 27.4421C51.3284 27.4421 51.2041 27.4375 51.0798 27.4285C50.9644 27.4194 50.8446 27.3966 50.7203 27.3603C50.6848 27.3421 50.6626 27.333 50.6537 27.333C50.6449 27.333 50.636 27.3376 50.6271 27.3467C50.6182 27.3557 50.6094 27.3557 50.6005 27.3467C50.5916 27.3376 50.5827 27.3285 50.5739 27.3194C50.5739 27.3103 50.565 27.3012 50.5472 27.2921C50.5384 27.2739 50.525 27.2558 50.5073 27.2376C50.4895 27.2194 50.4806 27.2103 50.4806 27.2103C50.4718 27.2012 50.4585 27.1785 50.4407 27.1421C50.423 27.0876 50.4185 27.0331 50.4274 26.9785C50.4363 26.9149 50.4496 26.8558 50.4673 26.8013C50.4762 26.774 50.4851 26.7467 50.494 26.7195C50.5028 26.6922 50.5117 26.6604 50.5206 26.624C50.6094 26.4513 50.707 26.3014 50.8135 26.1741C50.9112 26.0469 51.0266 25.9241 51.1597 25.806C51.3017 25.6878 51.4615 25.5833 51.6391 25.4924C51.7101 25.4288 51.7944 25.3742 51.892 25.3288C51.9808 25.2833 52.074 25.247 52.1717 25.2197C52.2782 25.1924 52.3847 25.1697 52.4912 25.1515C52.6954 25.097 52.9173 25.0561 53.157 25.0288C53.3966 24.9925 53.6585 24.9743 53.9426 24.9743H54.2089C54.2621 24.9743 54.3109 24.9743 54.3553 24.9743C54.3997 24.9743 54.4352 24.9788 54.4618 24.9879L54.555 25.0016H54.6216C54.737 25.0016 54.8213 25.0152 54.8746 25.0425C55.0255 25.0516 55.1764 25.0788 55.3273 25.1243C55.4338 25.1425 55.5359 25.1652 55.6336 25.1924C55.7401 25.2197 55.8333 25.2561 55.9132 25.3015C56.0286 25.3379 56.1395 25.3924 56.246 25.4651C56.3614 25.5378 56.4635 25.6106 56.5523 25.6833C56.5523 25.6924 56.5523 25.6969 56.5523 25.6969C56.5612 25.6969 56.5656 25.6969 56.5656 25.6969C56.5922 25.7151 56.6144 25.7378 56.6322 25.7651C56.6588 25.7833 56.681 25.8014 56.6988 25.8196C57.1248 26.2105 57.3778 26.7331 57.4577 27.3876C57.4666 27.3966 57.471 27.4103 57.471 27.4285C57.4977 27.6193 57.5065 27.8102 57.4977 28.0011C57.4977 28.192 57.4977 28.3829 57.4977 28.5737V31.396C57.4977 31.4415 57.4977 31.4915 57.4977 31.546C57.5065 31.6005 57.511 31.6551 57.511 31.7096ZM54.342 29.4327V29.2691C54.342 29.26 54.3331 29.26 54.3154 29.2691C54.3065 29.2691 54.2932 29.2736 54.2754 29.2827C54.2665 29.2827 54.2577 29.2827 54.2488 29.2827C54.2133 29.3009 54.1733 29.3191 54.129 29.3373C54.0846 29.3463 54.0402 29.36 53.9958 29.3782C53.907 29.4145 53.8138 29.4418 53.7162 29.46C53.6274 29.469 53.5342 29.4827 53.4366 29.5009C53.3922 29.5099 53.3434 29.5236 53.2901 29.5418C53.2369 29.5599 53.188 29.5827 53.1437 29.6099C53.1081 29.6372 53.0815 29.6645 53.0638 29.6917C53.0016 29.7735 52.9706 29.8554 52.9706 29.9372C52.9706 30.0008 53.0016 30.0826 53.0638 30.1826C53.0815 30.1917 53.0993 30.2053 53.117 30.2235C53.1437 30.2326 53.1703 30.2462 53.1969 30.2644L53.2635 30.2916C53.3789 30.3007 53.441 30.3098 53.4499 30.3189C53.4588 30.3189 53.512 30.3144 53.6097 30.3053C53.9914 30.2507 54.2222 30.0281 54.3021 29.6372C54.3198 29.5827 54.3287 29.5327 54.3287 29.4872C54.3287 29.46 54.3331 29.4418 54.342 29.4327Z" fill="#BC0909"/>
<path d="M61.7461 31.805C61.7461 31.8505 61.7372 31.9005 61.7195 31.955C61.7195 31.955 61.7106 31.9732 61.6928 32.0096L61.6795 32.0232C61.6706 32.0505 61.6396 32.0868 61.5863 32.1323C61.5419 32.1686 61.5153 32.1913 61.5064 32.2004L61.4931 32.2141C61.4931 32.2232 61.4887 32.2277 61.4798 32.2277C61.4798 32.2277 61.4798 32.2322 61.4798 32.2413C61.462 32.2868 61.4443 32.3095 61.4265 32.3095C61.391 32.364 61.3555 32.4186 61.32 32.4731C61.2934 32.5277 61.2579 32.5776 61.2135 32.6231C61.178 32.6685 61.1336 32.7094 61.0803 32.7458C61.0359 32.7822 60.9916 32.8231 60.9472 32.8685C60.9028 32.914 60.8673 32.964 60.8407 33.0185C60.8318 33.0458 60.8185 33.0685 60.8007 33.0867C60.7918 33.1139 60.783 33.1367 60.7741 33.1548C60.7119 33.2821 60.672 33.3821 60.6542 33.4548C60.6365 33.5275 60.5877 33.632 60.5078 33.7684C60.4989 33.8047 60.4678 33.8411 60.4146 33.8774C60.4057 33.8956 60.388 33.9411 60.3613 34.0138C60.3436 34.0865 60.3081 34.1183 60.2548 34.1092C60.237 34.1092 60.2149 34.0911 60.1882 34.0547C60.1705 34.0274 60.1572 34.0092 60.1483 34.0002C60.1217 33.9547 60.0995 33.9093 60.0817 33.8638C60.0639 33.8184 60.0373 33.7775 60.0018 33.7411C59.9841 33.7229 59.9707 33.7047 59.9619 33.6866C59.9264 33.6593 59.8864 33.6184 59.842 33.5639C59.8332 33.5457 59.8198 33.5275 59.8021 33.5093C59.7932 33.4911 59.7799 33.4775 59.7621 33.4684C59.7 33.3866 59.6467 33.2957 59.6024 33.1957C59.558 33.1048 59.5136 33.0139 59.4692 32.923C59.4603 32.8958 59.4515 32.8685 59.4426 32.8412C59.4337 32.814 59.4204 32.7867 59.4026 32.7594L59.3227 32.5958C59.2606 32.4868 59.194 32.3959 59.123 32.3231C59.123 32.3504 59.1141 32.3641 59.0964 32.3641C59.0875 32.3641 59.0786 32.3504 59.0698 32.3231C59.0609 32.305 59.052 32.2913 59.0431 32.2822C59.0431 32.2732 59.0387 32.2641 59.0298 32.255C59.0032 32.3459 58.9854 32.4822 58.9766 32.664C58.9677 32.8549 58.9632 33.0412 58.9632 33.223C58.9721 33.4139 58.9766 33.5639 58.9766 33.6729C58.9766 33.782 58.9721 33.8047 58.9632 33.7411C58.91 33.532 58.8922 33.2775 58.91 32.9776C58.9277 32.6867 58.9144 32.4231 58.87 32.1868C58.8523 32.1777 58.8345 32.1686 58.8168 32.1595C58.8079 32.1504 58.7946 32.1414 58.7768 32.1323C58.6792 32.0505 58.6304 31.9596 58.6304 31.8596C58.6215 31.7687 58.6171 31.6778 58.6171 31.5869C58.6259 31.496 58.6304 31.4097 58.6304 31.3278V23.2155C58.6304 23.1246 58.6259 23.0291 58.6171 22.9292C58.6171 22.8292 58.6437 22.7428 58.6969 22.6701L58.7768 22.5883C58.839 22.5429 58.91 22.5201 58.9899 22.5201H61.2135C61.2579 22.5201 61.3022 22.5201 61.3466 22.5201C61.3999 22.511 61.4487 22.5156 61.4931 22.5338C61.5197 22.5429 61.5419 22.5565 61.5597 22.5747C61.5863 22.5838 61.6085 22.5974 61.6262 22.6156C61.644 22.6338 61.6617 22.661 61.6795 22.6974C61.715 22.7428 61.7328 22.8065 61.7328 22.8883V31.396C61.7328 31.4596 61.7372 31.5278 61.7461 31.6005C61.755 31.6642 61.755 31.7323 61.7461 31.805Z" fill="#BC0909"/>
<path d="M70.8434 31.9959C70.8346 32.0323 70.8124 32.0641 70.7769 32.0914C70.7502 32.1186 70.728 32.1414 70.7103 32.1595C70.7014 32.1686 70.6925 32.1777 70.6837 32.1868C70.6748 32.1959 70.6615 32.205 70.6437 32.2141C70.626 32.2504 70.6038 32.2913 70.5771 32.3368C70.5505 32.3822 70.5106 32.4004 70.4573 32.3913C70.4218 32.3913 70.404 32.3868 70.404 32.3777C70.3774 32.4049 70.3552 32.4231 70.3375 32.4322C70.302 32.4686 70.262 32.4913 70.2176 32.5004C70.1733 32.5095 70.1244 32.5231 70.0712 32.5413C70.0534 32.5504 70.0357 32.5549 70.0179 32.5549C70.009 32.564 69.9913 32.5777 69.9647 32.5958C69.938 32.6231 69.9203 32.6322 69.9114 32.6231C69.9025 32.5867 69.8981 32.5504 69.8981 32.514C69.8981 32.4777 69.8936 32.4413 69.8848 32.4049C69.8581 32.4413 69.8315 32.4731 69.8049 32.5004C69.7782 32.5367 69.7561 32.5776 69.7383 32.6231C69.7206 32.6595 69.6984 32.6913 69.6717 32.7185C69.6451 32.7458 69.6229 32.7731 69.6051 32.8003C69.5963 32.8185 69.5785 32.8367 69.5519 32.8549C69.5253 32.8821 69.5031 32.9049 69.4853 32.923C69.4764 32.9685 69.4676 33.0185 69.4587 33.073C69.4587 33.1276 69.4543 33.1821 69.4454 33.2366C69.4365 33.2548 69.4276 33.2775 69.4187 33.3048C69.4187 33.3412 69.4099 33.3548 69.3921 33.3457C69.3655 33.3366 69.3477 33.3184 69.3389 33.2912C69.3389 33.2639 69.3389 33.2366 69.3389 33.2094C69.3122 33.1003 69.2945 33.0321 69.2856 33.0049C69.2856 32.9776 69.2812 32.9594 69.2723 32.9503C69.2723 32.9412 69.2501 32.914 69.2057 32.8685C69.1702 32.814 69.1391 32.7731 69.1125 32.7458C69.077 32.7094 69.0459 32.6867 69.0193 32.6776C69.0015 32.8776 68.9927 33.073 68.9927 33.2639C68.9927 33.4639 68.9838 33.6593 68.966 33.8502C68.966 33.8593 68.9572 33.8638 68.9394 33.8638C68.9217 33.8638 68.9128 33.8593 68.9128 33.8502C68.9039 33.6684 68.8995 33.4821 68.8995 33.2912C68.8995 33.1003 68.8906 32.9094 68.8728 32.7185L68.753 32.8412C68.7441 32.9321 68.7352 33.0185 68.7264 33.1003C68.7264 33.1912 68.7175 33.2821 68.6997 33.373C68.6997 33.3821 68.6909 33.373 68.6731 33.3457C68.6642 33.3184 68.6553 33.3003 68.6465 33.2912C68.6376 33.2185 68.6287 33.1457 68.6198 33.073C68.611 33.0003 68.5976 32.9276 68.5799 32.8549C68.5533 32.8458 68.5222 32.814 68.4867 32.7594C68.4601 32.714 68.429 32.664 68.3935 32.6095C68.358 32.564 68.3136 32.5095 68.2603 32.4459C68.2515 32.4459 68.247 32.4413 68.247 32.4322C68.247 32.4322 68.2426 32.4322 68.2337 32.4322C68.2248 32.4322 68.216 32.4368 68.2071 32.4459C68.2071 32.4549 68.1982 32.464 68.1804 32.4731C68.1716 32.4822 68.1583 32.4868 68.1405 32.4868C68.1316 32.4958 68.1272 32.5049 68.1272 32.514C68.1272 32.5231 68.1272 32.5777 68.1272 32.6776C68.1361 32.7776 68.1316 32.8821 68.1139 32.9912C68.105 33.1094 68.0739 33.2003 68.0207 33.2639C68.0118 33.273 67.9985 33.2821 67.9807 33.2912C67.9718 33.3003 67.9674 33.3003 67.9674 33.2912C67.9497 33.1639 67.9541 33.0321 67.9807 32.8958C68.0074 32.7685 67.9852 32.6549 67.9142 32.5549C67.8875 32.5186 67.8742 32.5322 67.8742 32.5958C67.8831 32.6595 67.892 32.7367 67.9008 32.8276C67.9097 32.9276 67.9142 33.0094 67.9142 33.073C67.9142 33.1367 67.8964 33.1548 67.8609 33.1276C67.7721 33.0548 67.7499 32.9503 67.7943 32.814C67.8387 32.6867 67.8431 32.5731 67.8076 32.4731C67.7988 32.4368 67.7943 32.4504 67.7943 32.514C67.8032 32.5867 67.8032 32.6595 67.7943 32.7322C67.7943 32.8049 67.781 32.8276 67.7544 32.8003C67.71 32.7458 67.6967 32.6731 67.7144 32.5822C67.7322 32.5004 67.7322 32.4231 67.7144 32.3504C67.7056 32.3322 67.6967 32.3459 67.6878 32.3913C67.6878 32.4459 67.6789 32.4686 67.6612 32.4595C67.6434 32.4413 67.6345 32.4186 67.6345 32.3913C67.6345 32.364 67.6301 32.3368 67.6212 32.3095C67.6123 32.2913 67.6079 32.2686 67.6079 32.2413C67.6079 32.2232 67.599 32.2095 67.5813 32.2004C67.5813 32.2004 67.568 32.2004 67.5413 32.2004C67.5236 32.1913 67.5058 32.1777 67.4881 32.1595C67.4526 32.1232 67.4215 32.0914 67.3949 32.0641C67.3771 32.0277 67.3594 31.9959 67.3416 31.9687L67.3283 31.955C67.2573 31.855 67.1907 31.7369 67.1286 31.6005L66.1699 29.9644C66.1166 29.8826 66.0767 29.8144 66.05 29.7599L66.0367 29.7463L65.9835 29.7599V31.3415C65.9835 31.4324 65.9879 31.5278 65.9968 31.6278C66.0057 31.7187 66.0012 31.8096 65.9835 31.9005C65.9835 31.9368 65.9702 31.9687 65.9435 31.9959C65.9435 32.0141 65.9347 32.0323 65.9169 32.0505C65.8814 32.105 65.8548 32.1323 65.837 32.1323C65.8193 32.1595 65.8015 32.1823 65.7837 32.2004C65.766 32.2277 65.7482 32.255 65.7305 32.2822C65.7216 32.2913 65.7127 32.305 65.7039 32.3231C65.7039 32.3413 65.695 32.3504 65.6772 32.3504C65.6772 32.3504 65.6728 32.3504 65.6639 32.3504C65.6639 32.3504 65.6639 32.3459 65.6639 32.3368C65.6018 32.4277 65.5263 32.5231 65.4376 32.6231C65.3577 32.7231 65.26 32.7685 65.1446 32.7594C65.0647 32.7594 65.0204 32.7458 65.0115 32.7185C65.0115 32.6913 65.007 32.6322 64.9982 32.5413C64.9627 32.5413 64.9405 32.5504 64.9316 32.5686C64.9227 32.6504 64.9316 32.7503 64.9582 32.8685C64.9848 32.9958 64.9982 33.1048 64.9982 33.1957C65.007 33.2957 64.9671 33.3457 64.8783 33.3457C64.8162 33.3457 64.7851 33.3094 64.7851 33.2366C64.794 33.1639 64.8118 33.0776 64.8384 32.9776C64.865 32.8867 64.8828 32.8003 64.8916 32.7185C64.9005 32.6367 64.8783 32.5822 64.8251 32.5549C64.7984 32.5367 64.7718 32.5277 64.7452 32.5277C64.7363 32.5367 64.7319 32.5458 64.7319 32.5549C64.7319 32.5731 64.7274 32.5913 64.7186 32.6095C64.7186 32.6095 64.7008 32.6004 64.6653 32.5822C64.6564 32.5822 64.6475 32.5777 64.6387 32.5686C64.6387 32.5686 64.6298 32.5686 64.612 32.5686C64.612 32.5686 64.5943 32.5595 64.5588 32.5413C64.5321 32.5322 64.5144 32.5231 64.5055 32.514C64.4966 32.4958 64.4922 32.4731 64.4922 32.4459C64.4744 32.4459 64.4656 32.4459 64.4656 32.4459C64.4478 32.4822 64.4389 32.5186 64.4389 32.5549C64.4389 32.5913 64.4301 32.6231 64.4123 32.6504C64.4123 32.6595 64.3945 32.6458 64.359 32.6095C64.3413 32.6004 64.3235 32.5867 64.3058 32.5686C64.2614 32.5322 64.2259 32.4913 64.1993 32.4459C64.1726 32.4004 64.1416 32.3595 64.1061 32.3231C64.0972 32.3231 64.0839 32.3141 64.0661 32.2959C64.0572 32.305 64.0439 32.305 64.0262 32.2959C64.0173 32.2959 64.004 32.3004 63.9862 32.3095C63.9507 32.3277 63.9152 32.3504 63.8797 32.3777C63.8531 32.4049 63.8176 32.4277 63.7732 32.4459C63.7199 32.4549 63.6667 32.4504 63.6134 32.4322C63.569 32.414 63.5246 32.3868 63.4803 32.3504C63.4714 32.3868 63.4625 32.4231 63.4536 32.4595C63.4536 32.5049 63.4447 32.5458 63.427 32.5822C63.4181 32.5913 63.4048 32.5867 63.3871 32.5686C63.3782 32.5504 63.3693 32.5367 63.3604 32.5277C63.316 32.4822 63.285 32.4322 63.2672 32.3777C63.2583 32.3231 63.245 32.2641 63.2273 32.2004C63.2095 32.2004 63.2006 32.1959 63.2006 32.1868C63.1829 32.1868 63.1696 32.1823 63.1607 32.1732C63.1518 32.1732 63.1429 32.1686 63.1341 32.1595C63.0542 32.1232 63.0009 32.0732 62.9743 32.0096C62.9477 31.9368 62.9343 31.8641 62.9343 31.7914C62.9255 31.746 62.921 31.7051 62.921 31.6687C62.921 31.6323 62.921 31.596 62.921 31.5596C62.9299 31.3506 62.9343 31.1097 62.9343 30.837C62.9343 30.5643 62.9343 30.3235 62.9343 30.1144V22.8883C62.9343 22.7883 62.961 22.711 63.0142 22.6565C63.032 22.6383 63.0453 22.6247 63.0542 22.6156C63.0631 22.6065 63.0719 22.5974 63.0808 22.5883C63.1518 22.5429 63.2273 22.5201 63.3072 22.5201C63.3871 22.511 63.4625 22.511 63.5335 22.5201H64.2792C64.4567 22.5201 64.6342 22.5201 64.8118 22.5201C64.9893 22.5201 65.1624 22.5156 65.331 22.5065C65.3843 22.5065 65.442 22.5065 65.5041 22.5065C65.5663 22.4974 65.6284 22.502 65.6905 22.5201C65.7971 22.5383 65.8814 22.6019 65.9435 22.711C65.9613 22.7474 65.9702 22.7792 65.9702 22.8065C65.9968 22.9064 66.0057 23.0155 65.9968 23.1337C65.9879 23.2428 65.9835 23.3427 65.9835 23.4336V27.3057L66.0234 27.2376C66.0234 27.2285 66.0279 27.2194 66.0367 27.2103C66.0634 27.1649 66.09 27.1194 66.1166 27.074C66.1433 27.0285 66.1699 26.9831 66.1965 26.9376L66.596 26.2832C66.667 26.1377 66.7424 26.0014 66.8223 25.8742C66.9022 25.7469 66.9865 25.6151 67.0753 25.4788C67.1019 25.406 67.1596 25.3197 67.2484 25.2197C67.2662 25.2106 67.2795 25.2015 67.2883 25.1924C67.2972 25.1834 67.3061 25.1743 67.315 25.1652C67.3505 25.147 67.3771 25.1379 67.3949 25.1379C67.4126 25.1288 67.4304 25.1243 67.4481 25.1243C67.4659 25.1152 67.4836 25.1106 67.5014 25.1106C67.599 25.0925 67.6967 25.0879 67.7943 25.097C67.9008 25.1061 67.9985 25.1106 68.0872 25.1106H69.7516C69.8226 25.1106 69.9025 25.1061 69.9913 25.097C70.0801 25.0879 70.1644 25.0925 70.2443 25.1106C70.2709 25.1106 70.302 25.1197 70.3375 25.1379C70.3552 25.1379 70.3863 25.1515 70.4307 25.1788L70.444 25.1924C70.4973 25.247 70.5283 25.297 70.5372 25.3424C70.5638 25.4151 70.5594 25.4924 70.5239 25.5742C70.4973 25.6378 70.4573 25.706 70.404 25.7787C70.3597 25.8423 70.3153 25.9014 70.2709 25.956L70.2176 26.0378L69.6584 26.8422C69.6584 26.8604 69.6495 26.8785 69.6318 26.8967C69.5608 27.024 69.4853 27.1512 69.4054 27.2785C69.3344 27.3966 69.2545 27.5057 69.1658 27.6057C69.1036 27.6784 69.0415 27.7602 68.9793 27.8511C68.9261 27.9329 68.8684 28.0147 68.8062 28.0965L68.753 28.1647C68.753 28.1738 68.7486 28.1783 68.7397 28.1783C68.7397 28.1783 68.7397 28.1829 68.7397 28.192L68.6864 28.342L68.7663 28.4647L69.0859 28.9691C69.1302 29.0509 69.1791 29.1237 69.2323 29.1873C69.3389 29.3054 69.4365 29.4463 69.5253 29.6099C69.543 29.619 69.5563 29.6327 69.5652 29.6508C69.5741 29.669 69.583 29.6872 69.5918 29.7054L69.7117 29.9235C69.7294 29.9599 69.7472 29.9962 69.7649 30.0326C69.7827 30.0599 69.8004 30.0917 69.8182 30.128L70.2975 30.8779C70.3153 30.9052 70.3286 30.9279 70.3375 30.9461C70.3552 30.9552 70.373 30.9779 70.3907 31.0143C70.4085 31.0415 70.4262 31.0688 70.444 31.0961C70.4617 31.1233 70.4795 31.1506 70.4973 31.1779C70.5416 31.2415 70.5816 31.3051 70.6171 31.3687C70.6526 31.4233 70.6881 31.4778 70.7236 31.5324C70.7236 31.5414 70.7236 31.546 70.7236 31.546C70.7325 31.546 70.7369 31.5505 70.7369 31.5596C70.7458 31.5687 70.7547 31.5824 70.7636 31.6005C70.7724 31.6187 70.7813 31.6369 70.7902 31.6551C70.8257 31.6914 70.8523 31.7414 70.8701 31.805C70.879 31.8687 70.8701 31.9323 70.8434 31.9959Z" fill="#BC0909"/>
<path d="M12.4273 0H23.967L28.1834 1.13619L30.8464 2.49961L32.6218 3.86303V4.3175L33.2875 4.54474L35.2848 7.49882L36.1724 10.4529L36.3943 11.5891V17.4973L35.7286 21.3603L34.8409 24.0871L33.7313 26.3595L33.0656 27.2684H32.6218L32.3998 27.9502L30.1807 29.3136L29.293 29.5408H26.4081L24.4108 28.8591L24.8547 32.9494V34.3128L23.7451 34.54L23.5232 34.3128L22.8574 34.9945H13.5369L11.5397 34.3128L11.7616 30.677L11.9835 28.8591L9.98625 29.5408H7.10134L4.88217 28.6319L3.10683 27.0412L1.77534 24.7688L0.66575 21.5875L0 17.7245V11.3619L0.887666 7.9533L2.21917 5.68093L3.9945 3.63579L7.10134 1.59066L9.54242 0.681712L12.4273 0ZM5.54792 19.9969L4.66025 20.9058V22.7237L5.326 24.0871L6.43559 25.2233L7.32325 25.905L9.09859 26.3595L11.0958 26.1323L13.9808 24.7688L15.3123 23.1782V22.2692L9.09859 20.6786L7.10134 19.9969H5.54792ZM29.293 19.9969L23.967 21.5875L21.0821 22.2692L21.304 23.6327L22.6355 24.9961L25.2985 26.1323L27.2958 26.3595L29.293 25.6778L30.4026 24.9961L31.5122 23.4054L31.7341 22.7237V20.9058L30.8464 19.9969H29.293ZM17.9753 25.4505L16.4218 28.8591V29.7681L17.0876 29.9953L18.641 29.7681L19.5287 29.9953L19.9725 29.7681L19.7506 28.4046L18.1972 25.4505H17.9753Z" fill="#FEFEFE"/>
<path d="M52.2644 18.0925C52.2748 18.1773 52.2799 18.2674 52.2799 18.3629C52.2903 18.4583 52.2903 18.5484 52.2799 18.6333C52.2799 18.6651 52.2748 18.6969 52.2644 18.7287C52.2644 18.7605 52.2592 18.7923 52.2489 18.8242C52.2385 18.8348 52.2333 18.8454 52.2333 18.856C52.2333 18.8666 52.2282 18.8772 52.2178 18.8878C52.2075 18.8984 52.2023 18.909 52.2023 18.9196C52.1609 18.9832 52.1039 19.0309 52.0314 19.0628C52.0107 19.1052 51.99 19.1529 51.9693 19.2059C51.9485 19.2589 51.9278 19.3067 51.9071 19.3491C51.8864 19.4127 51.8709 19.4498 51.8605 19.4604C51.8605 19.471 51.8502 19.4657 51.8294 19.4445C51.8191 19.7096 51.8139 20.0172 51.8139 20.3671C51.8139 20.7276 51.8036 21.014 51.7829 21.2261C51.7829 21.3639 51.7984 21.523 51.8294 21.7033C51.8709 21.8835 51.8346 22.0161 51.7207 22.1009C51.6586 22.1539 51.6223 22.1274 51.612 22.0214C51.612 21.9259 51.6223 21.804 51.643 21.6555C51.6638 21.5177 51.6689 21.4063 51.6586 21.3215C51.6482 21.0352 51.643 20.6958 51.643 20.3035C51.643 19.9111 51.6223 19.5612 51.5809 19.2536C51.5706 19.3279 51.5654 19.3968 51.5654 19.4604C51.5654 19.5241 51.555 19.5877 51.5343 19.6513C51.5343 19.6407 51.5136 19.6354 51.4722 19.6354C51.4618 19.6248 51.4359 19.6089 51.3945 19.5877C51.3634 19.5665 51.3479 19.5506 51.3479 19.54C51.3375 19.5081 51.3272 19.4763 51.3168 19.4445C51.3168 19.4127 51.3168 19.3809 51.3168 19.3491C51.2858 19.4021 51.2495 19.4498 51.2081 19.4922C51.177 19.5347 51.1511 19.5665 51.1304 19.5877C51.1097 19.6089 51.0786 19.6301 51.0372 19.6513C51.0269 19.6725 51.0165 19.699 51.0061 19.7308C51.0061 19.7626 50.9958 19.7892 50.9751 19.8104C50.9647 19.8528 50.944 19.8952 50.9129 19.9376C50.8922 19.9906 50.8715 20.0331 50.8508 20.0649C50.8404 20.0755 50.8301 20.0967 50.8197 20.1285C50.8094 20.1709 50.799 20.1868 50.7887 20.1762C50.768 20.102 50.7576 20.0278 50.7576 19.9535C50.7576 19.8899 50.7472 19.8263 50.7265 19.7626C50.7265 19.7414 50.7162 19.7308 50.6955 19.7308C50.6747 19.7308 50.6644 19.7361 50.6644 19.7467C50.6437 19.821 50.6333 19.8952 50.6333 19.9694C50.6333 20.0437 50.623 20.1126 50.6023 20.1762C50.5919 20.1974 50.5815 20.1868 50.5712 20.1444C50.5608 20.102 50.5453 20.0755 50.5246 20.0649C50.5039 20.0012 50.4832 19.9482 50.4624 19.9058C50.4521 19.8634 50.4314 19.8104 50.4003 19.7467C50.3796 19.6937 50.3589 19.646 50.3382 19.6036C50.3278 19.5718 50.3123 19.5453 50.2916 19.5241C50.2812 19.5028 50.2812 19.5028 50.2916 19.5241C50.2916 19.5241 50.2709 19.4975 50.2294 19.4445C50.188 19.3915 50.1518 19.3491 50.1207 19.3173V19.3014C50.1103 19.3014 50.1052 19.3067 50.1052 19.3173C50.0844 19.4445 50.0741 19.5718 50.0741 19.699C50.0741 19.8369 50.0637 19.9694 50.043 20.0967C50.043 20.0967 50.0016 20.0967 49.9188 20.0967C49.8773 20.0967 49.8566 20.0967 49.8566 20.0967C49.8256 19.9164 49.8152 19.7892 49.8255 19.7149C49.8463 19.6513 49.8255 19.5294 49.7634 19.3491C49.6495 19.4339 49.5977 19.5612 49.6081 19.7308C49.6184 19.9005 49.6132 20.0543 49.5925 20.1921C49.5822 20.2451 49.5718 20.3247 49.5615 20.4307C49.5615 20.5368 49.5511 20.5633 49.5304 20.5103C49.4993 20.3618 49.4838 20.2133 49.4838 20.0649C49.4941 19.9164 49.489 19.768 49.4683 19.6195C49.4683 19.6301 49.4476 19.6354 49.4061 19.6354L49.3129 19.5877C49.3129 19.5983 49.3077 19.6036 49.2974 19.6036C49.2974 19.6142 49.2974 19.6248 49.2974 19.6354C49.2974 19.646 49.2818 19.6248 49.2508 19.5718C49.2197 19.5294 49.199 19.5081 49.1886 19.5081L49.1731 19.4922L49.0488 19.4763C49.0385 19.4763 49.0229 19.4657 49.0022 19.4445C48.9919 19.4339 48.9867 19.4339 48.9867 19.4445C48.966 19.6142 48.9556 19.7786 48.9556 19.9376C48.9556 20.0967 48.9401 20.2558 48.909 20.4148C48.909 20.4572 48.8987 20.436 48.878 20.3512C48.8676 20.277 48.8573 20.2186 48.8469 20.1762C48.8365 20.0278 48.8314 19.874 48.8314 19.7149C48.8417 19.5665 48.8262 19.4233 48.7848 19.2855C48.7744 19.2324 48.7744 19.2695 48.7848 19.3968C48.7951 19.524 48.7744 19.6142 48.7226 19.6672C48.7019 19.699 48.6916 19.6778 48.6916 19.6036C48.6916 19.5294 48.6812 19.471 48.6605 19.4286L48.6139 19.2059C48.6035 19.1741 48.5932 19.1423 48.5828 19.1105C48.5828 19.0893 48.5725 19.0681 48.5517 19.0469C48.5103 19.0044 48.4792 18.9673 48.4585 18.9355C48.4275 18.8931 48.4068 18.8507 48.3964 18.8083C48.3964 18.7976 48.3912 18.787 48.3809 18.7764C48.3809 18.7658 48.3809 18.7552 48.3809 18.7446C48.3705 18.5962 48.3653 18.4424 48.3653 18.2833C48.3757 18.1243 48.3809 17.9758 48.3809 17.838V15.4361C48.3809 15.0649 48.3809 14.8687 48.3809 14.8475C48.3809 14.8263 48.3809 14.8634 48.3809 14.9589C48.3809 15.0331 48.3757 15.1126 48.3653 15.1975C48.355 15.2717 48.3394 15.2876 48.3187 15.2452C48.3084 15.2558 48.2928 15.2717 48.2721 15.2929C48.2618 15.3035 48.2411 15.3353 48.21 15.3883C48.1789 15.4308 48.1427 15.4732 48.1013 15.5156C48.0702 15.5474 48.0391 15.5898 48.008 15.6428L47.4022 16.5177C47.3711 16.5495 47.3349 16.5919 47.2935 16.645C47.2624 16.6874 47.221 16.7298 47.1692 16.7722C47.1278 16.8676 47.0967 17.0055 47.076 17.1858C47.0656 17.3555 47.0553 17.4721 47.0449 17.5357C47.0346 17.5781 47.0294 17.6365 47.0294 17.7107C47.0397 17.7743 47.019 17.8167 46.9673 17.838C46.9258 17.8486 46.9051 17.8167 46.9051 17.7425C46.9155 17.6683 46.9155 17.61 46.9051 17.5675C46.8948 17.4297 46.8896 17.2971 46.8896 17.1699C46.8896 17.032 46.8792 16.8942 46.8585 16.7563C46.8274 16.7351 46.7964 16.7033 46.7653 16.6609C46.7653 16.6503 46.7601 16.645 46.7498 16.645L46.6566 16.4859C46.5841 16.3586 46.5168 16.2261 46.4546 16.0882C46.4028 15.9504 46.3355 15.8125 46.2527 15.6747C46.2423 15.6641 46.2268 15.6375 46.2061 15.5951C46.1336 15.4997 46.0507 15.4148 45.9575 15.3406L45.9265 15.3088L45.8799 15.2452C45.8695 15.2452 45.8643 15.2452 45.8643 15.2452C45.8643 15.2452 45.8643 15.2876 45.8643 15.3724V17.822C45.8643 17.9493 45.8643 18.0766 45.8643 18.2038C45.8747 18.3311 45.8799 18.4583 45.8799 18.5856C45.8799 18.628 45.8799 18.6704 45.8799 18.7128C45.8799 18.7446 45.8695 18.7817 45.8488 18.8242C45.8281 18.8666 45.8177 18.8878 45.8177 18.8878C45.8074 18.909 45.7918 18.9302 45.7711 18.9514C45.709 19.015 45.6624 19.0522 45.6313 19.0628C45.6313 19.0628 45.621 19.0734 45.6003 19.0946C45.5692 19.137 45.5536 19.1688 45.5536 19.19C45.5536 19.19 45.5588 19.1847 45.5692 19.1741C45.5795 19.1635 45.5847 19.1635 45.5847 19.1741C45.5951 19.1741 45.5951 19.1794 45.5847 19.19C45.5847 19.2006 45.5795 19.2059 45.5692 19.2059C45.5692 19.2059 45.5588 19.2165 45.5381 19.2377C45.5381 19.2483 45.5278 19.2642 45.507 19.2855C45.4656 19.3279 45.4087 19.3756 45.3362 19.4286C45.274 19.4816 45.2067 19.5028 45.1342 19.4922C45.0307 19.471 44.9789 19.4604 44.9789 19.4604C44.9892 19.4604 45.0151 19.4604 45.0566 19.4604C45.098 19.471 45.1291 19.471 45.1498 19.4604C45.1808 19.4604 45.1549 19.4551 45.0721 19.4445C45.0617 19.4445 45.0514 19.4392 45.041 19.4286C45.0307 19.4286 45.0151 19.4286 44.9944 19.4286C44.9841 19.4286 44.9685 19.4392 44.9478 19.4604C44.9271 19.4922 44.9064 19.5028 44.8857 19.4922L44.7614 19.365C44.7614 19.3226 44.751 19.312 44.7303 19.3332C44.6889 19.3544 44.6837 19.4127 44.7148 19.5081C44.7459 19.6036 44.7355 19.646 44.6837 19.6354C44.632 19.6142 44.6216 19.5453 44.6527 19.4286C44.6941 19.3226 44.6837 19.2748 44.6216 19.2855C44.5905 19.2855 44.5802 19.3173 44.5905 19.3809C44.6009 19.4551 44.6112 19.5187 44.6216 19.5718C44.632 19.6354 44.6164 19.6619 44.575 19.6513C44.5232 19.6301 44.4973 19.5824 44.4973 19.5081C44.5077 19.4339 44.5129 19.3703 44.5129 19.3173C44.4921 19.3173 44.4714 19.3279 44.4507 19.3491C44.3886 19.3915 44.3316 19.4339 44.2798 19.4763C44.2384 19.5294 44.1918 19.5824 44.14 19.6354L43.9536 19.874C43.9433 19.8846 43.9329 19.9058 43.9226 19.9376C43.9122 19.98 43.9018 19.9959 43.8915 19.9853C43.8708 19.8793 43.8604 19.7733 43.8604 19.6672C43.8604 19.5612 43.8501 19.4551 43.8294 19.3491C43.819 19.3597 43.7983 19.365 43.7672 19.365C43.7465 19.3756 43.7258 19.3915 43.7051 19.4127C43.6947 19.4445 43.6844 19.4816 43.674 19.5241C43.674 19.5665 43.6637 19.6036 43.6429 19.6354C43.6326 19.646 43.6222 19.6407 43.6119 19.6195C43.6015 19.5983 43.5912 19.5824 43.5808 19.5718C43.5601 19.5506 43.5342 19.5134 43.5031 19.4604C43.4721 19.4074 43.4358 19.3862 43.3944 19.3968C43.353 19.4074 43.3219 19.4233 43.3012 19.4445C43.2908 19.4763 43.2598 19.4922 43.208 19.4922C43.1355 19.4922 43.0734 19.4657 43.0216 19.4127C42.9802 19.3597 42.9284 19.3173 42.8662 19.2855C42.7938 19.2748 42.7782 19.312 42.8196 19.3968C42.8611 19.4816 42.8455 19.6301 42.773 19.8422C42.7627 19.8528 42.7523 19.8422 42.742 19.8104C42.7316 19.7786 42.7213 19.7573 42.7109 19.7467C42.7005 19.7255 42.6902 19.7043 42.6798 19.6831C42.6695 19.6725 42.6591 19.6566 42.6488 19.6354C42.6073 19.5718 42.5711 19.5028 42.54 19.4286C42.509 19.3544 42.4779 19.2801 42.4468 19.2059L42.2604 19.0946C42.2604 19.0946 42.2397 19.084 42.1983 19.0628C42.1051 19.0097 42.0481 18.9514 42.0274 18.8878C42.0067 18.8348 41.9911 18.7923 41.9808 18.7605C41.9808 18.7181 41.9808 18.681 41.9808 18.6492V8.40534C41.9808 8.28869 42.017 8.19325 42.0895 8.11902C42.0999 8.09781 42.1102 8.08721 42.1206 8.08721C42.131 8.07661 42.1413 8.066 42.1517 8.0554C42.162 8.0554 42.1672 8.0554 42.1672 8.0554C42.1672 8.04479 42.1724 8.03949 42.1827 8.03949C42.2345 8.00768 42.2863 7.99177 42.3381 7.99177C42.3899 7.98117 42.4416 7.97586 42.4934 7.97586H45.0721C45.1239 7.97586 45.1808 7.97586 45.243 7.97586C45.3155 7.96526 45.3828 7.96526 45.4449 7.97586C45.6831 7.97586 45.8177 8.08721 45.8488 8.3099C45.8695 8.40534 45.8747 8.50608 45.8643 8.61213C45.8643 8.71817 45.8643 8.81891 45.8643 8.91435V11.5548L45.9265 11.7457H48.3809V8.91435C48.3809 8.81891 48.3757 8.71817 48.3653 8.61213C48.355 8.49548 48.3653 8.38413 48.3964 8.27809C48.4482 8.07661 48.5828 7.97586 48.8003 7.97586C48.8624 7.96526 48.9246 7.96526 48.9867 7.97586C49.0592 7.97586 49.1213 7.97586 49.1731 7.97586H51.845C51.9071 7.97586 51.9537 7.98647 51.9848 8.00768C52.0159 8.01828 52.0521 8.03419 52.0935 8.0554C52.1867 8.11902 52.2437 8.21446 52.2644 8.34172C52.2851 8.43716 52.2903 8.5379 52.2799 8.64394C52.2696 8.74999 52.2644 8.84542 52.2644 8.93026V18.0925ZM44.7769 19.5718C44.7459 19.5506 44.7407 19.4975 44.7614 19.4127C44.7821 19.4551 44.8132 19.5081 44.8546 19.5718C44.9064 19.646 44.9323 19.6884 44.9323 19.699C44.9323 19.7202 44.8805 19.6778 44.7769 19.5718Z" fill="#BC0909"/>
<path d="M62.6329 14.7203C62.6432 14.8899 62.6432 15.0596 62.6329 15.2293C62.6329 15.3989 62.6277 15.5633 62.6173 15.7224C62.5966 16.0511 62.55 16.3586 62.4775 16.645C62.405 16.9207 62.3015 17.1752 62.1668 17.4085C62.1254 17.4827 62.084 17.5569 62.0426 17.6312C62.0011 17.7054 61.9545 17.7796 61.9028 17.8539C61.851 17.9175 61.794 17.9758 61.7319 18.0288C61.7319 18.0394 61.7267 18.05 61.7164 18.0606C61.6749 18.1243 61.6231 18.1773 61.561 18.2197C61.5507 18.2303 61.5403 18.2409 61.5299 18.2515C61.5196 18.2621 61.504 18.278 61.4833 18.2992C61.473 18.3098 61.4626 18.3205 61.4523 18.3311C61.4419 18.3417 61.4316 18.3523 61.4212 18.3629L61.328 18.5697C61.328 18.6121 61.328 18.6545 61.328 18.6969C61.328 18.7287 61.3228 18.7658 61.3125 18.8083C61.3021 18.8825 61.3021 18.9832 61.3125 19.1105C61.3228 19.2271 61.3021 19.2642 61.2503 19.2218C61.2192 19.19 61.1985 19.1529 61.1882 19.1105C61.1882 19.0575 61.1882 19.0097 61.1882 18.9673C61.1882 18.9885 61.1778 19.0097 61.1571 19.0309C61.1468 19.0628 61.126 19.0946 61.095 19.1264C61.0743 19.1688 61.0432 19.1953 61.0018 19.2059C60.9293 19.2377 60.8671 19.2112 60.8154 19.1264C60.7739 19.0522 60.7429 18.9938 60.7222 18.9514C60.7222 18.9408 60.717 18.9302 60.7066 18.9196C60.6341 19.0575 60.6031 19.2112 60.6134 19.3809C60.6238 19.5612 60.6186 19.7361 60.5979 19.9058C60.5979 19.9482 60.5927 19.9959 60.5823 20.049C60.572 20.1126 60.5616 20.1709 60.5513 20.2239C60.5409 20.2876 60.515 20.3459 60.4736 20.3989C60.4736 20.4307 60.4529 20.4466 60.4115 20.4466C60.3701 20.4254 60.3493 20.3989 60.3493 20.3671C60.3286 20.1868 60.3183 20.0012 60.3183 19.8104C60.3183 19.6195 60.3079 19.4339 60.2872 19.2536C60.2872 19.2536 60.282 19.2483 60.2717 19.2377C60.2717 19.2377 60.2665 19.2377 60.2561 19.2377C60.2251 19.2483 60.194 19.2642 60.1629 19.2855C60.1319 19.3067 60.106 19.3279 60.0853 19.3491C60.0128 19.4233 59.9506 19.5134 59.8988 19.6195C59.8678 19.6831 59.8367 19.7467 59.8056 19.8104C59.7849 19.874 59.759 19.9323 59.728 19.9853C59.7176 19.9959 59.7021 20.0172 59.6814 20.049C59.671 20.0914 59.6658 20.1073 59.6658 20.0967C59.6451 19.98 59.6348 19.8634 59.6348 19.7467C59.6348 19.6301 59.6244 19.5187 59.6037 19.4127C59.6244 19.4127 59.5933 19.4074 59.5105 19.3968C59.438 19.3968 59.4069 19.4021 59.4173 19.4127C59.3966 19.5824 59.3862 19.752 59.3862 19.9217C59.3862 20.0914 59.3759 20.2611 59.3552 20.4307C59.3552 20.4413 59.3344 20.4625 59.293 20.4944C59.2619 20.5262 59.2412 20.5474 59.2309 20.558C59.2205 20.5686 59.205 20.5739 59.1843 20.5739C59.1739 20.5845 59.1687 20.5845 59.1687 20.5739C59.148 20.3936 59.1377 20.208 59.1377 20.0172C59.1377 19.8369 59.1221 19.6566 59.0911 19.4763C59.06 19.4869 59.0341 19.5028 59.0134 19.5241C58.9927 19.5453 58.9823 19.5559 58.9823 19.5559C58.972 19.5665 58.9616 19.5824 58.9513 19.6036C58.9513 19.6354 58.9409 19.6619 58.9202 19.6831C58.9098 19.6831 58.8839 19.6619 58.8425 19.6195C58.8322 19.5983 58.8218 19.5771 58.8115 19.5559C58.8115 19.5347 58.8011 19.5187 58.7804 19.5081C58.7804 19.4975 58.7752 19.4922 58.7649 19.4922C58.7545 19.4816 58.7493 19.4763 58.7493 19.4763C58.7493 19.4869 58.7441 19.4869 58.7338 19.4763H58.6406C58.6406 19.5187 58.6406 19.5612 58.6406 19.6036C58.6406 19.646 58.6302 19.6937 58.6095 19.7467C58.6095 19.7467 58.5681 19.699 58.4852 19.6036C58.4335 19.5506 58.4076 19.5241 58.4076 19.5241C58.4076 19.5347 58.392 19.5347 58.361 19.5241C58.3195 19.5241 58.2988 19.5187 58.2988 19.5081C58.2885 19.6566 58.2781 19.7998 58.2678 19.9376C58.2678 20.0861 58.2574 20.2345 58.2367 20.383C58.2367 20.4042 58.2263 20.3936 58.2056 20.3512C58.1953 20.3088 58.1849 20.277 58.1746 20.2558C58.1642 20.2239 58.1538 20.1921 58.1435 20.1603C58.1331 20.1391 58.1228 20.1126 58.1124 20.0808C58.0814 19.9429 58.0555 19.8051 58.0347 19.6672C58.0244 19.54 58.0089 19.4074 57.9881 19.2695H57.8949C56.4865 19.2377 55.425 18.9037 54.7104 18.2674L54.6172 18.172C54.0062 17.5781 53.6696 16.7616 53.6075 15.7224C53.5764 15.224 53.5764 14.7256 53.6075 14.2272C53.6904 13.0501 54.1253 12.1646 54.9124 11.5708C55.7098 10.9769 56.7972 10.68 58.1746 10.68H58.3144C58.4594 10.68 58.6043 10.6853 58.7493 10.6959C58.8943 10.7065 59.0341 10.7224 59.1687 10.7436C59.1895 10.7436 59.205 10.7489 59.2153 10.7595C60.282 10.9186 61.1364 11.3322 61.7785 12.0002C61.7992 12.0214 61.8251 12.0586 61.8561 12.1116C61.8976 12.154 61.9235 12.1858 61.9338 12.207C62.2238 12.5994 62.4206 13.0395 62.5241 13.5273C62.5241 13.5379 62.5241 13.5485 62.5241 13.5591C62.5345 13.5697 62.5397 13.5803 62.5397 13.5909C62.5811 13.7712 62.607 13.962 62.6173 14.1635C62.6277 14.3544 62.6329 14.54 62.6329 14.7203ZM57.693 16.6131C57.7241 16.6344 57.7603 16.6556 57.8017 16.6768C57.9156 16.7086 58.0037 16.7245 58.0658 16.7245C58.128 16.7245 58.1901 16.7192 58.2522 16.7086H58.3454C58.3869 16.6874 58.4231 16.6715 58.4542 16.6609C58.4956 16.6397 58.5318 16.6184 58.5629 16.5972C58.6458 16.5124 58.6975 16.4117 58.7182 16.295C58.7493 16.1784 58.77 16.067 58.7804 15.961C58.7907 15.8973 58.7959 15.8284 58.7959 15.7542C58.8063 15.68 58.8115 15.6057 58.8115 15.5315C58.8218 15.383 58.827 15.2081 58.827 15.0066C58.827 14.8051 58.8218 14.6248 58.8115 14.4658C58.8115 14.4127 58.8115 14.3597 58.8115 14.3067C58.8115 14.2537 58.8063 14.2059 58.7959 14.1635C58.7959 14.1211 58.7907 14.084 58.7804 14.0522C58.7804 14.0098 58.7804 13.9673 58.7804 13.9249C58.7493 13.6492 58.6768 13.4636 58.5629 13.3682C58.5215 13.3258 58.4904 13.3046 58.4697 13.3046C58.4594 13.294 58.4438 13.2887 58.4231 13.2887C58.4127 13.2887 58.4024 13.2887 58.392 13.2887C58.3817 13.2781 58.3713 13.2781 58.361 13.2887C58.3506 13.2993 58.3403 13.3258 58.3299 13.3682C58.3299 13.4 58.3195 13.4265 58.2988 13.4477C58.2885 13.4689 58.2574 13.4848 58.2056 13.4955C58.1642 13.4955 58.1331 13.4901 58.1124 13.4795C58.0503 13.4689 57.9933 13.4371 57.9415 13.3841H57.8483C57.838 13.3735 57.8276 13.3629 57.8173 13.3523C57.8069 13.3311 57.7914 13.3152 57.7707 13.3046C57.7396 13.3046 57.7085 13.3205 57.6775 13.3523C57.605 13.4159 57.5532 13.5061 57.5221 13.6227C57.4911 13.7287 57.4652 13.856 57.4444 14.0045C57.4341 14.0363 57.4289 14.0787 57.4289 14.1317C57.4289 14.1635 57.4237 14.2006 57.4134 14.2431C57.4134 14.2749 57.4134 14.312 57.4134 14.3544C57.403 14.4392 57.3979 14.54 57.3979 14.6566C57.3979 14.7733 57.3979 14.8899 57.3979 15.0066C57.3979 15.0808 57.3979 15.155 57.3979 15.2293C57.4082 15.2929 57.4134 15.3618 57.4134 15.4361C57.4134 15.5103 57.4134 15.5845 57.4134 15.6587C57.4134 15.733 57.4186 15.7966 57.4289 15.8496C57.4496 16.0405 57.4703 16.189 57.491 16.295C57.5221 16.4011 57.5894 16.5071 57.693 16.6131Z" fill="#BC0909"/>
<path d="M70.9375 13.2409C70.9375 13.3046 70.9375 13.3682 70.9375 13.4318C70.9478 13.4955 70.953 13.5644 70.953 13.6386C70.953 13.681 70.953 13.7234 70.953 13.7659C70.953 13.8083 70.9426 13.8507 70.9219 13.8931C70.8909 13.978 70.8391 14.0469 70.7666 14.0999C70.7666 14.0999 70.7614 14.0999 70.751 14.0999C70.751 14.0999 70.751 14.1052 70.751 14.1158C70.7407 14.1158 70.7303 14.1211 70.72 14.1317C70.72 14.1317 70.7148 14.1317 70.7044 14.1317C70.6527 14.2059 70.6061 14.2802 70.5646 14.3544C70.5232 14.4286 70.4766 14.4976 70.4248 14.5612C70.4145 14.5718 70.4041 14.5877 70.3938 14.6089C70.3834 14.6195 70.3679 14.6301 70.3472 14.6407C70.3368 14.6407 70.3264 14.646 70.3161 14.6566C70.3161 14.6566 70.3109 14.6619 70.3006 14.6725C70.3006 14.6725 70.2954 14.6725 70.285 14.6725C70.2747 14.6831 70.2591 14.7574 70.2384 14.8952C70.2177 15.0331 70.1918 15.1232 70.1607 15.1656C70.1504 15.1762 70.1297 15.1709 70.0986 15.1497C70.0675 15.0861 70.052 15.0172 70.052 14.943C70.0416 14.8899 70.0313 14.8316 70.0209 14.768C70.0209 14.7044 70.0106 14.6407 69.9899 14.5771L69.8967 14.4817C69.8759 14.4605 69.8397 14.4233 69.7879 14.3703C69.7465 14.3173 69.6999 14.2696 69.6481 14.2272L69.6326 14.2112C69.6222 14.2112 69.6171 14.2165 69.6171 14.2272C69.6171 14.2272 69.6119 14.2272 69.6015 14.2272C69.5808 14.2484 69.5549 14.2802 69.5238 14.3226C69.5031 14.3544 69.4721 14.3756 69.4306 14.3862C69.3789 14.3968 69.3374 14.3756 69.3064 14.3226C69.296 14.3332 69.2701 14.3385 69.2287 14.3385C69.1873 14.3385 69.1562 14.3332 69.1355 14.3226L69.0578 14.5135C69.0268 14.5877 68.9905 14.6513 68.9491 14.7044C68.918 14.7574 68.8766 14.8104 68.8248 14.8634C68.7937 14.8952 68.7627 14.9323 68.7316 14.9748C68.7005 15.0066 68.6695 15.0331 68.6384 15.0543C68.597 15.0967 68.5763 15.1073 68.5763 15.0861C68.5555 14.9589 68.5452 14.8581 68.5452 14.7839C68.5555 14.6991 68.5452 14.5877 68.5141 14.4498C68.4934 14.4605 68.4727 14.4764 68.452 14.4976C68.4106 14.5188 68.3899 14.5347 68.3899 14.5453C68.3691 14.6195 68.3536 14.6991 68.3433 14.7839C68.3433 14.8687 68.3329 14.9483 68.3122 15.0225C68.3018 15.0331 68.2863 15.0331 68.2656 15.0225C68.2552 15.0119 68.2449 15.0013 68.2345 14.9907C68.2242 14.9058 68.2138 14.8263 68.2034 14.7521C68.2034 14.6778 68.1931 14.6036 68.1724 14.5294C68.1724 14.5082 68.162 14.4976 68.1413 14.4976C68.131 14.487 68.1206 14.4764 68.1102 14.4658C68.1102 14.4658 68.1051 14.4605 68.0947 14.4498C68.0844 14.4392 68.0688 14.4286 68.0481 14.418C68.0481 14.4711 68.0377 14.5082 68.017 14.5294C68.017 14.5294 67.9911 14.5029 67.9394 14.4498H67.9083C67.8979 14.4498 67.8876 14.4445 67.8772 14.4339C67.8772 14.4127 67.872 14.3968 67.8617 14.3862C67.8513 14.3968 67.841 14.4074 67.8306 14.418C67.8203 14.418 67.8099 14.4233 67.7996 14.4339C67.7788 14.4658 67.7581 14.4976 67.7374 14.5294C67.7167 14.5612 67.696 14.593 67.6753 14.6248C67.6649 14.6354 67.6597 14.6513 67.6597 14.6725C67.6597 14.6831 67.6546 14.6991 67.6442 14.7203C67.6131 14.8157 67.5924 14.9164 67.5821 15.0225C67.5821 15.1285 67.5821 15.2346 67.5821 15.3406V18.4901C67.5821 18.5431 67.5821 18.6015 67.5821 18.6651C67.5924 18.7181 67.5872 18.7711 67.5665 18.8242C67.5665 18.8348 67.5614 18.8454 67.551 18.856C67.551 18.856 67.551 18.8613 67.551 18.8719C67.551 18.8719 67.5406 18.8825 67.5199 18.9037C67.4785 18.9673 67.4423 19.0097 67.4112 19.0309C67.4319 19.0097 67.4216 19.0203 67.3801 19.0628C67.3387 19.0946 67.3128 19.1211 67.3025 19.1423C67.3025 19.1529 67.2973 19.1635 67.2869 19.1741C67.2766 19.1953 67.2662 19.2218 67.2559 19.2536C67.2559 19.2855 67.2403 19.2961 67.2093 19.2855C67.2093 19.2961 67.2041 19.3014 67.1937 19.3014C67.173 19.3438 67.1626 19.3703 67.1626 19.3809C67.1419 19.4021 67.1212 19.4286 67.1005 19.4604C67.0902 19.4922 67.0746 19.5241 67.0539 19.5559C66.9711 19.7043 66.9141 19.7998 66.883 19.8422C66.8623 19.8952 66.8054 19.98 66.7122 20.0967C66.7018 20.1073 66.6863 20.1179 66.6656 20.1285C66.6552 20.1497 66.6397 20.1709 66.619 20.1921C66.6086 20.2027 66.5879 20.2451 66.5568 20.3194C66.5257 20.3936 66.4999 20.436 66.4791 20.4466C66.4688 20.4572 66.4481 20.436 66.417 20.383C66.4067 20.3512 66.4015 20.3141 66.4015 20.2717C66.4015 20.2398 66.3911 20.208 66.3704 20.1762L66.2772 20.0649C66.2358 20.0225 66.1995 19.9694 66.1685 19.9058C66.1063 19.821 66.0546 19.7308 66.0131 19.6354C65.9717 19.54 65.9251 19.4445 65.8733 19.3491C65.8733 19.3385 65.8681 19.3332 65.8578 19.3332C65.8578 19.3332 65.8578 19.3279 65.8578 19.3173C65.8267 19.2855 65.8112 19.2801 65.8112 19.3014C65.7905 19.3862 65.7801 19.4763 65.7801 19.5718C65.7905 19.6672 65.7801 19.7573 65.749 19.8422C65.7387 19.874 65.7283 19.8581 65.718 19.7945C65.7076 19.7308 65.6973 19.6831 65.6869 19.6513L65.5626 19.2855V19.2695C65.5316 19.3014 65.5108 19.3173 65.5005 19.3173C65.4798 19.3173 65.4591 19.3067 65.4384 19.2855C65.4073 19.3597 65.3762 19.4339 65.3452 19.5081C65.3244 19.5824 65.2934 19.6619 65.252 19.7467C65.2416 19.7573 65.2312 19.7733 65.2209 19.7945C65.2209 19.8263 65.2105 19.8528 65.1898 19.874C65.1795 19.8846 65.1691 19.9058 65.1587 19.9376C65.1484 19.98 65.138 19.9906 65.1277 19.9694C65.0966 19.7998 65.0914 19.6884 65.1121 19.6354C65.1329 19.593 65.1018 19.5028 65.0189 19.365C64.9879 19.3862 64.962 19.418 64.9413 19.4604C64.9309 19.5347 64.9205 19.6142 64.9102 19.699C64.9102 19.7839 64.8998 19.8687 64.8791 19.9535C64.8791 19.9641 64.8636 19.9959 64.8325 20.049C64.8118 20.1126 64.7859 20.1497 64.7549 20.1603C64.7031 20.1709 64.6616 20.1338 64.6306 20.049C64.5995 19.9641 64.5788 19.9111 64.5684 19.8899C64.527 19.7945 64.4959 19.6937 64.4752 19.5877C64.4649 19.4922 64.439 19.4021 64.3976 19.3173C64.3769 19.2961 64.3561 19.2748 64.3354 19.2536C64.3147 19.2324 64.294 19.2112 64.2733 19.19C64.2422 19.1688 64.2267 19.1476 64.2267 19.1264C64.206 19.1158 64.1749 19.1105 64.1335 19.1105C64.1231 19.1105 64.1128 19.1105 64.1024 19.1105C64.1024 19.0999 64.0921 19.0946 64.0714 19.0946C63.9885 19.0628 63.9212 19.0097 63.8694 18.9355C63.8487 18.9143 63.828 18.8719 63.8073 18.8083C63.7866 18.734 63.7762 18.6492 63.7762 18.5537C63.7866 18.4583 63.7917 18.3735 63.7917 18.2992V12.5729C63.7917 12.4138 63.7917 12.2388 63.7917 12.048C63.7917 11.8465 63.7866 11.645 63.7762 11.4435C63.7762 11.3905 63.7762 11.3375 63.7762 11.2844C63.7866 11.2208 63.7969 11.1678 63.8073 11.1254C63.8383 11.0299 63.8953 10.9557 63.9781 10.9027C64.0299 10.8815 64.0714 10.8656 64.1024 10.855C64.1335 10.8444 64.1801 10.8391 64.2422 10.8391C64.3147 10.8284 64.3872 10.8284 64.4597 10.8391C64.5322 10.8391 64.5995 10.8391 64.6617 10.8391H66.4636C66.5465 10.8391 66.6345 10.8337 66.7277 10.8231C66.8209 10.8125 66.9089 10.8178 66.9918 10.8391C67.0228 10.8391 67.0487 10.8444 67.0694 10.855C67.173 10.8868 67.2403 10.9451 67.2714 11.0299C67.3232 11.1042 67.3491 11.1837 67.3491 11.2685V11.8253L67.4423 11.7298C67.463 11.7192 67.4785 11.7086 67.4889 11.698C67.4992 11.6874 67.5044 11.6821 67.5044 11.6821C67.5251 11.6609 67.5769 11.6185 67.6597 11.5548C67.753 11.4912 67.8203 11.4488 67.8617 11.4276C67.9238 11.3746 67.986 11.3322 68.0481 11.3003C68.1206 11.2579 68.1879 11.2208 68.25 11.189C68.3329 11.136 68.4209 11.0936 68.5141 11.0617C68.6177 11.0299 68.7212 11.0034 68.8248 10.9822C69.1251 10.8868 69.441 10.8391 69.7724 10.8391H70.0365C70.0882 10.8391 70.1452 10.8391 70.2073 10.8391C70.2695 10.8284 70.3316 10.8231 70.3938 10.8231C70.4663 10.8231 70.5336 10.8284 70.5957 10.8391C70.6682 10.8497 70.7252 10.8762 70.7666 10.9186C70.8287 10.961 70.8753 11.0193 70.9064 11.0936C70.9271 11.1572 70.9375 11.2102 70.9375 11.2526V11.3322C70.9478 11.4064 70.9478 11.4806 70.9375 11.5548C70.9375 11.6185 70.9375 11.6821 70.9375 11.7457V13.2409Z" fill="#BC0909"/>
<path d="M78.9776 13.2409C78.9776 13.3046 78.9776 13.3682 78.9776 13.4318C78.9879 13.4955 78.9931 13.5644 78.9931 13.6386C78.9931 13.681 78.9931 13.7234 78.9931 13.7659C78.9931 13.8083 78.9828 13.8507 78.9621 13.8931C78.931 13.978 78.8792 14.0469 78.8067 14.0999C78.8067 14.0999 78.8015 14.0999 78.7912 14.0999C78.7912 14.0999 78.7912 14.1052 78.7912 14.1158C78.7808 14.1158 78.7705 14.1211 78.7601 14.1317C78.7601 14.1317 78.7549 14.1317 78.7446 14.1317C78.6928 14.2059 78.6462 14.2802 78.6048 14.3544C78.5634 14.4286 78.5167 14.4976 78.465 14.5612C78.4546 14.5718 78.4443 14.5877 78.4339 14.6089C78.4236 14.6195 78.408 14.6301 78.3873 14.6407C78.377 14.6407 78.3666 14.646 78.3562 14.6566C78.3562 14.6566 78.3511 14.6619 78.3407 14.6725C78.3407 14.6725 78.3355 14.6725 78.3252 14.6725C78.3148 14.6831 78.2993 14.7574 78.2786 14.8952C78.2579 15.0331 78.232 15.1232 78.2009 15.1656C78.1905 15.1762 78.1698 15.1709 78.1388 15.1497C78.1077 15.0861 78.0922 15.0172 78.0922 14.943C78.0818 14.8899 78.0714 14.8316 78.0611 14.768C78.0611 14.7044 78.0507 14.6407 78.03 14.5771L77.9368 14.4817C77.9161 14.4605 77.8799 14.4233 77.8281 14.3703C77.7867 14.3173 77.74 14.2696 77.6883 14.2272L77.6727 14.2112C77.6624 14.2112 77.6572 14.2165 77.6572 14.2272C77.6572 14.2272 77.652 14.2272 77.6417 14.2272C77.6209 14.2484 77.5951 14.2802 77.564 14.3226C77.5433 14.3544 77.5122 14.3756 77.4708 14.3862C77.419 14.3968 77.3776 14.3756 77.3465 14.3226C77.3362 14.3332 77.3103 14.3385 77.2688 14.3385C77.2274 14.3385 77.1964 14.3332 77.1756 14.3226L77.098 14.5135C77.0669 14.5877 77.0307 14.6513 76.9892 14.7044C76.9582 14.7574 76.9167 14.8104 76.865 14.8634C76.8339 14.8952 76.8028 14.9323 76.7718 14.9748C76.7407 15.0066 76.7096 15.0331 76.6785 15.0543C76.6371 15.0967 76.6164 15.1073 76.6164 15.0861C76.5957 14.9589 76.5853 14.8581 76.5853 14.7839C76.5957 14.6991 76.5853 14.5877 76.5543 14.4498C76.5336 14.4605 76.5128 14.4764 76.4921 14.4976C76.4507 14.5188 76.43 14.5347 76.43 14.5453C76.4093 14.6195 76.3938 14.6991 76.3834 14.7839C76.3834 14.8687 76.373 14.9483 76.3523 15.0225C76.342 15.0331 76.3264 15.0331 76.3057 15.0225C76.2954 15.0119 76.285 15.0013 76.2747 14.9907C76.2643 14.9058 76.254 14.8263 76.2436 14.7521C76.2436 14.6778 76.2332 14.6036 76.2125 14.5294C76.2125 14.5082 76.2022 14.4976 76.1814 14.4976C76.1711 14.487 76.1607 14.4764 76.1504 14.4658C76.1504 14.4658 76.1452 14.4605 76.1348 14.4498C76.1245 14.4392 76.109 14.4286 76.0882 14.418C76.0882 14.4711 76.0779 14.5082 76.0572 14.5294C76.0572 14.5294 76.0313 14.5029 75.9795 14.4498H75.9484C75.9381 14.4498 75.9277 14.4445 75.9174 14.4339C75.9174 14.4127 75.9122 14.3968 75.9018 14.3862C75.8915 14.3968 75.8811 14.4074 75.8708 14.418C75.8604 14.418 75.8501 14.4233 75.8397 14.4339C75.819 14.4658 75.7983 14.4976 75.7776 14.5294C75.7568 14.5612 75.7361 14.593 75.7154 14.6248C75.7051 14.6354 75.6999 14.6513 75.6999 14.6725C75.6999 14.6831 75.6947 14.6991 75.6844 14.7203C75.6533 14.8157 75.6326 14.9164 75.6222 15.0225C75.6222 15.1285 75.6222 15.2346 75.6222 15.3406V18.4901C75.6222 18.5431 75.6222 18.6015 75.6222 18.6651C75.6326 18.7181 75.6274 18.7711 75.6067 18.8242C75.6067 18.8348 75.6015 18.8454 75.5912 18.856C75.5912 18.856 75.5912 18.8613 75.5912 18.8719C75.5912 18.8719 75.5808 18.8825 75.5601 18.9037C75.5187 18.9673 75.4824 19.0097 75.4513 19.0309C75.4721 19.0097 75.4617 19.0203 75.4203 19.0628C75.3789 19.0946 75.353 19.1211 75.3426 19.1423C75.3426 19.1529 75.3374 19.1635 75.3271 19.1741C75.3167 19.1953 75.3064 19.2218 75.296 19.2536C75.296 19.2855 75.2805 19.2961 75.2494 19.2855C75.2494 19.2961 75.2442 19.3014 75.2339 19.3014C75.2132 19.3438 75.2028 19.3703 75.2028 19.3809C75.1821 19.4021 75.1614 19.4286 75.1407 19.4604C75.1303 19.4922 75.1148 19.5241 75.0941 19.5559C75.0112 19.7043 74.9542 19.7998 74.9232 19.8422C74.9025 19.8952 74.8455 19.98 74.7523 20.0967C74.742 20.1073 74.7264 20.1179 74.7057 20.1285C74.6954 20.1497 74.6798 20.1709 74.6591 20.1921C74.6487 20.2027 74.628 20.2451 74.597 20.3194C74.5659 20.3936 74.54 20.436 74.5193 20.4466C74.5089 20.4572 74.4882 20.436 74.4572 20.383C74.4468 20.3512 74.4416 20.3141 74.4416 20.2717C74.4416 20.2398 74.4313 20.208 74.4106 20.1762L74.3173 20.0649C74.2759 20.0225 74.2397 19.9694 74.2086 19.9058C74.1465 19.821 74.0947 19.7308 74.0533 19.6354C74.0118 19.54 73.9652 19.4445 73.9135 19.3491C73.9135 19.3385 73.9083 19.3332 73.8979 19.3332C73.8979 19.3332 73.8979 19.3279 73.8979 19.3173C73.8669 19.2855 73.8513 19.2801 73.8513 19.3014C73.8306 19.3862 73.8203 19.4763 73.8203 19.5718C73.8306 19.6672 73.8203 19.7573 73.7892 19.8422C73.7788 19.874 73.7685 19.8581 73.7581 19.7945C73.7478 19.7308 73.7374 19.6831 73.7271 19.6513L73.6028 19.2855V19.2695C73.5717 19.3014 73.551 19.3173 73.5406 19.3173C73.5199 19.3173 73.4992 19.3067 73.4785 19.2855C73.4474 19.3597 73.4164 19.4339 73.3853 19.5081C73.3646 19.5824 73.3335 19.6619 73.2921 19.7467C73.2817 19.7573 73.2714 19.7733 73.261 19.7945C73.261 19.8263 73.2507 19.8528 73.23 19.874C73.2196 19.8846 73.2093 19.9058 73.1989 19.9376C73.1885 19.98 73.1782 19.9906 73.1678 19.9694C73.1368 19.7998 73.1316 19.6884 73.1523 19.6354C73.173 19.593 73.1419 19.5028 73.0591 19.365C73.028 19.3862 73.0021 19.418 72.9814 19.4604C72.9711 19.5347 72.9607 19.6142 72.9503 19.699C72.9503 19.7839 72.94 19.8687 72.9193 19.9535C72.9193 19.9641 72.9037 19.9959 72.8727 20.049C72.852 20.1126 72.8261 20.1497 72.795 20.1603C72.7432 20.1709 72.7018 20.1338 72.6707 20.049C72.6397 19.9641 72.6189 19.9111 72.6086 19.8899C72.5672 19.7945 72.5361 19.6937 72.5154 19.5877C72.505 19.4922 72.4791 19.4021 72.4377 19.3173C72.417 19.2961 72.3963 19.2748 72.3756 19.2536C72.3549 19.2324 72.3342 19.2112 72.3134 19.19C72.2824 19.1688 72.2668 19.1476 72.2668 19.1264C72.2461 19.1158 72.2151 19.1105 72.1736 19.1105C72.1633 19.1105 72.1529 19.1105 72.1426 19.1105C72.1426 19.0999 72.1322 19.0946 72.1115 19.0946C72.0286 19.0628 71.9613 19.0097 71.9096 18.9355C71.8888 18.9143 71.8681 18.8719 71.8474 18.8083C71.8267 18.734 71.8163 18.6492 71.8163 18.5537C71.8267 18.4583 71.8319 18.3735 71.8319 18.2992V12.5729C71.8319 12.4138 71.8319 12.2388 71.8319 12.048C71.8319 11.8465 71.8267 11.645 71.8163 11.4435C71.8163 11.3905 71.8163 11.3375 71.8163 11.2844C71.8267 11.2208 71.8371 11.1678 71.8474 11.1254C71.8785 11.0299 71.9354 10.9557 72.0183 10.9027C72.0701 10.8815 72.1115 10.8656 72.1426 10.855C72.1736 10.8444 72.2202 10.8391 72.2824 10.8391C72.3549 10.8284 72.4274 10.8284 72.4999 10.8391C72.5723 10.8391 72.6397 10.8391 72.7018 10.8391H74.5038C74.5866 10.8391 74.6746 10.8337 74.7678 10.8231C74.861 10.8125 74.9491 10.8178 75.0319 10.8391C75.063 10.8391 75.0889 10.8444 75.1096 10.855C75.2132 10.8868 75.2805 10.9451 75.3115 11.0299C75.3633 11.1042 75.3892 11.1837 75.3892 11.2685V11.8253L75.4824 11.7298C75.5031 11.7192 75.5187 11.7086 75.529 11.698C75.5394 11.6874 75.5445 11.6821 75.5445 11.6821C75.5653 11.6609 75.617 11.6185 75.6999 11.5548C75.7931 11.4912 75.8604 11.4488 75.9018 11.4276C75.964 11.3746 76.0261 11.3322 76.0882 11.3003C76.1607 11.2579 76.2281 11.2208 76.2902 11.189C76.373 11.136 76.4611 11.0936 76.5543 11.0617C76.6578 11.0299 76.7614 11.0034 76.865 10.9822C77.1653 10.8868 77.4811 10.8391 77.8125 10.8391H78.0766C78.1284 10.8391 78.1854 10.8391 78.2475 10.8391C78.3096 10.8284 78.3718 10.8231 78.4339 10.8231C78.5064 10.8231 78.5737 10.8284 78.6358 10.8391C78.7083 10.8497 78.7653 10.8762 78.8067 10.9186C78.8688 10.961 78.9155 11.0193 78.9465 11.0936C78.9672 11.1572 78.9776 11.2102 78.9776 11.2526V11.3322C78.9879 11.4064 78.9879 11.4806 78.9776 11.5548C78.9776 11.6185 78.9776 11.6821 78.9776 11.7457V13.2409Z" fill="#BC0909"/>
<path d="M88.6799 14.7203C88.6903 14.8899 88.6903 15.0596 88.6799 15.2293C88.6799 15.3989 88.6747 15.5633 88.6643 15.7224C88.6436 16.0511 88.597 16.3586 88.5245 16.645C88.452 16.9207 88.3485 17.1752 88.2139 17.4085C88.1724 17.4827 88.131 17.5569 88.0896 17.6312C88.0482 17.7054 88.0015 17.7796 87.9498 17.8539C87.898 17.9175 87.841 17.9758 87.7789 18.0288C87.7789 18.0394 87.7737 18.05 87.7634 18.0606C87.722 18.1243 87.6702 18.1773 87.608 18.2197C87.5977 18.2303 87.5873 18.2409 87.577 18.2515C87.5666 18.2621 87.5511 18.278 87.5303 18.2992C87.52 18.3098 87.5096 18.3205 87.4993 18.3311C87.4889 18.3417 87.4786 18.3523 87.4682 18.3629L87.375 18.5697C87.375 18.6121 87.375 18.6545 87.375 18.6969C87.375 18.7287 87.3698 18.7658 87.3595 18.8083C87.3491 18.8825 87.3491 18.9832 87.3595 19.1105C87.3698 19.2271 87.3491 19.2642 87.2973 19.2218C87.2663 19.19 87.2456 19.1529 87.2352 19.1105C87.2352 19.0575 87.2352 19.0097 87.2352 18.9673C87.2352 18.9885 87.2248 19.0097 87.2041 19.0309C87.1938 19.0628 87.1731 19.0946 87.142 19.1264C87.1213 19.1688 87.0902 19.1953 87.0488 19.2059C86.9763 19.2377 86.9142 19.2112 86.8624 19.1264C86.821 19.0522 86.7899 18.9938 86.7692 18.9514C86.7692 18.9408 86.764 18.9302 86.7537 18.9196C86.6812 19.0575 86.6501 19.2112 86.6604 19.3809C86.6708 19.5612 86.6656 19.7361 86.6449 19.9058C86.6449 19.9482 86.6397 19.9959 86.6294 20.049C86.619 20.1126 86.6087 20.1709 86.5983 20.2239C86.588 20.2876 86.5621 20.3459 86.5206 20.3989C86.5206 20.4307 86.4999 20.4466 86.4585 20.4466C86.4171 20.4254 86.3964 20.3989 86.3964 20.3671C86.3756 20.1868 86.3653 20.0012 86.3653 19.8104C86.3653 19.6195 86.3549 19.4339 86.3342 19.2536C86.3342 19.2536 86.329 19.2483 86.3187 19.2377C86.3187 19.2377 86.3135 19.2377 86.3032 19.2377C86.2721 19.2483 86.241 19.2642 86.2099 19.2855C86.1789 19.3067 86.153 19.3279 86.1323 19.3491C86.0598 19.4233 85.9977 19.5134 85.9459 19.6195C85.9148 19.6831 85.8837 19.7467 85.8527 19.8104C85.832 19.874 85.8061 19.9323 85.775 19.9853C85.7646 19.9959 85.7491 20.0172 85.7284 20.049C85.718 20.0914 85.7129 20.1073 85.7129 20.0967C85.6921 19.98 85.6818 19.8634 85.6818 19.7467C85.6818 19.6301 85.6714 19.5187 85.6507 19.4127C85.6714 19.4127 85.6404 19.4074 85.5575 19.3968C85.485 19.3968 85.454 19.4021 85.4643 19.4127C85.4436 19.5824 85.4333 19.752 85.4333 19.9217C85.4333 20.0914 85.4229 20.2611 85.4022 20.4307C85.4022 20.4413 85.3815 20.4625 85.34 20.4944C85.309 20.5262 85.2883 20.5474 85.2779 20.558C85.2675 20.5686 85.252 20.5739 85.2313 20.5739C85.2209 20.5845 85.2158 20.5845 85.2158 20.5739C85.195 20.3936 85.1847 20.208 85.1847 20.0172C85.1847 19.8369 85.1692 19.6566 85.1381 19.4763C85.107 19.4869 85.0811 19.5028 85.0604 19.5241C85.0397 19.5453 85.0293 19.5559 85.0293 19.5559C85.019 19.5665 85.0086 19.5824 84.9983 19.6036C84.9983 19.6354 84.9879 19.6619 84.9672 19.6831C84.9569 19.6831 84.931 19.6619 84.8895 19.6195C84.8792 19.5983 84.8688 19.5771 84.8585 19.5559C84.8585 19.5347 84.8481 19.5187 84.8274 19.5081C84.8274 19.4975 84.8222 19.4922 84.8119 19.4922C84.8015 19.4816 84.7963 19.4763 84.7963 19.4763C84.7963 19.4869 84.7912 19.4869 84.7808 19.4763H84.6876C84.6876 19.5187 84.6876 19.5612 84.6876 19.6036C84.6876 19.646 84.6772 19.6937 84.6565 19.7467C84.6565 19.7467 84.6151 19.699 84.5323 19.6036C84.4805 19.5506 84.4546 19.5241 84.4546 19.5241C84.4546 19.5347 84.4391 19.5347 84.408 19.5241C84.3666 19.5241 84.3458 19.5187 84.3458 19.5081C84.3355 19.6566 84.3251 19.7998 84.3148 19.9376C84.3148 20.0861 84.3044 20.2345 84.2837 20.383C84.2837 20.4042 84.2734 20.3936 84.2526 20.3512C84.2423 20.3088 84.2319 20.277 84.2216 20.2558C84.2112 20.2239 84.2009 20.1921 84.1905 20.1603C84.1801 20.1391 84.1698 20.1126 84.1594 20.0808C84.1284 19.9429 84.1025 19.8051 84.0818 19.6672C84.0714 19.54 84.0559 19.4074 84.0352 19.2695H83.942C82.5335 19.2377 81.472 18.9037 80.7575 18.2674L80.6643 18.172C80.0533 17.5781 79.7167 16.7616 79.6545 15.7224C79.6235 15.224 79.6235 14.7256 79.6545 14.2272C79.7374 13.0501 80.1723 12.1646 80.9594 11.5708C81.7568 10.9769 82.8442 10.68 84.2216 10.68H84.3614C84.5064 10.68 84.6514 10.6853 84.7963 10.6959C84.9413 10.7065 85.0811 10.7224 85.2158 10.7436C85.2365 10.7436 85.252 10.7489 85.2624 10.7595C86.329 10.9186 87.1834 11.3322 87.8255 12.0002C87.8462 12.0214 87.8721 12.0586 87.9032 12.1116C87.9446 12.154 87.9705 12.1858 87.9809 12.207C88.2708 12.5994 88.4676 13.0395 88.5711 13.5273C88.5711 13.5379 88.5711 13.5485 88.5711 13.5591C88.5815 13.5697 88.5867 13.5803 88.5867 13.5909C88.6281 13.7712 88.654 13.962 88.6643 14.1635C88.6747 14.3544 88.6799 14.54 88.6799 14.7203ZM83.74 16.6131C83.7711 16.6344 83.8073 16.6556 83.8488 16.6768C83.9627 16.7086 84.0507 16.7245 84.1128 16.7245C84.175 16.7245 84.2371 16.7192 84.2992 16.7086H84.3924C84.4339 16.6874 84.4701 16.6715 84.5012 16.6609C84.5426 16.6397 84.5789 16.6184 84.6099 16.5972C84.6928 16.5124 84.7446 16.4117 84.7653 16.295C84.7963 16.1784 84.8171 16.067 84.8274 15.961C84.8378 15.8973 84.8429 15.8284 84.8429 15.7542C84.8533 15.68 84.8585 15.6057 84.8585 15.5315C84.8688 15.383 84.874 15.2081 84.874 15.0066C84.874 14.8051 84.8688 14.6248 84.8585 14.4658C84.8585 14.4127 84.8585 14.3597 84.8585 14.3067C84.8585 14.2537 84.8533 14.2059 84.8429 14.1635C84.8429 14.1211 84.8378 14.084 84.8274 14.0522C84.8274 14.0098 84.8274 13.9673 84.8274 13.9249C84.7963 13.6492 84.7238 13.4636 84.6099 13.3682C84.5685 13.3258 84.5374 13.3046 84.5167 13.3046C84.5064 13.294 84.4908 13.2887 84.4701 13.2887C84.4598 13.2887 84.4494 13.2887 84.4391 13.2887C84.4287 13.2781 84.4184 13.2781 84.408 13.2887C84.3976 13.2993 84.3873 13.3258 84.3769 13.3682C84.3769 13.4 84.3666 13.4265 84.3458 13.4477C84.3355 13.4689 84.3044 13.4848 84.2526 13.4955C84.2112 13.4955 84.1802 13.4901 84.1594 13.4795C84.0973 13.4689 84.0403 13.4371 83.9886 13.3841H83.8953C83.885 13.3735 83.8746 13.3629 83.8643 13.3523C83.8539 13.3311 83.8384 13.3152 83.8177 13.3046C83.7866 13.3046 83.7556 13.3205 83.7245 13.3523C83.652 13.4159 83.6002 13.5061 83.5692 13.6227C83.5381 13.7287 83.5122 13.856 83.4915 14.0045C83.4811 14.0363 83.4759 14.0787 83.4759 14.1317C83.4759 14.1635 83.4708 14.2006 83.4604 14.2431C83.4604 14.2749 83.4604 14.312 83.4604 14.3544C83.45 14.4392 83.4449 14.54 83.4449 14.6566C83.4449 14.7733 83.4449 14.8899 83.4449 15.0066C83.4449 15.0808 83.4449 15.155 83.4449 15.2293C83.4552 15.2929 83.4604 15.3618 83.4604 15.4361C83.4604 15.5103 83.4604 15.5845 83.4604 15.6587C83.4604 15.733 83.4656 15.7966 83.4759 15.8496C83.4966 16.0405 83.5174 16.189 83.5381 16.295C83.5691 16.4011 83.6365 16.5071 83.74 16.6131Z" fill="#BC0909"/>
<path d="M96.9845 13.2409C96.9845 13.3046 96.9845 13.3682 96.9845 13.4318C96.9948 13.4955 97 13.5644 97 13.6386C97 13.681 97 13.7234 97 13.7659C97 13.8083 96.9897 13.8507 96.9689 13.8931C96.9379 13.978 96.8861 14.0469 96.8136 14.0999C96.8136 14.0999 96.8084 14.0999 96.7981 14.0999C96.7981 14.0999 96.7981 14.1052 96.7981 14.1158C96.7877 14.1158 96.7774 14.1211 96.767 14.1317C96.767 14.1317 96.7618 14.1317 96.7515 14.1317C96.6997 14.2059 96.6531 14.2802 96.6117 14.3544C96.5702 14.4286 96.5236 14.4976 96.4719 14.5612C96.4615 14.5718 96.4511 14.5877 96.4408 14.6089C96.4304 14.6195 96.4149 14.6301 96.3942 14.6407C96.3838 14.6407 96.3735 14.646 96.3631 14.6566C96.3631 14.6566 96.3579 14.6619 96.3476 14.6725C96.3476 14.6725 96.3424 14.6725 96.332 14.6725C96.3217 14.6831 96.3061 14.7574 96.2854 14.8952C96.2647 15.0331 96.2388 15.1232 96.2078 15.1656C96.1974 15.1762 96.1767 15.1709 96.1456 15.1497C96.1146 15.0861 96.099 15.0172 96.099 14.943C96.0887 14.8899 96.0783 14.8316 96.068 14.768C96.068 14.7044 96.0576 14.6407 96.0369 14.5771L95.9437 14.4817C95.923 14.4605 95.8867 14.4233 95.8349 14.3703C95.7935 14.3173 95.7469 14.2696 95.6951 14.2272L95.6796 14.2112C95.6692 14.2112 95.6641 14.2165 95.6641 14.2272C95.6641 14.2272 95.6589 14.2272 95.6485 14.2272C95.6278 14.2484 95.6019 14.2802 95.5709 14.3226C95.5502 14.3544 95.5191 14.3756 95.4777 14.3862C95.4259 14.3968 95.3845 14.3756 95.3534 14.3226C95.343 14.3332 95.3171 14.3385 95.2757 14.3385C95.2343 14.3385 95.2032 14.3332 95.1825 14.3226L95.1048 14.5135C95.0738 14.5877 95.0375 14.6513 94.9961 14.7044C94.965 14.7574 94.9236 14.8104 94.8718 14.8634C94.8408 14.8952 94.8097 14.9323 94.7786 14.9748C94.7476 15.0066 94.7165 15.0331 94.6854 15.0543C94.644 15.0967 94.6233 15.1073 94.6233 15.0861C94.6026 14.9589 94.5922 14.8581 94.5922 14.7839C94.6026 14.6991 94.5922 14.5877 94.5611 14.4498C94.5404 14.4605 94.5197 14.4764 94.499 14.4976C94.4576 14.5188 94.4369 14.5347 94.4369 14.5453C94.4162 14.6195 94.4006 14.6991 94.3903 14.7839C94.3903 14.8687 94.3799 14.9483 94.3592 15.0225C94.3488 15.0331 94.3333 15.0331 94.3126 15.0225C94.3022 15.0119 94.2919 15.0013 94.2815 14.9907C94.2712 14.9058 94.2608 14.8263 94.2505 14.7521C94.2505 14.6778 94.2401 14.6036 94.2194 14.5294C94.2194 14.5082 94.209 14.4976 94.1883 14.4976C94.178 14.487 94.1676 14.4764 94.1572 14.4658C94.1572 14.4658 94.1521 14.4605 94.1417 14.4498C94.1314 14.4392 94.1158 14.4286 94.0951 14.418C94.0951 14.4711 94.0848 14.5082 94.064 14.5294C94.064 14.5294 94.0381 14.5029 93.9864 14.4498H93.9553C93.945 14.4498 93.9346 14.4445 93.9242 14.4339C93.9242 14.4127 93.9191 14.3968 93.9087 14.3862C93.8983 14.3968 93.888 14.4074 93.8776 14.418C93.8673 14.418 93.8569 14.4233 93.8466 14.4339C93.8259 14.4658 93.8051 14.4976 93.7844 14.5294C93.7637 14.5612 93.743 14.593 93.7223 14.6248C93.7119 14.6354 93.7067 14.6513 93.7067 14.6725C93.7067 14.6831 93.7016 14.6991 93.6912 14.7203C93.6601 14.8157 93.6395 14.9164 93.6291 15.0225C93.6291 15.1285 93.6291 15.2346 93.6291 15.3406V18.4901C93.6291 18.5431 93.6291 18.6015 93.6291 18.6651C93.6395 18.7181 93.6343 18.7711 93.6136 18.8242C93.6136 18.8348 93.6084 18.8454 93.598 18.856C93.598 18.856 93.598 18.8613 93.598 18.8719C93.598 18.8719 93.5877 18.8825 93.5669 18.9037C93.5255 18.9673 93.4893 19.0097 93.4582 19.0309C93.4789 19.0097 93.4686 19.0203 93.4271 19.0628C93.3857 19.0946 93.3598 19.1211 93.3495 19.1423C93.3495 19.1529 93.3443 19.1635 93.3339 19.1741C93.3236 19.1953 93.3132 19.2218 93.3029 19.2536C93.3029 19.2855 93.2873 19.2961 93.2563 19.2855C93.2563 19.2961 93.2511 19.3014 93.2407 19.3014C93.22 19.3438 93.2097 19.3703 93.2097 19.3809C93.189 19.4021 93.1682 19.4286 93.1475 19.4604C93.1372 19.4922 93.1217 19.5241 93.1009 19.5559C93.0181 19.7043 92.9611 19.7998 92.9301 19.8422C92.9093 19.8952 92.8524 19.98 92.7592 20.0967C92.7488 20.1073 92.7333 20.1179 92.7126 20.1285C92.7022 20.1497 92.6867 20.1709 92.666 20.1921C92.6556 20.2027 92.6349 20.2451 92.6038 20.3194C92.5728 20.3936 92.5469 20.436 92.5262 20.4466C92.5158 20.4572 92.4951 20.436 92.464 20.383C92.4537 20.3512 92.4485 20.3141 92.4485 20.2717C92.4485 20.2398 92.4381 20.208 92.4174 20.1762L92.3242 20.0649C92.2828 20.0225 92.2466 19.9694 92.2155 19.9058C92.1534 19.821 92.1016 19.7308 92.0601 19.6354C92.0187 19.54 91.9721 19.4445 91.9203 19.3491C91.9203 19.3385 91.9152 19.3332 91.9048 19.3332C91.9048 19.3332 91.9048 19.3279 91.9048 19.3173C91.8737 19.2855 91.8582 19.2801 91.8582 19.3014C91.8375 19.3862 91.8271 19.4763 91.8271 19.5718C91.8375 19.6672 91.8271 19.7573 91.7961 19.8422C91.7857 19.874 91.7753 19.8581 91.765 19.7945C91.7546 19.7308 91.7443 19.6831 91.7339 19.6513L91.6096 19.2855V19.2695C91.5786 19.3014 91.5579 19.3173 91.5475 19.3173C91.5268 19.3173 91.5061 19.3067 91.4854 19.2855C91.4543 19.3597 91.4232 19.4339 91.3922 19.5081C91.3715 19.5824 91.3404 19.6619 91.299 19.7467C91.2886 19.7573 91.2783 19.7733 91.2679 19.7945C91.2679 19.8263 91.2575 19.8528 91.2368 19.874C91.2265 19.8846 91.2161 19.9058 91.2058 19.9376C91.1954 19.98 91.1851 19.9906 91.1747 19.9694C91.1436 19.7998 91.1384 19.6884 91.1591 19.6354C91.1799 19.593 91.1488 19.5028 91.0659 19.365C91.0349 19.3862 91.009 19.418 90.9883 19.4604C90.9779 19.5347 90.9676 19.6142 90.9572 19.699C90.9572 19.7839 90.9469 19.8687 90.9261 19.9535C90.9261 19.9641 90.9106 19.9959 90.8795 20.049C90.8588 20.1126 90.8329 20.1497 90.8019 20.1603C90.7501 20.1709 90.7087 20.1338 90.6776 20.049C90.6465 19.9641 90.6258 19.9111 90.6155 19.8899C90.574 19.7945 90.543 19.6937 90.5222 19.5877C90.5119 19.4922 90.486 19.4021 90.4446 19.3173C90.4239 19.2961 90.4032 19.2748 90.3825 19.2536C90.3617 19.2324 90.341 19.2112 90.3203 19.19C90.2892 19.1688 90.2737 19.1476 90.2737 19.1264C90.253 19.1158 90.2219 19.1105 90.1805 19.1105C90.1702 19.1105 90.1598 19.1105 90.1494 19.1105C90.1494 19.0999 90.1391 19.0946 90.1184 19.0946C90.0355 19.0628 89.9682 19.0097 89.9164 18.9355C89.8957 18.9143 89.875 18.8719 89.8543 18.8083C89.8336 18.734 89.8232 18.6492 89.8232 18.5537C89.8336 18.4583 89.8387 18.3735 89.8387 18.2992V12.5729C89.8387 12.4138 89.8387 12.2388 89.8387 12.048C89.8387 11.8465 89.8336 11.645 89.8232 11.4435C89.8232 11.3905 89.8232 11.3375 89.8232 11.2844C89.8336 11.2208 89.8439 11.1678 89.8543 11.1254C89.8853 11.0299 89.9423 10.9557 90.0252 10.9027C90.0769 10.8815 90.1184 10.8656 90.1494 10.855C90.1805 10.8444 90.2271 10.8391 90.2892 10.8391C90.3617 10.8284 90.4342 10.8284 90.5067 10.8391C90.5792 10.8391 90.6465 10.8391 90.7087 10.8391H92.5106C92.5935 10.8391 92.6815 10.8337 92.7747 10.8231C92.8679 10.8125 92.9559 10.8178 93.0388 10.8391C93.0699 10.8391 93.0958 10.8444 93.1165 10.855C93.22 10.8868 93.2873 10.9451 93.3184 11.0299C93.3702 11.1042 93.3961 11.1837 93.3961 11.2685V11.8253L93.4893 11.7298C93.51 11.7192 93.5255 11.7086 93.5359 11.698C93.5462 11.6874 93.5514 11.6821 93.5514 11.6821C93.5721 11.6609 93.6239 11.6185 93.7067 11.5548C93.8 11.4912 93.8673 11.4488 93.9087 11.4276C93.9708 11.3746 94.033 11.3322 94.0951 11.3003C94.1676 11.2579 94.2349 11.2208 94.2971 11.189C94.3799 11.136 94.4679 11.0936 94.5611 11.0617C94.6647 11.0299 94.7683 11.0034 94.8718 10.9822C95.1721 10.8868 95.488 10.8391 95.8194 10.8391H96.0835C96.1353 10.8391 96.1922 10.8391 96.2544 10.8391C96.3165 10.8284 96.3786 10.8231 96.4408 10.8231C96.5133 10.8231 96.5806 10.8284 96.6427 10.8391C96.7152 10.8497 96.7722 10.8762 96.8136 10.9186C96.8757 10.961 96.9223 11.0193 96.9534 11.0936C96.9741 11.1572 96.9845 11.2102 96.9845 11.2526V11.3322C96.9948 11.4064 96.9948 11.4806 96.9845 11.5548C96.9845 11.6185 96.9845 11.6821 96.9845 11.7457V13.2409Z" fill="#BC0909"/>
</svg>
